<svg xmlns="http://www.w3.org/2000/svg" viewBox="0 0 700 700" role="img" aria-label="Placeholder portrait — replace with a headshot" preserveAspectRatio="xMidYMid slice"><defs><radialGradient id="bg" cx="50%" cy="38%" r="85%"><stop offset="0%" stop-color="#173456"/><stop offset="55%" stop-color="#0f2138"/><stop offset="100%" stop-color="#081524"/></radialGradient><filter id="gB" x="-40%" y="-40%" width="180%" height="180%"><feGaussianBlur stdDeviation="7"/></filter><filter id="gS" x="-60%" y="-60%" width="220%" height="220%"><feGaussianBlur stdDeviation="2.4"/></filter></defs><rect width="700" height="700" fill="url(#bg)"/><g filter="url(#gB)"><circle cx="651" cy="646" r="2.3" fill="#73bfc3" opacity="0.09"/><circle cx="132" cy="554" r="6.3" fill="#f0c85a" opacity="0.11"/><circle cx="420" cy="404" r="2.8" fill="#b7c79e" opacity="0.11"/><circle cx="550" cy="588" r="4.5" fill="#f0c85a" opacity="0.10"/><circle cx="314" cy="197" r="2.2" fill="#73bfc3" opacity="0.09"/><circle cx="635" cy="619" r="4.1" fill="#f7f4ec" opacity="0.07"/><circle cx="137" cy="172" r="2.9" fill="#ee7655" opacity="0.06"/><circle cx="357" cy="679" r="5.4" fill="#ee7655" opacity="0.15"/><circle cx="314" cy="294" r="4.6" fill="#f0c85a" opacity="0.13"/><circle cx="253" cy="667" r="6.8" fill="#ee7655" opacity="0.15"/><circle cx="284" cy="507" r="5.3" fill="#ee7655" opacity="0.10"/><circle cx="630" cy="351" r="6.2" fill="#f0c85a" opacity="0.12"/><circle cx="320" cy="616" r="3.8" fill="#f7f4ec" opacity="0.12"/><circle cx="341" cy="166" r="3.6" fill="#ee7655" opacity="0.14"/><circle cx="427" cy="530" r="4.4" fill="#f0c85a" opacity="0.15"/><circle cx="486" cy="353" r="4.6" fill="#f7f4ec" opacity="0.11"/><circle cx="226" cy="157" r="4.6" fill="#f7f4ec" opacity="0.14"/><circle cx="538" cy="245" r="2.0" fill="#ee7655" opacity="0.15"/><circle cx="90" cy="399" r="2.2" fill="#f7f4ec" opacity="0.07"/><circle cx="598" cy="90" r="4.6" fill="#f0c85a" opacity="0.07"/><circle cx="159" cy="601" r="4.1" fill="#73bfc3" opacity="0.06"/><circle cx="258" cy="185" r="2.1" fill="#73bfc3" opacity="0.15"/><circle cx="37" cy="501" r="2.1" fill="#f0c85a" opacity="0.06"/><circle cx="638" cy="505" r="4.6" fill="#73bfc3" opacity="0.09"/><circle cx="48" cy="673" r="2.8" fill="#73bfc3" opacity="0.05"/><circle cx="639" cy="434" r="5.7" fill="#f0c85a" opacity="0.08"/></g><g fill="none" stroke-linecap="round" filter="url(#gB)" opacity="0.4"><path d="M350.0 320.0 Q316.8 323.3 284.6 314.6" stroke="#73bfc3" stroke-width="8.7"/><path d="M284.6 314.6 Q255.9 305.6 227.1 297.0" stroke="#73bfc3" stroke-width="8.3"/><path d="M227.1 297.0 Q199.9 302.4 174.5 291.1" stroke="#73bfc3" stroke-width="7.9"/><path d="M174.5 291.1 Q154.1 294.3 135.1 302.5" stroke="#73bfc3" stroke-width="7.2"/><path d="M135.1 302.5 Q117.4 298.2 99.3 300.1" stroke="#73bfc3" stroke-width="6.9"/><path d="M99.3 300.1 Q94.1 287.7 83.1 279.8" stroke="#73bfc3" stroke-width="6.5"/><path d="M83.1 279.8 Q75.5 271.7 72.8 261.0" stroke="#73bfc3" stroke-width="6.4"/><path d="M72.8 261.0 Q65.4 260.9 58.7 257.7" stroke="#73bfc3" stroke-width="6.1"/><path d="M58.7 257.7 Q52.6 255.0 45.9 254.9" stroke="#73bfc3" stroke-width="6.1"/><path d="M45.9 254.9 Q40.5 254.3 35.1 255.0" stroke="#73bfc3" stroke-width="6.1"/><path d="M99.3 300.1 Q85.8 294.1 72.6 287.7" stroke="#73bfc3" stroke-width="6.5"/><path d="M72.6 287.7 Q60.2 281.0 46.1 281.5" stroke="#73bfc3" stroke-width="6.4"/><path d="M46.1 281.5 Q36.1 281.9 26.3 279.9" stroke="#73bfc3" stroke-width="6.1"/><path d="M26.3 279.9 Q17.5 278.7 8.9 281.3" stroke="#73bfc3" stroke-width="6.1"/><path d="M8.9 281.3 Q1.8 278.5 -5.7 280.2" stroke="#73bfc3" stroke-width="6.1"/><path d="M174.5 291.1 Q155.9 286.0 136.7 283.9" stroke="#73bfc3" stroke-width="7.2"/><path d="M136.7 283.9 Q120.5 286.1 104.2 285.3" stroke="#73bfc3" stroke-width="6.9"/><path d="M104.2 285.3 Q89.2 286.6 74.4 289.8" stroke="#73bfc3" stroke-width="6.7"/><path d="M74.4 289.8 Q66.3 298.4 60.4 308.6" stroke="#73bfc3" stroke-width="6.4"/><path d="M60.4 308.6 Q50.2 312.6 43.7 321.4" stroke="#73bfc3" stroke-width="6.2"/><path d="M43.7 321.4 Q34.2 321.7 26.3 327.0" stroke="#73bfc3" stroke-width="6.1"/><path d="M26.3 327.0 Q20.9 322.6 14.0 321.6" stroke="#73bfc3" stroke-width="6.1"/><path d="M14.0 321.6 Q8.8 319.3 3.8 316.5" stroke="#73bfc3" stroke-width="6.1"/><path d="M3.8 316.5 Q-1.0 314.7 -4.2 310.7" stroke="#73bfc3" stroke-width="6.1"/><path d="M74.4 289.8 Q71.7 299.4 67.1 308.2" stroke="#73bfc3" stroke-width="6.4"/><path d="M67.1 308.2 Q60.1 314.2 55.2 322.0" stroke="#73bfc3" stroke-width="6.2"/><path d="M55.2 322.0 Q49.0 327.7 46.9 335.8" stroke="#73bfc3" stroke-width="6.1"/><path d="M46.9 335.8 Q42.4 338.1 37.6 339.6" stroke="#73bfc3" stroke-width="6.1"/><path d="M37.6 339.6 Q33.6 340.9 30.2 343.5" stroke="#73bfc3" stroke-width="6.1"/><path d="M350.0 320.0 Q316.6 324.5 286.7 309.2" stroke="#73bfc3" stroke-width="8.7"/><path d="M286.7 309.2 Q256.9 303.4 235.5 282.1" stroke="#73bfc3" stroke-width="8.3"/><path d="M235.5 282.1 Q230.3 260.5 218.7 241.7" stroke="#73bfc3" stroke-width="7.4"/><path d="M218.7 241.7 Q203.0 228.4 194.6 209.7" stroke="#73bfc3" stroke-width="7.2"/><path d="M194.6 209.7 Q182.4 197.2 168.1 187.1" stroke="#73bfc3" stroke-width="6.9"/><path d="M168.1 187.1 Q155.8 187.0 143.8 184.1" stroke="#73bfc3" stroke-width="6.5"/><path d="M143.8 184.1 Q133.2 187.2 122.3 185.7" stroke="#73bfc3" stroke-width="6.4"/><path d="M122.3 185.7 Q113.2 185.9 104.4 188.5" stroke="#73bfc3" stroke-width="6.2"/><path d="M104.4 188.5 Q100.3 194.7 93.4 197.4" stroke="#73bfc3" stroke-width="6.1"/><path d="M93.4 197.4 Q89.2 202.0 86.6 207.7" stroke="#73bfc3" stroke-width="6.1"/><path d="M168.1 187.1 Q157.8 179.7 151.6 168.6" stroke="#73bfc3" stroke-width="6.5"/><path d="M151.6 168.6 Q149.5 157.4 143.2 147.8" stroke="#73bfc3" stroke-width="6.4"/><path d="M143.2 147.8 Q141.0 139.3 136.5 131.8" stroke="#73bfc3" stroke-width="6.1"/><path d="M136.5 131.8 Q133.3 124.3 128.3 117.8" stroke="#73bfc3" stroke-width="6.1"/><path d="M235.5 282.1 Q218.2 264.7 197.7 251.1" stroke="#73bfc3" stroke-width="7.4"/><path d="M197.7 251.1 Q186.9 232.7 172.8 216.8" stroke="#73bfc3" stroke-width="7.2"/><path d="M172.8 216.8 Q170.5 197.0 157.6 181.9" stroke="#73bfc3" stroke-width="6.9"/><path d="M157.6 181.9 Q155.0 167.5 154.4 152.8" stroke="#73bfc3" stroke-width="6.5"/><path d="M154.4 152.8 Q147.0 141.7 146.7 128.5" stroke="#73bfc3" stroke-width="6.4"/><path d="M146.7 128.5 Q142.9 118.0 136.5 108.8" stroke="#73bfc3" stroke-width="6.2"/><path d="M136.5 108.8 Q134.0 100.8 133.3 92.5" stroke="#73bfc3" stroke-width="6.1"/><path d="M133.3 92.5 Q134.7 85.6 134.6 78.5" stroke="#73bfc3" stroke-width="6.1"/><path d="M350.0 320.0 Q369.6 297.4 380.8 269.6" stroke="#73bfc3" stroke-width="8.7"/><path d="M380.8 269.6 Q402.2 253.6 418.9 232.6" stroke="#73bfc3" stroke-width="8.3"/><path d="M418.9 232.6 Q438.1 216.9 446.8 193.7" stroke="#73bfc3" stroke-width="7.9"/><path d="M446.8 193.7 Q459.9 178.7 477.6 169.6" stroke="#73bfc3" stroke-width="7.2"/><path d="M477.6 169.6 Q491.0 156.6 509.0 151.8" stroke="#73bfc3" stroke-width="6.9"/><path d="M509.0 151.8 Q521.0 155.8 533.1 152.2" stroke="#73bfc3" stroke-width="6.5"/><path d="M533.1 152.2 Q543.3 153.0 553.4 151.5" stroke="#73bfc3" stroke-width="6.4"/><path d="M553.4 151.5 Q562.2 150.0 570.9 152.0" stroke="#73bfc3" stroke-width="6.2"/><path d="M570.9 152.0 Q576.4 149.4 581.8 146.8" stroke="#73bfc3" stroke-width="6.1"/><path d="M581.8 146.8 Q586.8 145.9 591.5 143.6" stroke="#73bfc3" stroke-width="6.1"/><path d="M509.0 151.8 Q521.3 146.9 532.6 140.1" stroke="#73bfc3" stroke-width="6.5"/><path d="M532.6 140.1 Q543.2 136.7 554.3 137.3" stroke="#73bfc3" stroke-width="6.4"/><path d="M554.3 137.3 Q562.7 135.1 571.1 132.9" stroke="#73bfc3" stroke-width="6.1"/><path d="M571.1 132.9 Q578.3 132.5 585.2 130.3" stroke="#73bfc3" stroke-width="6.1"/><path d="M585.2 130.3 Q590.5 127.4 595.7 124.2" stroke="#73bfc3" stroke-width="6.1"/><path d="M446.8 193.7 Q463.8 193.5 478.6 185.0" stroke="#73bfc3" stroke-width="7.2"/><path d="M478.6 185.0 Q492.8 182.8 507.2 184.1" stroke="#73bfc3" stroke-width="6.9"/><path d="M507.2 184.1 Q517.1 179.1 528.0 180.6" stroke="#73bfc3" stroke-width="6.5"/><path d="M528.0 180.6 Q537.4 178.5 544.7 172.2" stroke="#73bfc3" stroke-width="6.4"/><path d="M544.7 172.2 Q552.5 168.2 561.1 167.4" stroke="#73bfc3" stroke-width="6.2"/><path d="M561.1 167.4 Q566.8 169.8 572.9 169.8" stroke="#73bfc3" stroke-width="6.1"/><path d="M572.9 169.8 Q578.1 169.5 583.2 170.2" stroke="#73bfc3" stroke-width="6.1"/><path d="M583.2 170.2 Q587.4 171.9 592.0 171.4" stroke="#73bfc3" stroke-width="6.1"/><path d="M350.0 320.0 Q363.5 293.2 386.9 274.4" stroke="#73bfc3" stroke-width="8.7"/><path d="M386.9 274.4 Q404.1 254.2 412.9 229.1" stroke="#73bfc3" stroke-width="8.3"/><path d="M412.9 229.1 Q413.5 206.2 421.7 184.7" stroke="#73bfc3" stroke-width="7.9"/><path d="M421.7 184.7 Q416.3 170.8 405.7 160.2" stroke="#73bfc3" stroke-width="7.2"/><path d="M405.7 160.2 Q395.2 153.5 386.2 144.9" stroke="#73bfc3" stroke-width="6.9"/><path d="M386.2 144.9 Q376.7 139.0 370.3 129.9" stroke="#73bfc3" stroke-width="6.7"/><path d="M370.3 129.9 Q362.9 124.6 354.5 121.2" stroke="#73bfc3" stroke-width="6.4"/><path d="M354.5 121.2 Q349.9 114.8 342.7 111.4" stroke="#73bfc3" stroke-width="6.2"/><path d="M342.7 111.4 Q340.0 105.6 337.5 99.8" stroke="#73bfc3" stroke-width="6.1"/><path d="M337.5 99.8 Q335.9 94.0 331.8 89.8" stroke="#73bfc3" stroke-width="6.1"/><path d="M331.8 89.8 Q327.6 86.9 325.7 82.2" stroke="#73bfc3" stroke-width="6.1"/><path d="M370.3 129.9 Q370.7 121.3 366.1 114.1" stroke="#73bfc3" stroke-width="6.4"/><path d="M366.1 114.1 Q366.8 106.8 365.2 99.6" stroke="#73bfc3" stroke-width="6.2"/><path d="M365.2 99.6 Q362.3 93.3 363.0 86.4" stroke="#73bfc3" stroke-width="6.1"/><path d="M363.0 86.4 Q361.4 81.5 357.3 78.5" stroke="#73bfc3" stroke-width="6.1"/><path d="M357.3 78.5 Q356.6 74.0 354.5 69.9" stroke="#73bfc3" stroke-width="6.1"/><path d="M354.5 69.9 Q354.6 65.6 353.3 61.5" stroke="#73bfc3" stroke-width="6.1"/><path d="M421.7 184.7 Q432.1 173.6 443.4 163.6" stroke="#73bfc3" stroke-width="7.2"/><path d="M443.4 163.6 Q456.0 157.9 466.1 148.6" stroke="#73bfc3" stroke-width="6.9"/><path d="M466.1 148.6 Q471.6 140.2 480.8 136.0" stroke="#73bfc3" stroke-width="6.5"/><path d="M480.8 136.0 Q487.6 129.9 491.7 121.8" stroke="#73bfc3" stroke-width="6.4"/><path d="M491.7 121.8 Q495.4 115.0 500.6 109.3" stroke="#73bfc3" stroke-width="6.2"/><path d="M500.6 109.3 Q499.5 104.4 501.4 99.8" stroke="#73bfc3" stroke-width="6.1"/><path d="M501.4 99.8 Q502.3 95.6 502.7 91.3" stroke="#73bfc3" stroke-width="6.1"/><path d="M466.1 148.6 Q476.8 144.4 488.1 146.8" stroke="#73bfc3" stroke-width="6.5"/><path d="M488.1 146.8 Q497.3 142.3 507.4 139.9" stroke="#73bfc3" stroke-width="6.4"/><path d="M507.4 139.9 Q515.7 137.0 524.2 134.6" stroke="#73bfc3" stroke-width="6.2"/><path d="M524.2 134.6 Q526.3 128.8 530.1 123.9" stroke="#73bfc3" stroke-width="6.1"/><path d="M530.1 123.9 Q534.8 120.6 537.3 115.3" stroke="#73bfc3" stroke-width="6.1"/><path d="M350.0 320.0 Q320.8 329.9 298.2 350.9" stroke="#73bfc3" stroke-width="8.7"/><path d="M298.2 350.9 Q276.0 364.2 251.1 371.3" stroke="#73bfc3" stroke-width="8.3"/><path d="M251.1 371.3 Q233.7 380.6 222.9 397.1" stroke="#73bfc3" stroke-width="7.4"/><path d="M222.9 397.1 Q213.3 413.0 196.3 420.6" stroke="#73bfc3" stroke-width="7.2"/><path d="M196.3 420.6 Q189.8 434.4 190.3 449.7" stroke="#73bfc3" stroke-width="6.7"/><path d="M190.3 449.7 Q190.2 463.2 193.9 476.1" stroke="#73bfc3" stroke-width="6.5"/><path d="M193.9 476.1 Q199.4 484.7 199.1 495.0" stroke="#73bfc3" stroke-width="6.2"/><path d="M199.1 495.0 Q204.2 502.7 208.2 510.9" stroke="#73bfc3" stroke-width="6.1"/><path d="M208.2 510.9 Q210.4 518.6 214.7 525.5" stroke="#73bfc3" stroke-width="6.1"/><path d="M196.3 420.6 Q181.3 416.3 166.1 419.7" stroke="#73bfc3" stroke-width="6.7"/><path d="M166.1 419.7 Q152.6 423.8 138.6 421.8" stroke="#73bfc3" stroke-width="6.5"/><path d="M138.6 421.8 Q132.4 430.1 122.8 433.7" stroke="#73bfc3" stroke-width="6.2"/><path d="M122.8 433.7 Q117.0 439.7 112.3 446.6" stroke="#73bfc3" stroke-width="6.1"/><path d="M112.3 446.6 Q110.4 454.2 105.1 460.1" stroke="#73bfc3" stroke-width="6.1"/><path d="M251.1 371.3 Q234.6 375.1 218.4 370.2" stroke="#73bfc3" stroke-width="7.4"/><path d="M218.4 370.2 Q204.3 372.3 190.9 367.3" stroke="#73bfc3" stroke-width="7.2"/><path d="M190.9 367.3 Q184.0 359.8 174.2 357.2" stroke="#73bfc3" stroke-width="6.7"/><path d="M174.2 357.2 Q168.7 350.0 160.3 346.1" stroke="#73bfc3" stroke-width="6.5"/><path d="M160.3 346.1 Q157.5 341.4 154.3 336.9" stroke="#73bfc3" stroke-width="6.2"/><path d="M154.3 336.9 Q151.8 332.8 151.7 328.0" stroke="#73bfc3" stroke-width="6.1"/><path d="M151.7 328.0 Q151.9 323.6 150.9 319.4" stroke="#73bfc3" stroke-width="6.1"/><path d="M190.9 367.3 Q182.1 362.2 174.9 354.9" stroke="#73bfc3" stroke-width="6.7"/><path d="M174.9 354.9 Q168.5 349.4 162.2 343.8" stroke="#73bfc3" stroke-width="6.5"/><path d="M162.2 343.8 Q155.8 339.4 148.3 336.9" stroke="#73bfc3" stroke-width="6.4"/><path d="M148.3 336.9 Q143.3 335.3 139.8 331.3" stroke="#73bfc3" stroke-width="6.1"/><path d="M139.8 331.3 Q136.6 328.0 133.3 324.7" stroke="#73bfc3" stroke-width="6.1"/><path d="M133.3 324.7 Q131.1 321.5 130.1 317.7" stroke="#73bfc3" stroke-width="6.1"/><path d="M350.0 320.0 Q368.7 292.4 371.2 259.1" stroke="#73bfc3" stroke-width="8.7"/><path d="M371.2 259.1 Q366.4 230.2 378.3 203.3" stroke="#73bfc3" stroke-width="8.3"/><path d="M378.3 203.3 Q384.9 180.4 396.1 159.3" stroke="#73bfc3" stroke-width="7.9"/><path d="M396.1 159.3 Q405.4 144.5 417.0 131.5" stroke="#73bfc3" stroke-width="7.2"/><path d="M417.0 131.5 Q429.0 122.3 436.3 109.0" stroke="#73bfc3" stroke-width="6.9"/><path d="M436.3 109.0 Q443.8 97.8 453.5 88.4" stroke="#73bfc3" stroke-width="6.7"/><path d="M453.5 88.4 Q456.1 77.8 461.8 68.5" stroke="#73bfc3" stroke-width="6.4"/><path d="M461.8 68.5 Q463.8 58.5 467.4 49.0" stroke="#73bfc3" stroke-width="6.2"/><path d="M467.4 49.0 Q466.2 41.3 467.9 33.8" stroke="#73bfc3" stroke-width="6.1"/><path d="M467.9 33.8 Q468.2 26.6 471.0 19.9" stroke="#73bfc3" stroke-width="6.1"/><path d="M471.0 19.9 Q469.2 14.1 469.6 8.1" stroke="#73bfc3" stroke-width="6.1"/><path d="M453.5 88.4 Q461.5 83.6 469.9 79.5" stroke="#73bfc3" stroke-width="6.4"/><path d="M469.9 79.5 Q475.5 72.8 483.4 69.4" stroke="#73bfc3" stroke-width="6.2"/><path d="M483.4 69.4 Q482.7 64.2 484.5 59.2" stroke="#73bfc3" stroke-width="6.1"/><path d="M484.5 59.2 Q483.2 54.9 482.9 50.4" stroke="#73bfc3" stroke-width="6.1"/><path d="M396.1 159.3 Q412.2 155.3 427.9 150.3" stroke="#73bfc3" stroke-width="7.2"/><path d="M427.9 150.3 Q438.9 141.4 450.8 133.8" stroke="#73bfc3" stroke-width="6.9"/><path d="M450.8 133.8 Q462.8 129.0 475.0 124.8" stroke="#73bfc3" stroke-width="6.7"/><path d="M475.0 124.8 Q483.1 119.9 490.3 113.7" stroke="#73bfc3" stroke-width="6.4"/><path d="M490.3 113.7 Q493.9 106.3 500.7 101.6" stroke="#73bfc3" stroke-width="6.2"/><path d="M500.7 101.6 Q505.9 96.1 507.3 88.6" stroke="#73bfc3" stroke-width="6.1"/><path d="M507.3 88.6 Q509.0 83.3 513.3 79.9" stroke="#73bfc3" stroke-width="6.1"/><path d="M513.3 79.9 Q515.8 76.1 519.4 73.3" stroke="#73bfc3" stroke-width="6.1"/></g><g fill="none" stroke-linecap="round" opacity="0.7"><path d="M350.0 320.0 Q316.8 323.3 284.6 314.6" stroke="#73bfc3" stroke-width="3.2"/><path d="M284.6 314.6 Q255.9 305.6 227.1 297.0" stroke="#73bfc3" stroke-width="2.8"/><path d="M227.1 297.0 Q199.9 302.4 174.5 291.1" stroke="#73bfc3" stroke-width="2.4"/><path d="M174.5 291.1 Q154.1 294.3 135.1 302.5" stroke="#73bfc3" stroke-width="1.7"/><path d="M135.1 302.5 Q117.4 298.2 99.3 300.1" stroke="#73bfc3" stroke-width="1.4"/><path d="M99.3 300.1 Q94.1 287.7 83.1 279.8" stroke="#73bfc3" stroke-width="1.0"/><path d="M83.1 279.8 Q75.5 271.7 72.8 261.0" stroke="#73bfc3" stroke-width="0.9"/><path d="M72.8 261.0 Q65.4 260.9 58.7 257.7" stroke="#73bfc3" stroke-width="0.6"/><path d="M58.7 257.7 Q52.6 255.0 45.9 254.9" stroke="#73bfc3" stroke-width="0.6"/><path d="M45.9 254.9 Q40.5 254.3 35.1 255.0" stroke="#73bfc3" stroke-width="0.6"/><path d="M99.3 300.1 Q85.8 294.1 72.6 287.7" stroke="#73bfc3" stroke-width="1.0"/><path d="M72.6 287.7 Q60.2 281.0 46.1 281.5" stroke="#73bfc3" stroke-width="0.9"/><path d="M46.1 281.5 Q36.1 281.9 26.3 279.9" stroke="#73bfc3" stroke-width="0.6"/><path d="M26.3 279.9 Q17.5 278.7 8.9 281.3" stroke="#73bfc3" stroke-width="0.6"/><path d="M8.9 281.3 Q1.8 278.5 -5.7 280.2" stroke="#73bfc3" stroke-width="0.6"/><path d="M174.5 291.1 Q155.9 286.0 136.7 283.9" stroke="#73bfc3" stroke-width="1.7"/><path d="M136.7 283.9 Q120.5 286.1 104.2 285.3" stroke="#73bfc3" stroke-width="1.4"/><path d="M104.2 285.3 Q89.2 286.6 74.4 289.8" stroke="#73bfc3" stroke-width="1.2"/><path d="M74.4 289.8 Q66.3 298.4 60.4 308.6" stroke="#73bfc3" stroke-width="0.9"/><path d="M60.4 308.6 Q50.2 312.6 43.7 321.4" stroke="#73bfc3" stroke-width="0.7"/><path d="M43.7 321.4 Q34.2 321.7 26.3 327.0" stroke="#73bfc3" stroke-width="0.6"/><path d="M26.3 327.0 Q20.9 322.6 14.0 321.6" stroke="#73bfc3" stroke-width="0.6"/><path d="M14.0 321.6 Q8.8 319.3 3.8 316.5" stroke="#73bfc3" stroke-width="0.6"/><path d="M3.8 316.5 Q-1.0 314.7 -4.2 310.7" stroke="#73bfc3" stroke-width="0.6"/><path d="M74.4 289.8 Q71.7 299.4 67.1 308.2" stroke="#73bfc3" stroke-width="0.9"/><path d="M67.1 308.2 Q60.1 314.2 55.2 322.0" stroke="#73bfc3" stroke-width="0.7"/><path d="M55.2 322.0 Q49.0 327.7 46.9 335.8" stroke="#73bfc3" stroke-width="0.6"/><path d="M46.9 335.8 Q42.4 338.1 37.6 339.6" stroke="#73bfc3" stroke-width="0.6"/><path d="M37.6 339.6 Q33.6 340.9 30.2 343.5" stroke="#73bfc3" stroke-width="0.6"/><path d="M350.0 320.0 Q316.6 324.5 286.7 309.2" stroke="#73bfc3" stroke-width="3.2"/><path d="M286.7 309.2 Q256.9 303.4 235.5 282.1" stroke="#73bfc3" stroke-width="2.8"/><path d="M235.5 282.1 Q230.3 260.5 218.7 241.7" stroke="#73bfc3" stroke-width="1.9"/><path d="M218.7 241.7 Q203.0 228.4 194.6 209.7" stroke="#73bfc3" stroke-width="1.7"/><path d="M194.6 209.7 Q182.4 197.2 168.1 187.1" stroke="#73bfc3" stroke-width="1.4"/><path d="M168.1 187.1 Q155.8 187.0 143.8 184.1" stroke="#73bfc3" stroke-width="1.0"/><path d="M143.8 184.1 Q133.2 187.2 122.3 185.7" stroke="#73bfc3" stroke-width="0.9"/><path d="M122.3 185.7 Q113.2 185.9 104.4 188.5" stroke="#73bfc3" stroke-width="0.7"/><path d="M104.4 188.5 Q100.3 194.7 93.4 197.4" stroke="#73bfc3" stroke-width="0.6"/><path d="M93.4 197.4 Q89.2 202.0 86.6 207.7" stroke="#73bfc3" stroke-width="0.6"/><path d="M168.1 187.1 Q157.8 179.7 151.6 168.6" stroke="#73bfc3" stroke-width="1.0"/><path d="M151.6 168.6 Q149.5 157.4 143.2 147.8" stroke="#73bfc3" stroke-width="0.9"/><path d="M143.2 147.8 Q141.0 139.3 136.5 131.8" stroke="#73bfc3" stroke-width="0.6"/><path d="M136.5 131.8 Q133.3 124.3 128.3 117.8" stroke="#73bfc3" stroke-width="0.6"/><path d="M235.5 282.1 Q218.2 264.7 197.7 251.1" stroke="#73bfc3" stroke-width="1.9"/><path d="M197.7 251.1 Q186.9 232.7 172.8 216.8" stroke="#73bfc3" stroke-width="1.7"/><path d="M172.8 216.8 Q170.5 197.0 157.6 181.9" stroke="#73bfc3" stroke-width="1.4"/><path d="M157.6 181.9 Q155.0 167.5 154.4 152.8" stroke="#73bfc3" stroke-width="1.0"/><path d="M154.4 152.8 Q147.0 141.7 146.7 128.5" stroke="#73bfc3" stroke-width="0.9"/><path d="M146.7 128.5 Q142.9 118.0 136.5 108.8" stroke="#73bfc3" stroke-width="0.7"/><path d="M136.5 108.8 Q134.0 100.8 133.3 92.5" stroke="#73bfc3" stroke-width="0.6"/><path d="M133.3 92.5 Q134.7 85.6 134.6 78.5" stroke="#73bfc3" stroke-width="0.6"/><path d="M350.0 320.0 Q369.6 297.4 380.8 269.6" stroke="#73bfc3" stroke-width="3.2"/><path d="M380.8 269.6 Q402.2 253.6 418.9 232.6" stroke="#73bfc3" stroke-width="2.8"/><path d="M418.9 232.6 Q438.1 216.9 446.8 193.7" stroke="#73bfc3" stroke-width="2.4"/><path d="M446.8 193.7 Q459.9 178.7 477.6 169.6" stroke="#73bfc3" stroke-width="1.7"/><path d="M477.6 169.6 Q491.0 156.6 509.0 151.8" stroke="#73bfc3" stroke-width="1.4"/><path d="M509.0 151.8 Q521.0 155.8 533.1 152.2" stroke="#73bfc3" stroke-width="1.0"/><path d="M533.1 152.2 Q543.3 153.0 553.4 151.5" stroke="#73bfc3" stroke-width="0.9"/><path d="M553.4 151.5 Q562.2 150.0 570.9 152.0" stroke="#73bfc3" stroke-width="0.7"/><path d="M570.9 152.0 Q576.4 149.4 581.8 146.8" stroke="#73bfc3" stroke-width="0.6"/><path d="M581.8 146.8 Q586.8 145.9 591.5 143.6" stroke="#73bfc3" stroke-width="0.6"/><path d="M509.0 151.8 Q521.3 146.9 532.6 140.1" stroke="#73bfc3" stroke-width="1.0"/><path d="M532.6 140.1 Q543.2 136.7 554.3 137.3" stroke="#73bfc3" stroke-width="0.9"/><path d="M554.3 137.3 Q562.7 135.1 571.1 132.9" stroke="#73bfc3" stroke-width="0.6"/><path d="M571.1 132.9 Q578.3 132.5 585.2 130.3" stroke="#73bfc3" stroke-width="0.6"/><path d="M585.2 130.3 Q590.5 127.4 595.7 124.2" stroke="#73bfc3" stroke-width="0.6"/><path d="M446.8 193.7 Q463.8 193.5 478.6 185.0" stroke="#73bfc3" stroke-width="1.7"/><path d="M478.6 185.0 Q492.8 182.8 507.2 184.1" stroke="#73bfc3" stroke-width="1.4"/><path d="M507.2 184.1 Q517.1 179.1 528.0 180.6" stroke="#73bfc3" stroke-width="1.0"/><path d="M528.0 180.6 Q537.4 178.5 544.7 172.2" stroke="#73bfc3" stroke-width="0.9"/><path d="M544.7 172.2 Q552.5 168.2 561.1 167.4" stroke="#73bfc3" stroke-width="0.7"/><path d="M561.1 167.4 Q566.8 169.8 572.9 169.8" stroke="#73bfc3" stroke-width="0.6"/><path d="M572.9 169.8 Q578.1 169.5 583.2 170.2" stroke="#73bfc3" stroke-width="0.6"/><path d="M583.2 170.2 Q587.4 171.9 592.0 171.4" stroke="#73bfc3" stroke-width="0.6"/><path d="M350.0 320.0 Q363.5 293.2 386.9 274.4" stroke="#73bfc3" stroke-width="3.2"/><path d="M386.9 274.4 Q404.1 254.2 412.9 229.1" stroke="#73bfc3" stroke-width="2.8"/><path d="M412.9 229.1 Q413.5 206.2 421.7 184.7" stroke="#73bfc3" stroke-width="2.4"/><path d="M421.7 184.7 Q416.3 170.8 405.7 160.2" stroke="#73bfc3" stroke-width="1.7"/><path d="M405.7 160.2 Q395.2 153.5 386.2 144.9" stroke="#73bfc3" stroke-width="1.4"/><path d="M386.2 144.9 Q376.7 139.0 370.3 129.9" stroke="#73bfc3" stroke-width="1.2"/><path d="M370.3 129.9 Q362.9 124.6 354.5 121.2" stroke="#73bfc3" stroke-width="0.9"/><path d="M354.5 121.2 Q349.9 114.8 342.7 111.4" stroke="#73bfc3" stroke-width="0.7"/><path d="M342.7 111.4 Q340.0 105.6 337.5 99.8" stroke="#73bfc3" stroke-width="0.6"/><path d="M337.5 99.8 Q335.9 94.0 331.8 89.8" stroke="#73bfc3" stroke-width="0.6"/><path d="M331.8 89.8 Q327.6 86.9 325.7 82.2" stroke="#73bfc3" stroke-width="0.6"/><path d="M370.3 129.9 Q370.7 121.3 366.1 114.1" stroke="#73bfc3" stroke-width="0.9"/><path d="M366.1 114.1 Q366.8 106.8 365.2 99.6" stroke="#73bfc3" stroke-width="0.7"/><path d="M365.2 99.6 Q362.3 93.3 363.0 86.4" stroke="#73bfc3" stroke-width="0.6"/><path d="M363.0 86.4 Q361.4 81.5 357.3 78.5" stroke="#73bfc3" stroke-width="0.6"/><path d="M357.3 78.5 Q356.6 74.0 354.5 69.9" stroke="#73bfc3" stroke-width="0.6"/><path d="M354.5 69.9 Q354.6 65.6 353.3 61.5" stroke="#73bfc3" stroke-width="0.6"/><path d="M421.7 184.7 Q432.1 173.6 443.4 163.6" stroke="#73bfc3" stroke-width="1.7"/><path d="M443.4 163.6 Q456.0 157.9 466.1 148.6" stroke="#73bfc3" stroke-width="1.4"/><path d="M466.1 148.6 Q471.6 140.2 480.8 136.0" stroke="#73bfc3" stroke-width="1.0"/><path d="M480.8 136.0 Q487.6 129.9 491.7 121.8" stroke="#73bfc3" stroke-width="0.9"/><path d="M491.7 121.8 Q495.4 115.0 500.6 109.3" stroke="#73bfc3" stroke-width="0.7"/><path d="M500.6 109.3 Q499.5 104.4 501.4 99.8" stroke="#73bfc3" stroke-width="0.6"/><path d="M501.4 99.8 Q502.3 95.6 502.7 91.3" stroke="#73bfc3" stroke-width="0.6"/><path d="M466.1 148.6 Q476.8 144.4 488.1 146.8" stroke="#73bfc3" stroke-width="1.0"/><path d="M488.1 146.8 Q497.3 142.3 507.4 139.9" stroke="#73bfc3" stroke-width="0.9"/><path d="M507.4 139.9 Q515.7 137.0 524.2 134.6" stroke="#73bfc3" stroke-width="0.7"/><path d="M524.2 134.6 Q526.3 128.8 530.1 123.9" stroke="#73bfc3" stroke-width="0.6"/><path d="M530.1 123.9 Q534.8 120.6 537.3 115.3" stroke="#73bfc3" stroke-width="0.6"/><path d="M350.0 320.0 Q320.8 329.9 298.2 350.9" stroke="#73bfc3" stroke-width="3.2"/><path d="M298.2 350.9 Q276.0 364.2 251.1 371.3" stroke="#73bfc3" stroke-width="2.8"/><path d="M251.1 371.3 Q233.7 380.6 222.9 397.1" stroke="#73bfc3" stroke-width="1.9"/><path d="M222.9 397.1 Q213.3 413.0 196.3 420.6" stroke="#73bfc3" stroke-width="1.7"/><path d="M196.3 420.6 Q189.8 434.4 190.3 449.7" stroke="#73bfc3" stroke-width="1.2"/><path d="M190.3 449.7 Q190.2 463.2 193.9 476.1" stroke="#73bfc3" stroke-width="1.0"/><path d="M193.9 476.1 Q199.4 484.7 199.1 495.0" stroke="#73bfc3" stroke-width="0.7"/><path d="M199.1 495.0 Q204.2 502.7 208.2 510.9" stroke="#73bfc3" stroke-width="0.6"/><path d="M208.2 510.9 Q210.4 518.6 214.7 525.5" stroke="#73bfc3" stroke-width="0.6"/><path d="M196.3 420.6 Q181.3 416.3 166.1 419.7" stroke="#73bfc3" stroke-width="1.2"/><path d="M166.1 419.7 Q152.6 423.8 138.6 421.8" stroke="#73bfc3" stroke-width="1.0"/><path d="M138.6 421.8 Q132.4 430.1 122.8 433.7" stroke="#73bfc3" stroke-width="0.7"/><path d="M122.8 433.7 Q117.0 439.7 112.3 446.6" stroke="#73bfc3" stroke-width="0.6"/><path d="M112.3 446.6 Q110.4 454.2 105.1 460.1" stroke="#73bfc3" stroke-width="0.6"/><path d="M251.1 371.3 Q234.6 375.1 218.4 370.2" stroke="#73bfc3" stroke-width="1.9"/><path d="M218.4 370.2 Q204.3 372.3 190.9 367.3" stroke="#73bfc3" stroke-width="1.7"/><path d="M190.9 367.3 Q184.0 359.8 174.2 357.2" stroke="#73bfc3" stroke-width="1.2"/><path d="M174.2 357.2 Q168.7 350.0 160.3 346.1" stroke="#73bfc3" stroke-width="1.0"/><path d="M160.3 346.1 Q157.5 341.4 154.3 336.9" stroke="#73bfc3" stroke-width="0.7"/><path d="M154.3 336.9 Q151.8 332.8 151.7 328.0" stroke="#73bfc3" stroke-width="0.6"/><path d="M151.7 328.0 Q151.9 323.6 150.9 319.4" stroke="#73bfc3" stroke-width="0.6"/><path d="M190.9 367.3 Q182.1 362.2 174.9 354.9" stroke="#73bfc3" stroke-width="1.2"/><path d="M174.9 354.9 Q168.5 349.4 162.2 343.8" stroke="#73bfc3" stroke-width="1.0"/><path d="M162.2 343.8 Q155.8 339.4 148.3 336.9" stroke="#73bfc3" stroke-width="0.9"/><path d="M148.3 336.9 Q143.3 335.3 139.8 331.3" stroke="#73bfc3" stroke-width="0.6"/><path d="M139.8 331.3 Q136.6 328.0 133.3 324.7" stroke="#73bfc3" stroke-width="0.6"/><path d="M133.3 324.7 Q131.1 321.5 130.1 317.7" stroke="#73bfc3" stroke-width="0.6"/><path d="M350.0 320.0 Q368.7 292.4 371.2 259.1" stroke="#73bfc3" stroke-width="3.2"/><path d="M371.2 259.1 Q366.4 230.2 378.3 203.3" stroke="#73bfc3" stroke-width="2.8"/><path d="M378.3 203.3 Q384.9 180.4 396.1 159.3" stroke="#73bfc3" stroke-width="2.4"/><path d="M396.1 159.3 Q405.4 144.5 417.0 131.5" stroke="#73bfc3" stroke-width="1.7"/><path d="M417.0 131.5 Q429.0 122.3 436.3 109.0" stroke="#73bfc3" stroke-width="1.4"/><path d="M436.3 109.0 Q443.8 97.8 453.5 88.4" stroke="#73bfc3" stroke-width="1.2"/><path d="M453.5 88.4 Q456.1 77.8 461.8 68.5" stroke="#73bfc3" stroke-width="0.9"/><path d="M461.8 68.5 Q463.8 58.5 467.4 49.0" stroke="#73bfc3" stroke-width="0.7"/><path d="M467.4 49.0 Q466.2 41.3 467.9 33.8" stroke="#73bfc3" stroke-width="0.6"/><path d="M467.9 33.8 Q468.2 26.6 471.0 19.9" stroke="#73bfc3" stroke-width="0.6"/><path d="M471.0 19.9 Q469.2 14.1 469.6 8.1" stroke="#73bfc3" stroke-width="0.6"/><path d="M453.5 88.4 Q461.5 83.6 469.9 79.5" stroke="#73bfc3" stroke-width="0.9"/><path d="M469.9 79.5 Q475.5 72.8 483.4 69.4" stroke="#73bfc3" stroke-width="0.7"/><path d="M483.4 69.4 Q482.7 64.2 484.5 59.2" stroke="#73bfc3" stroke-width="0.6"/><path d="M484.5 59.2 Q483.2 54.9 482.9 50.4" stroke="#73bfc3" stroke-width="0.6"/><path d="M396.1 159.3 Q412.2 155.3 427.9 150.3" stroke="#73bfc3" stroke-width="1.7"/><path d="M427.9 150.3 Q438.9 141.4 450.8 133.8" stroke="#73bfc3" stroke-width="1.4"/><path d="M450.8 133.8 Q462.8 129.0 475.0 124.8" stroke="#73bfc3" stroke-width="1.2"/><path d="M475.0 124.8 Q483.1 119.9 490.3 113.7" stroke="#73bfc3" stroke-width="0.9"/><path d="M490.3 113.7 Q493.9 106.3 500.7 101.6" stroke="#73bfc3" stroke-width="0.7"/><path d="M500.7 101.6 Q505.9 96.1 507.3 88.6" stroke="#73bfc3" stroke-width="0.6"/><path d="M507.3 88.6 Q509.0 83.3 513.3 79.9" stroke="#73bfc3" stroke-width="0.6"/><path d="M513.3 79.9 Q515.8 76.1 519.4 73.3" stroke="#73bfc3" stroke-width="0.6"/></g><circle cx="350" cy="320" r="31.5" fill="#73bfc3" opacity=".28" filter="url(#gB)"/><circle cx="350" cy="320" r="15.0" fill="#73bfc3" filter="url(#gS)"/><circle cx="350" cy="320" r="7.5" fill="#fff" opacity=".9"/><text x="350" y="640" fill="#f7f4ec" font-family="Georgia,serif" font-size="22" text-anchor="middle" opacity=".5">portrait to come</text></svg>