<svg xmlns="http://www.w3.org/2000/svg" viewBox="0 0 800 540" role="img" aria-label="A connected community of learners and scientists" preserveAspectRatio="xMidYMid slice"><defs><radialGradient id="bg" cx="45%" cy="40%" r="85%"><stop offset="0%" stop-color="#173456"/><stop offset="55%" stop-color="#0f2138"/><stop offset="100%" stop-color="#081524"/></radialGradient><filter id="gB" x="-40%" y="-40%" width="180%" height="180%"><feGaussianBlur stdDeviation="7"/></filter><filter id="gS" x="-60%" y="-60%" width="220%" height="220%"><feGaussianBlur stdDeviation="2.4"/></filter></defs><rect width="800" height="540" fill="url(#bg)"/><g filter="url(#gB)"><circle cx="493" cy="391" r="6.0" fill="#f7f4ec" opacity="0.05"/><circle cx="374" cy="492" r="5.2" fill="#ee7655" opacity="0.06"/><circle cx="376" cy="143" r="4.7" fill="#f7f4ec" opacity="0.07"/><circle cx="576" cy="224" r="2.9" fill="#b7c79e" opacity="0.07"/><circle cx="626" cy="89" r="5.1" fill="#ee7655" opacity="0.06"/><circle cx="759" cy="23" r="5.9" fill="#ee7655" opacity="0.14"/><circle cx="240" cy="501" r="4.7" fill="#ee7655" opacity="0.07"/><circle cx="756" cy="118" r="6.8" fill="#b7c79e" opacity="0.08"/><circle cx="295" cy="103" r="2.7" fill="#73bfc3" opacity="0.08"/><circle cx="641" cy="313" r="5.0" fill="#f0c85a" opacity="0.06"/><circle cx="290" cy="173" r="5.5" fill="#ee7655" opacity="0.10"/><circle cx="556" cy="49" r="6.9" fill="#73bfc3" opacity="0.14"/><circle cx="292" cy="222" r="4.7" fill="#b7c79e" opacity="0.09"/><circle cx="460" cy="25" r="2.2" fill="#ee7655" opacity="0.11"/><circle cx="745" cy="80" r="3.2" fill="#b7c79e" opacity="0.08"/><circle cx="290" cy="282" r="5.9" fill="#73bfc3" opacity="0.11"/><circle cx="614" cy="204" r="3.5" fill="#b7c79e" opacity="0.14"/><circle cx="89" cy="190" r="5.1" fill="#ee7655" opacity="0.08"/><circle cx="722" cy="293" r="3.6" fill="#f0c85a" opacity="0.08"/><circle cx="627" cy="333" r="5.6" fill="#f0c85a" opacity="0.15"/><circle cx="143" cy="44" r="6.9" fill="#f7f4ec" opacity="0.14"/><circle cx="44" cy="390" r="3.7" fill="#f0c85a" opacity="0.10"/><circle cx="341" cy="48" r="6.6" fill="#73bfc3" opacity="0.13"/><circle cx="274" cy="124" r="6.9" fill="#f7f4ec" opacity="0.14"/><circle cx="499" cy="414" r="2.5" fill="#b7c79e" opacity="0.09"/><circle cx="65" cy="230" r="2.7" fill="#f7f4ec" opacity="0.14"/></g><g fill="none" stroke-linecap="round" filter="url(#gB)" opacity=".5"><path d="M421.9 209.7 Q480.0 333.2 583.2 422.8" stroke="#9fb8c2" stroke-width="2.4"/><path d="M421.9 209.7 Q444.0 310.6 412.5 409.0" stroke="#9fb8c2" stroke-width="2.4"/><path d="M421.9 209.7 Q393.4 298.3 345.0 377.9" stroke="#9fb8c2" stroke-width="2.4"/><path d="M421.9 209.7 Q411.5 316.2 434.9 420.7" stroke="#9fb8c2" stroke-width="2.4"/><path d="M583.2 422.8 Q531.2 423.9 479.3 426.5" stroke="#9fb8c2" stroke-width="2.4"/><path d="M583.2 422.8 Q498.5 408.0 412.5 409.0" stroke="#9fb8c2" stroke-width="2.4"/><path d="M583.2 422.8 Q469.3 372.7 345.0 377.9" stroke="#9fb8c2" stroke-width="2.4"/><path d="M583.2 422.8 Q508.7 442.3 434.9 420.7" stroke="#9fb8c2" stroke-width="2.4"/><path d="M479.3 426.5 Q512.7 360.6 547.3 295.4" stroke="#9fb8c2" stroke-width="2.4"/><path d="M412.5 409.0 Q308.8 410.9 209.5 381.0" stroke="#9fb8c2" stroke-width="2.4"/><path d="M209.5 381.0 Q177.2 255.5 157.9 127.3" stroke="#9fb8c2" stroke-width="2.4"/><path d="M209.5 381.0 Q325.9 380.2 434.9 420.7" stroke="#9fb8c2" stroke-width="2.4"/><path d="M345.0 377.9 Q444.3 332.2 547.3 295.4" stroke="#9fb8c2" stroke-width="2.4"/></g><g fill="none" stroke-linecap="round" opacity=".55"><path d="M421.9 209.7 Q480.0 333.2 583.2 422.8" stroke="#9fb8c2" stroke-width="2.4"/><path d="M421.9 209.7 Q444.0 310.6 412.5 409.0" stroke="#9fb8c2" stroke-width="2.4"/><path d="M421.9 209.7 Q393.4 298.3 345.0 377.9" stroke="#9fb8c2" stroke-width="2.4"/><path d="M421.9 209.7 Q411.5 316.2 434.9 420.7" stroke="#9fb8c2" stroke-width="2.4"/><path d="M583.2 422.8 Q531.2 423.9 479.3 426.5" stroke="#9fb8c2" stroke-width="2.4"/><path d="M583.2 422.8 Q498.5 408.0 412.5 409.0" stroke="#9fb8c2" stroke-width="2.4"/><path d="M583.2 422.8 Q469.3 372.7 345.0 377.9" stroke="#9fb8c2" stroke-width="2.4"/><path d="M583.2 422.8 Q508.7 442.3 434.9 420.7" stroke="#9fb8c2" stroke-width="2.4"/><path d="M479.3 426.5 Q512.7 360.6 547.3 295.4" stroke="#9fb8c2" stroke-width="2.4"/><path d="M412.5 409.0 Q308.8 410.9 209.5 381.0" stroke="#9fb8c2" stroke-width="2.4"/><path d="M209.5 381.0 Q177.2 255.5 157.9 127.3" stroke="#9fb8c2" stroke-width="2.4"/><path d="M209.5 381.0 Q325.9 380.2 434.9 420.7" stroke="#9fb8c2" stroke-width="2.4"/><path d="M345.0 377.9 Q444.3 332.2 547.3 295.4" stroke="#9fb8c2" stroke-width="2.4"/></g><circle cx="422" cy="210" r="26.7" fill="#f0c85a" opacity=".28" filter="url(#gB)"/><circle cx="422" cy="210" r="12.7" fill="#f0c85a" filter="url(#gS)"/><circle cx="422" cy="210" r="6.4" fill="#fff" opacity=".9"/><circle cx="583" cy="423" r="23.9" fill="#f0c85a" opacity=".28" filter="url(#gB)"/><circle cx="583" cy="423" r="11.4" fill="#f0c85a" filter="url(#gS)"/><circle cx="583" cy="423" r="5.7" fill="#fff" opacity=".9"/><circle cx="479" cy="427" r="19.0" fill="#b7c79e" opacity=".28" filter="url(#gB)"/><circle cx="479" cy="427" r="9.0" fill="#b7c79e" filter="url(#gS)"/><circle cx="479" cy="427" r="4.5" fill="#fff" opacity=".9"/><circle cx="413" cy="409" r="19.8" fill="#f0c85a" opacity=".28" filter="url(#gB)"/><circle cx="413" cy="409" r="9.4" fill="#f0c85a" filter="url(#gS)"/><circle cx="413" cy="409" r="4.7" fill="#fff" opacity=".9"/><circle cx="210" cy="381" r="25.6" fill="#ee7655" opacity=".28" filter="url(#gB)"/><circle cx="210" cy="381" r="12.2" fill="#ee7655" filter="url(#gS)"/><circle cx="210" cy="381" r="6.1" fill="#fff" opacity=".9"/><circle cx="345" cy="378" r="25.6" fill="#b7c79e" opacity=".28" filter="url(#gB)"/><circle cx="345" cy="378" r="12.2" fill="#b7c79e" filter="url(#gS)"/><circle cx="345" cy="378" r="6.1" fill="#fff" opacity=".9"/><circle cx="158" cy="127" r="27.4" fill="#ee7655" opacity=".28" filter="url(#gB)"/><circle cx="158" cy="127" r="13.0" fill="#ee7655" filter="url(#gS)"/><circle cx="158" cy="127" r="6.5" fill="#fff" opacity=".9"/><circle cx="547" cy="295" r="22.4" fill="#ee7655" opacity=".28" filter="url(#gB)"/><circle cx="547" cy="295" r="10.7" fill="#ee7655" filter="url(#gS)"/><circle cx="547" cy="295" r="5.3" fill="#fff" opacity=".9"/><circle cx="435" cy="421" r="25.1" fill="#ee7655" opacity=".28" filter="url(#gB)"/><circle cx="435" cy="421" r="12.0" fill="#ee7655" filter="url(#gS)"/><circle cx="435" cy="421" r="6.0" fill="#fff" opacity=".9"/></svg>