<svg xmlns="http://www.w3.org/2000/svg" viewBox="0 0 1000 560" role="img" aria-label="Experimental pathways converging on behavior" preserveAspectRatio="xMidYMid slice"><defs><radialGradient id="bg" cx="30%" cy="45%" r="85%"><stop offset="0%" stop-color="#173456"/><stop offset="55%" stop-color="#0f2138"/><stop offset="100%" stop-color="#081524"/></radialGradient><filter id="gB" x="-40%" y="-40%" width="180%" height="180%"><feGaussianBlur stdDeviation="7"/></filter><filter id="gS" x="-60%" y="-60%" width="220%" height="220%"><feGaussianBlur stdDeviation="2.4"/></filter></defs><rect width="1000" height="560" fill="url(#bg)"/><g filter="url(#gB)"><circle cx="476" cy="362" r="5.3" fill="#ee7655" opacity="0.09"/><circle cx="977" cy="271" r="5.2" fill="#b7c79e" opacity="0.12"/><circle cx="597" cy="310" r="5.3" fill="#ee7655" opacity="0.15"/><circle cx="373" cy="197" r="3.1" fill="#f7f4ec" opacity="0.13"/><circle cx="92" cy="377" r="3.7" fill="#b7c79e" opacity="0.13"/><circle cx="104" cy="498" r="6.1" fill="#f7f4ec" opacity="0.07"/><circle cx="970" cy="240" r="4.2" fill="#b7c79e" opacity="0.15"/><circle cx="538" cy="479" r="4.8" fill="#73bfc3" opacity="0.11"/><circle cx="507" cy="63" r="5.0" fill="#f7f4ec" opacity="0.10"/><circle cx="605" cy="301" r="5.2" fill="#73bfc3" opacity="0.15"/><circle cx="957" cy="365" r="3.8" fill="#f0c85a" opacity="0.14"/><circle cx="390" cy="181" r="3.3" fill="#f0c85a" opacity="0.09"/><circle cx="511" cy="441" r="4.5" fill="#73bfc3" opacity="0.09"/><circle cx="845" cy="37" r="2.1" fill="#b7c79e" opacity="0.05"/><circle cx="216" cy="336" r="5.8" fill="#ee7655" opacity="0.07"/><circle cx="688" cy="39" r="3.4" fill="#f0c85a" opacity="0.11"/><circle cx="717" cy="287" r="3.8" fill="#f0c85a" opacity="0.08"/><circle cx="477" cy="519" r="4.4" fill="#ee7655" opacity="0.10"/><circle cx="547" cy="115" r="5.8" fill="#ee7655" opacity="0.14"/><circle cx="26" cy="159" r="5.9" fill="#f0c85a" opacity="0.07"/><circle cx="783" cy="281" r="3.2" fill="#73bfc3" opacity="0.15"/><circle cx="979" cy="282" r="2.1" fill="#f0c85a" opacity="0.14"/><circle cx="662" cy="165" r="2.6" fill="#f7f4ec" opacity="0.10"/><circle cx="490" cy="204" r="5.4" fill="#b7c79e" opacity="0.14"/><circle cx="176" cy="171" r="6.4" fill="#f0c85a" opacity="0.08"/><circle cx="848" cy="353" r="4.2" fill="#ee7655" opacity="0.12"/><circle cx="520" cy="35" r="2.0" fill="#73bfc3" opacity="0.06"/><circle cx="871" cy="239" r="3.2" fill="#b7c79e" opacity="0.10"/><circle cx="76" cy="317" r="5.6" fill="#f0c85a" opacity="0.13"/><circle cx="421" cy="326" r="6.5" fill="#ee7655" opacity="0.11"/><circle cx="354" cy="212" r="5.7" fill="#f7f4ec" opacity="0.07"/><circle cx="681" cy="101" r="2.2" fill="#73bfc3" opacity="0.14"/><circle cx="894" cy="298" r="5.9" fill="#b7c79e" opacity="0.13"/><circle cx="702" cy="118" r="3.4" fill="#f7f4ec" opacity="0.10"/><circle cx="607" cy="130" r="5.0" fill="#b7c79e" opacity="0.11"/><circle cx="89" cy="205" r="2.4" fill="#f0c85a" opacity="0.06"/><circle cx="107" cy="182" r="5.5" fill="#b7c79e" opacity="0.09"/><circle cx="49" cy="274" r="4.2" fill="#ee7655" opacity="0.06"/><circle cx="590" cy="258" r="6.4" fill="#73bfc3" opacity="0.14"/><circle cx="27" cy="207" r="3.4" fill="#ee7655" opacity="0.12"/><circle cx="304" cy="289" r="2.7" fill="#f0c85a" opacity="0.07"/><circle cx="466" cy="335" r="6.2" fill="#ee7655" opacity="0.10"/><circle cx="774" cy="46" r="5.9" fill="#b7c79e" opacity="0.10"/><circle cx="751" cy="226" r="5.4" fill="#73bfc3" opacity="0.15"/><circle cx="552" cy="374" r="3.8" fill="#73bfc3" opacity="0.08"/><circle cx="500" cy="208" r="3.5" fill="#ee7655" opacity="0.10"/><circle cx="789" cy="90" r="4.5" fill="#b7c79e" opacity="0.13"/><circle cx="294" cy="507" r="5.0" fill="#b7c79e" opacity="0.13"/><circle cx="778" cy="336" r="2.7" fill="#f0c85a" opacity="0.11"/><circle cx="829" cy="336" r="5.9" fill="#b7c79e" opacity="0.09"/><circle cx="652" cy="197" r="5.8" fill="#b7c79e" opacity="0.09"/><circle cx="404" cy="440" r="2.8" fill="#ee7655" opacity="0.13"/><circle cx="125" cy="159" r="6.4" fill="#f0c85a" opacity="0.15"/><circle cx="898" cy="421" r="6.3" fill="#f0c85a" opacity="0.13"/></g><g fill="none" stroke-linecap="round" filter="url(#gB)" opacity="0.55"><path d="M90.0 150.0 Q76.4 162.2 63.5 175.1" stroke="#73bfc3" stroke-width="8.7"/><path d="M63.5 175.1 Q55.8 188.9 48.2 202.7" stroke="#73bfc3" stroke-width="8.3"/><path d="M48.2 202.7 Q52.3 211.2 57.1 219.3" stroke="#73bfc3" stroke-width="7.4"/><path d="M57.1 219.3 Q60.1 227.6 64.0 235.5" stroke="#73bfc3" stroke-width="7.2"/><path d="M64.0 235.5 Q68.4 241.6 68.8 249.1" stroke="#73bfc3" stroke-width="6.9"/><path d="M68.8 249.1 Q72.0 252.6 73.2 257.1" stroke="#73bfc3" stroke-width="6.5"/><path d="M73.2 257.1 Q75.0 260.5 75.3 264.5" stroke="#73bfc3" stroke-width="6.4"/><path d="M75.3 264.5 Q76.2 267.8 76.5 271.2" stroke="#73bfc3" stroke-width="6.2"/><path d="M48.2 202.7 Q45.9 213.8 43.1 224.8" stroke="#73bfc3" stroke-width="7.4"/><path d="M43.1 224.8 Q43.4 235.4 40.4 245.7" stroke="#73bfc3" stroke-width="7.2"/><path d="M40.4 245.7 Q39.8 254.8 34.7 262.5" stroke="#73bfc3" stroke-width="6.9"/><path d="M34.7 262.5 Q31.9 268.0 32.6 274.2" stroke="#73bfc3" stroke-width="6.5"/><path d="M32.6 274.2 Q31.3 279.1 31.5 284.1" stroke="#73bfc3" stroke-width="6.4"/><path d="M31.5 284.1 Q32.3 288.4 30.6 292.4" stroke="#73bfc3" stroke-width="6.2"/><path d="M90.0 150.0 Q81.3 133.1 70.9 117.2" stroke="#73bfc3" stroke-width="8.7"/><path d="M70.9 117.2 Q70.6 100.0 61.3 85.4" stroke="#73bfc3" stroke-width="8.3"/><path d="M61.3 85.4 Q54.8 71.8 56.3 56.7" stroke="#73bfc3" stroke-width="7.9"/><path d="M56.3 56.7 Q66.6 50.2 72.8 39.5" stroke="#73bfc3" stroke-width="7.2"/><path d="M72.8 39.5 Q81.3 33.8 90.8 29.7" stroke="#73bfc3" stroke-width="6.9"/><path d="M90.8 29.7 Q98.1 23.9 106.9 20.9" stroke="#73bfc3" stroke-width="6.7"/><path d="M106.9 20.9 Q112.6 18.2 118.4 15.9" stroke="#73bfc3" stroke-width="6.4"/><path d="M118.4 15.9 Q124.0 16.2 129.4 14.3" stroke="#73bfc3" stroke-width="6.2"/><path d="M129.4 14.3 Q134.2 12.5 139.2 11.2" stroke="#73bfc3" stroke-width="6.1"/><path d="M56.3 56.7 Q48.1 50.6 44.8 40.8" stroke="#73bfc3" stroke-width="7.2"/><path d="M44.8 40.8 Q37.3 35.8 31.3 28.9" stroke="#73bfc3" stroke-width="6.9"/><path d="M31.3 28.9 Q29.1 22.8 25.5 17.4" stroke="#73bfc3" stroke-width="6.5"/><path d="M25.5 17.4 Q23.9 11.9 21.2 6.9" stroke="#73bfc3" stroke-width="6.4"/><path d="M21.2 6.9 Q21.5 2.2 20.1 -2.4" stroke="#73bfc3" stroke-width="6.2"/><path d="M90.0 150.0 Q77.5 163.9 59.6 169.5" stroke="#73bfc3" stroke-width="8.7"/><path d="M59.6 169.5 Q50.1 181.5 38.4 191.5" stroke="#73bfc3" stroke-width="8.3"/><path d="M38.4 191.5 Q35.9 204.1 28.3 214.5" stroke="#73bfc3" stroke-width="7.9"/><path d="M28.3 214.5 Q34.9 221.7 39.0 230.6" stroke="#73bfc3" stroke-width="7.2"/><path d="M39.0 230.6 Q45.8 235.7 49.5 243.4" stroke="#73bfc3" stroke-width="6.9"/><path d="M49.5 243.4 Q52.2 250.6 54.6 257.9" stroke="#73bfc3" stroke-width="6.7"/><path d="M54.6 257.9 Q58.2 261.1 61.8 264.4" stroke="#73bfc3" stroke-width="6.4"/><path d="M61.8 264.4 Q65.6 266.8 68.3 270.4" stroke="#73bfc3" stroke-width="6.2"/><path d="M68.3 270.4 Q71.2 273.3 74.8 275.4" stroke="#73bfc3" stroke-width="6.1"/><path d="M28.3 214.5 Q22.1 219.3 19.0 226.5" stroke="#73bfc3" stroke-width="7.2"/><path d="M19.0 226.5 Q15.9 232.3 13.2 238.3" stroke="#73bfc3" stroke-width="6.9"/><path d="M13.2 238.3 Q9.7 242.9 7.1 248.0" stroke="#73bfc3" stroke-width="6.7"/><path d="M7.1 248.0 Q3.2 248.9 -0.3 250.9" stroke="#73bfc3" stroke-width="6.4"/><path d="M-0.3 250.9 Q-3.3 252.4 -6.5 253.3" stroke="#73bfc3" stroke-width="6.2"/><path d="M90.0 150.0 Q70.2 158.2 57.5 175.4" stroke="#73bfc3" stroke-width="8.7"/><path d="M57.5 175.4 Q39.8 183.5 21.0 188.5" stroke="#73bfc3" stroke-width="8.3"/><path d="M21.0 188.5 Q8.5 199.6 -7.2 205.3" stroke="#73bfc3" stroke-width="7.9"/><path d="M-7.2 205.3 Q-19.4 201.6 -30.5 195.6" stroke="#73bfc3" stroke-width="7.2"/><path d="M-30.5 195.6 Q-41.3 191.3 -48.9 182.4" stroke="#73bfc3" stroke-width="6.9"/><path d="M-48.9 182.4 Q-57.2 176.9 -62.9 168.7" stroke="#73bfc3" stroke-width="6.7"/><path d="M-62.9 168.7 Q-66.1 161.2 -72.9 156.7" stroke="#73bfc3" stroke-width="6.4"/><path d="M-72.9 156.7 Q-76.1 150.5 -82.2 146.9" stroke="#73bfc3" stroke-width="6.2"/><path d="M-7.2 205.3 Q-14.7 215.8 -20.8 227.1" stroke="#73bfc3" stroke-width="7.2"/><path d="M-20.8 227.1 Q-27.7 236.3 -37.8 241.7" stroke="#73bfc3" stroke-width="6.9"/><path d="M-37.8 241.7 Q-41.3 250.4 -39.9 259.6" stroke="#73bfc3" stroke-width="6.5"/><path d="M-39.9 259.6 Q-44.2 266.2 -45.6 274.1" stroke="#73bfc3" stroke-width="6.4"/><path d="M90.0 150.0 Q141.6 147.5 189.4 167.2" stroke="#73bfc3" stroke-width="8.5"/><path d="M189.4 167.2 Q241.6 164.2 288.1 188.1" stroke="#73bfc3" stroke-width="8.5"/><path d="M288.1 188.1 Q338.3 194.7 386.6 209.8" stroke="#73bfc3" stroke-width="8.5"/><path d="M386.6 209.8 Q436.7 215.6 486.9 220.9" stroke="#73bfc3" stroke-width="8.5"/><path d="M486.9 220.9 Q537.3 218.7 587.7 220.8" stroke="#73bfc3" stroke-width="8.5"/><path d="M587.7 220.8 Q636.5 202.5 688.1 210.4" stroke="#73bfc3" stroke-width="8.5"/><path d="M688.1 210.4 Q739.4 214.7 788.2 198.1" stroke="#73bfc3" stroke-width="8.5"/></g><g fill="none" stroke-linecap="round" opacity="0.9"><path d="M90.0 150.0 Q76.4 162.2 63.5 175.1" stroke="#73bfc3" stroke-width="3.2"/><path d="M63.5 175.1 Q55.8 188.9 48.2 202.7" stroke="#73bfc3" stroke-width="2.8"/><path d="M48.2 202.7 Q52.3 211.2 57.1 219.3" stroke="#73bfc3" stroke-width="1.9"/><path d="M57.1 219.3 Q60.1 227.6 64.0 235.5" stroke="#73bfc3" stroke-width="1.7"/><path d="M64.0 235.5 Q68.4 241.6 68.8 249.1" stroke="#73bfc3" stroke-width="1.4"/><path d="M68.8 249.1 Q72.0 252.6 73.2 257.1" stroke="#73bfc3" stroke-width="1.0"/><path d="M73.2 257.1 Q75.0 260.5 75.3 264.5" stroke="#73bfc3" stroke-width="0.9"/><path d="M75.3 264.5 Q76.2 267.8 76.5 271.2" stroke="#73bfc3" stroke-width="0.7"/><path d="M48.2 202.7 Q45.9 213.8 43.1 224.8" stroke="#73bfc3" stroke-width="1.9"/><path d="M43.1 224.8 Q43.4 235.4 40.4 245.7" stroke="#73bfc3" stroke-width="1.7"/><path d="M40.4 245.7 Q39.8 254.8 34.7 262.5" stroke="#73bfc3" stroke-width="1.4"/><path d="M34.7 262.5 Q31.9 268.0 32.6 274.2" stroke="#73bfc3" stroke-width="1.0"/><path d="M32.6 274.2 Q31.3 279.1 31.5 284.1" stroke="#73bfc3" stroke-width="0.9"/><path d="M31.5 284.1 Q32.3 288.4 30.6 292.4" stroke="#73bfc3" stroke-width="0.7"/><path d="M90.0 150.0 Q81.3 133.1 70.9 117.2" stroke="#73bfc3" stroke-width="3.2"/><path d="M70.9 117.2 Q70.6 100.0 61.3 85.4" stroke="#73bfc3" stroke-width="2.8"/><path d="M61.3 85.4 Q54.8 71.8 56.3 56.7" stroke="#73bfc3" stroke-width="2.4"/><path d="M56.3 56.7 Q66.6 50.2 72.8 39.5" stroke="#73bfc3" stroke-width="1.7"/><path d="M72.8 39.5 Q81.3 33.8 90.8 29.7" stroke="#73bfc3" stroke-width="1.4"/><path d="M90.8 29.7 Q98.1 23.9 106.9 20.9" stroke="#73bfc3" stroke-width="1.2"/><path d="M106.9 20.9 Q112.6 18.2 118.4 15.9" stroke="#73bfc3" stroke-width="0.9"/><path d="M118.4 15.9 Q124.0 16.2 129.4 14.3" stroke="#73bfc3" stroke-width="0.7"/><path d="M129.4 14.3 Q134.2 12.5 139.2 11.2" stroke="#73bfc3" stroke-width="0.6"/><path d="M56.3 56.7 Q48.1 50.6 44.8 40.8" stroke="#73bfc3" stroke-width="1.7"/><path d="M44.8 40.8 Q37.3 35.8 31.3 28.9" stroke="#73bfc3" stroke-width="1.4"/><path d="M31.3 28.9 Q29.1 22.8 25.5 17.4" stroke="#73bfc3" stroke-width="1.0"/><path d="M25.5 17.4 Q23.9 11.9 21.2 6.9" stroke="#73bfc3" stroke-width="0.9"/><path d="M21.2 6.9 Q21.5 2.2 20.1 -2.4" stroke="#73bfc3" stroke-width="0.7"/><path d="M90.0 150.0 Q77.5 163.9 59.6 169.5" stroke="#73bfc3" stroke-width="3.2"/><path d="M59.6 169.5 Q50.1 181.5 38.4 191.5" stroke="#73bfc3" stroke-width="2.8"/><path d="M38.4 191.5 Q35.9 204.1 28.3 214.5" stroke="#73bfc3" stroke-width="2.4"/><path d="M28.3 214.5 Q34.9 221.7 39.0 230.6" stroke="#73bfc3" stroke-width="1.7"/><path d="M39.0 230.6 Q45.8 235.7 49.5 243.4" stroke="#73bfc3" stroke-width="1.4"/><path d="M49.5 243.4 Q52.2 250.6 54.6 257.9" stroke="#73bfc3" stroke-width="1.2"/><path d="M54.6 257.9 Q58.2 261.1 61.8 264.4" stroke="#73bfc3" stroke-width="0.9"/><path d="M61.8 264.4 Q65.6 266.8 68.3 270.4" stroke="#73bfc3" stroke-width="0.7"/><path d="M68.3 270.4 Q71.2 273.3 74.8 275.4" stroke="#73bfc3" stroke-width="0.6"/><path d="M28.3 214.5 Q22.1 219.3 19.0 226.5" stroke="#73bfc3" stroke-width="1.7"/><path d="M19.0 226.5 Q15.9 232.3 13.2 238.3" stroke="#73bfc3" stroke-width="1.4"/><path d="M13.2 238.3 Q9.7 242.9 7.1 248.0" stroke="#73bfc3" stroke-width="1.2"/><path d="M7.1 248.0 Q3.2 248.9 -0.3 250.9" stroke="#73bfc3" stroke-width="0.9"/><path d="M-0.3 250.9 Q-3.3 252.4 -6.5 253.3" stroke="#73bfc3" stroke-width="0.7"/><path d="M90.0 150.0 Q70.2 158.2 57.5 175.4" stroke="#73bfc3" stroke-width="3.2"/><path d="M57.5 175.4 Q39.8 183.5 21.0 188.5" stroke="#73bfc3" stroke-width="2.8"/><path d="M21.0 188.5 Q8.5 199.6 -7.2 205.3" stroke="#73bfc3" stroke-width="2.4"/><path d="M-7.2 205.3 Q-19.4 201.6 -30.5 195.6" stroke="#73bfc3" stroke-width="1.7"/><path d="M-30.5 195.6 Q-41.3 191.3 -48.9 182.4" stroke="#73bfc3" stroke-width="1.4"/><path d="M-48.9 182.4 Q-57.2 176.9 -62.9 168.7" stroke="#73bfc3" stroke-width="1.2"/><path d="M-62.9 168.7 Q-66.1 161.2 -72.9 156.7" stroke="#73bfc3" stroke-width="0.9"/><path d="M-72.9 156.7 Q-76.1 150.5 -82.2 146.9" stroke="#73bfc3" stroke-width="0.7"/><path d="M-7.2 205.3 Q-14.7 215.8 -20.8 227.1" stroke="#73bfc3" stroke-width="1.7"/><path d="M-20.8 227.1 Q-27.7 236.3 -37.8 241.7" stroke="#73bfc3" stroke-width="1.4"/><path d="M-37.8 241.7 Q-41.3 250.4 -39.9 259.6" stroke="#73bfc3" stroke-width="1.0"/><path d="M-39.9 259.6 Q-44.2 266.2 -45.6 274.1" stroke="#73bfc3" stroke-width="0.9"/><path d="M90.0 150.0 Q141.6 147.5 189.4 167.2" stroke="#73bfc3" stroke-width="3.0"/><path d="M189.4 167.2 Q241.6 164.2 288.1 188.1" stroke="#73bfc3" stroke-width="3.0"/><path d="M288.1 188.1 Q338.3 194.7 386.6 209.8" stroke="#73bfc3" stroke-width="3.0"/><path d="M386.6 209.8 Q436.7 215.6 486.9 220.9" stroke="#73bfc3" stroke-width="3.0"/><path d="M486.9 220.9 Q537.3 218.7 587.7 220.8" stroke="#73bfc3" stroke-width="3.0"/><path d="M587.7 220.8 Q636.5 202.5 688.1 210.4" stroke="#73bfc3" stroke-width="3.0"/><path d="M688.1 210.4 Q739.4 214.7 788.2 198.1" stroke="#73bfc3" stroke-width="3.0"/></g><g fill="none" stroke-linecap="round" filter="url(#gB)" opacity="0.55"><path d="M130.0 300.0 Q125.2 320.4 114.3 338.3" stroke="#ee7655" stroke-width="8.7"/><path d="M114.3 338.3 Q107.4 355.9 96.3 371.3" stroke="#ee7655" stroke-width="8.3"/><path d="M96.3 371.3 Q85.3 377.1 73.3 380.2" stroke="#ee7655" stroke-width="7.4"/><path d="M73.3 380.2 Q62.7 384.4 53.0 390.4" stroke="#ee7655" stroke-width="7.2"/><path d="M53.0 390.4 Q49.4 398.3 47.4 406.8" stroke="#ee7655" stroke-width="6.7"/><path d="M47.4 406.8 Q47.8 414.3 44.3 420.9" stroke="#ee7655" stroke-width="6.5"/><path d="M44.3 420.9 Q41.5 426.3 38.0 431.3" stroke="#ee7655" stroke-width="6.4"/><path d="M96.3 371.3 Q82.3 376.1 69.4 383.4" stroke="#ee7655" stroke-width="7.4"/><path d="M69.4 383.4 Q56.4 383.5 44.2 387.5" stroke="#ee7655" stroke-width="7.2"/><path d="M44.2 387.5 Q35.5 387.9 27.1 385.8" stroke="#ee7655" stroke-width="6.7"/><path d="M27.1 385.8 Q19.4 384.7 12.6 388.2" stroke="#ee7655" stroke-width="6.5"/><path d="M130.0 300.0 Q108.5 299.7 90.4 311.5" stroke="#ee7655" stroke-width="8.7"/><path d="M90.4 311.5 Q74.9 319.5 58.0 323.7" stroke="#ee7655" stroke-width="8.3"/><path d="M58.0 323.7 Q46.3 321.2 34.8 324.2" stroke="#ee7655" stroke-width="7.4"/><path d="M34.8 324.2 Q25.4 330.0 14.3 331.1" stroke="#ee7655" stroke-width="7.2"/><path d="M14.3 331.1 Q5.8 336.7 -4.5 336.5" stroke="#ee7655" stroke-width="6.9"/><path d="M-4.5 336.5 Q-10.8 333.1 -16.4 328.7" stroke="#ee7655" stroke-width="6.5"/><path d="M-16.4 328.7 Q-21.9 325.7 -27.5 322.9" stroke="#ee7655" stroke-width="6.4"/><path d="M-27.5 322.9 Q-31.4 319.5 -36.4 317.8" stroke="#ee7655" stroke-width="6.2"/><path d="M58.0 323.7 Q51.4 332.2 48.4 342.7" stroke="#ee7655" stroke-width="7.4"/><path d="M48.4 342.7 Q43.7 351.9 44.6 362.2" stroke="#ee7655" stroke-width="7.2"/><path d="M44.6 362.2 Q47.4 371.0 47.4 380.2" stroke="#ee7655" stroke-width="6.9"/><path d="M47.4 380.2 Q51.0 385.1 56.1 388.5" stroke="#ee7655" stroke-width="6.5"/><path d="M56.1 388.5 Q59.4 392.5 63.3 396.0" stroke="#ee7655" stroke-width="6.4"/><path d="M63.3 396.0 Q65.9 400.1 68.6 404.1" stroke="#ee7655" stroke-width="6.2"/><path d="M130.0 300.0 Q127.9 279.3 115.0 262.9" stroke="#ee7655" stroke-width="8.7"/><path d="M115.0 262.9 Q109.7 247.3 105.8 231.3" stroke="#ee7655" stroke-width="8.3"/><path d="M105.8 231.3 Q100.2 217.0 89.6 205.9" stroke="#ee7655" stroke-width="7.9"/><path d="M89.6 205.9 Q90.6 196.5 91.1 187.1" stroke="#ee7655" stroke-width="7.2"/><path d="M91.1 187.1 Q92.1 178.8 95.6 171.3" stroke="#ee7655" stroke-width="6.9"/><path d="M95.6 171.3 Q95.5 164.0 98.7 157.5" stroke="#ee7655" stroke-width="6.7"/><path d="M98.7 157.5 Q96.5 152.5 92.1 149.3" stroke="#ee7655" stroke-width="6.4"/><path d="M92.1 149.3 Q91.0 144.4 88.0 140.3" stroke="#ee7655" stroke-width="6.2"/><path d="M89.6 205.9 Q85.2 196.3 81.2 186.5" stroke="#ee7655" stroke-width="7.2"/><path d="M81.2 186.5 Q76.9 177.1 78.1 166.9" stroke="#ee7655" stroke-width="6.9"/><path d="M78.1 166.9 Q79.7 158.1 80.8 149.3" stroke="#ee7655" stroke-width="6.7"/><path d="M80.8 149.3 Q86.5 147.1 90.8 142.8" stroke="#ee7655" stroke-width="6.4"/><path d="M90.8 142.8 Q95.2 139.2 98.0 134.2" stroke="#ee7655" stroke-width="6.2"/><path d="M130.0 300.0 Q113.6 292.3 95.5 292.7" stroke="#ee7655" stroke-width="8.7"/><path d="M95.5 292.7 Q80.2 298.9 63.8 296.7" stroke="#ee7655" stroke-width="8.3"/><path d="M63.8 296.7 Q50.5 299.7 37.7 304.2" stroke="#ee7655" stroke-width="7.9"/><path d="M37.7 304.2 Q29.7 296.8 19.1 294.2" stroke="#ee7655" stroke-width="7.2"/><path d="M19.1 294.2 Q10.0 290.5 1.3 286.2" stroke="#ee7655" stroke-width="6.9"/><path d="M1.3 286.2 Q-1.9 281.2 -5.5 276.4" stroke="#ee7655" stroke-width="6.5"/><path d="M-5.5 276.4 Q-9.8 273.0 -12.7 268.4" stroke="#ee7655" stroke-width="6.4"/><path d="M37.7 304.2 Q26.3 302.0 14.9 304.0" stroke="#ee7655" stroke-width="7.2"/><path d="M14.9 304.0 Q5.5 299.8 -4.8 301.4" stroke="#ee7655" stroke-width="6.9"/><path d="M-4.8 301.4 Q-13.2 304.6 -22.0 302.7" stroke="#ee7655" stroke-width="6.7"/><path d="M-22.0 302.7 Q-28.2 300.9 -34.7 301.8" stroke="#ee7655" stroke-width="6.4"/><path d="M-34.7 301.8 Q-40.2 301.6 -44.9 298.5" stroke="#ee7655" stroke-width="6.2"/><path d="M130.0 300.0 Q176.8 301.6 222.4 291.3" stroke="#ee7655" stroke-width="8.5"/><path d="M222.4 291.3 Q269.6 301.6 315.1 285.9" stroke="#ee7655" stroke-width="8.5"/><path d="M315.1 285.9 Q360.5 273.4 407.4 275.4" stroke="#ee7655" stroke-width="8.5"/><path d="M407.4 275.4 Q454.0 277.5 500.1 270.2" stroke="#ee7655" stroke-width="8.5"/><path d="M500.1 270.2 Q546.9 270.8 592.5 260.5" stroke="#ee7655" stroke-width="8.5"/><path d="M592.5 260.5 Q639.6 262.8 684.6 248.6" stroke="#ee7655" stroke-width="8.5"/><path d="M684.6 248.6 Q728.1 230.5 775.2 228.3" stroke="#ee7655" stroke-width="8.5"/></g><g fill="none" stroke-linecap="round" opacity="0.9"><path d="M130.0 300.0 Q125.2 320.4 114.3 338.3" stroke="#ee7655" stroke-width="3.2"/><path d="M114.3 338.3 Q107.4 355.9 96.3 371.3" stroke="#ee7655" stroke-width="2.8"/><path d="M96.3 371.3 Q85.3 377.1 73.3 380.2" stroke="#ee7655" stroke-width="1.9"/><path d="M73.3 380.2 Q62.7 384.4 53.0 390.4" stroke="#ee7655" stroke-width="1.7"/><path d="M53.0 390.4 Q49.4 398.3 47.4 406.8" stroke="#ee7655" stroke-width="1.2"/><path d="M47.4 406.8 Q47.8 414.3 44.3 420.9" stroke="#ee7655" stroke-width="1.0"/><path d="M44.3 420.9 Q41.5 426.3 38.0 431.3" stroke="#ee7655" stroke-width="0.9"/><path d="M96.3 371.3 Q82.3 376.1 69.4 383.4" stroke="#ee7655" stroke-width="1.9"/><path d="M69.4 383.4 Q56.4 383.5 44.2 387.5" stroke="#ee7655" stroke-width="1.7"/><path d="M44.2 387.5 Q35.5 387.9 27.1 385.8" stroke="#ee7655" stroke-width="1.2"/><path d="M27.1 385.8 Q19.4 384.7 12.6 388.2" stroke="#ee7655" stroke-width="1.0"/><path d="M130.0 300.0 Q108.5 299.7 90.4 311.5" stroke="#ee7655" stroke-width="3.2"/><path d="M90.4 311.5 Q74.9 319.5 58.0 323.7" stroke="#ee7655" stroke-width="2.8"/><path d="M58.0 323.7 Q46.3 321.2 34.8 324.2" stroke="#ee7655" stroke-width="1.9"/><path d="M34.8 324.2 Q25.4 330.0 14.3 331.1" stroke="#ee7655" stroke-width="1.7"/><path d="M14.3 331.1 Q5.8 336.7 -4.5 336.5" stroke="#ee7655" stroke-width="1.4"/><path d="M-4.5 336.5 Q-10.8 333.1 -16.4 328.7" stroke="#ee7655" stroke-width="1.0"/><path d="M-16.4 328.7 Q-21.9 325.7 -27.5 322.9" stroke="#ee7655" stroke-width="0.9"/><path d="M-27.5 322.9 Q-31.4 319.5 -36.4 317.8" stroke="#ee7655" stroke-width="0.7"/><path d="M58.0 323.7 Q51.4 332.2 48.4 342.7" stroke="#ee7655" stroke-width="1.9"/><path d="M48.4 342.7 Q43.7 351.9 44.6 362.2" stroke="#ee7655" stroke-width="1.7"/><path d="M44.6 362.2 Q47.4 371.0 47.4 380.2" stroke="#ee7655" stroke-width="1.4"/><path d="M47.4 380.2 Q51.0 385.1 56.1 388.5" stroke="#ee7655" stroke-width="1.0"/><path d="M56.1 388.5 Q59.4 392.5 63.3 396.0" stroke="#ee7655" stroke-width="0.9"/><path d="M63.3 396.0 Q65.9 400.1 68.6 404.1" stroke="#ee7655" stroke-width="0.7"/><path d="M130.0 300.0 Q127.9 279.3 115.0 262.9" stroke="#ee7655" stroke-width="3.2"/><path d="M115.0 262.9 Q109.7 247.3 105.8 231.3" stroke="#ee7655" stroke-width="2.8"/><path d="M105.8 231.3 Q100.2 217.0 89.6 205.9" stroke="#ee7655" stroke-width="2.4"/><path d="M89.6 205.9 Q90.6 196.5 91.1 187.1" stroke="#ee7655" stroke-width="1.7"/><path d="M91.1 187.1 Q92.1 178.8 95.6 171.3" stroke="#ee7655" stroke-width="1.4"/><path d="M95.6 171.3 Q95.5 164.0 98.7 157.5" stroke="#ee7655" stroke-width="1.2"/><path d="M98.7 157.5 Q96.5 152.5 92.1 149.3" stroke="#ee7655" stroke-width="0.9"/><path d="M92.1 149.3 Q91.0 144.4 88.0 140.3" stroke="#ee7655" stroke-width="0.7"/><path d="M89.6 205.9 Q85.2 196.3 81.2 186.5" stroke="#ee7655" stroke-width="1.7"/><path d="M81.2 186.5 Q76.9 177.1 78.1 166.9" stroke="#ee7655" stroke-width="1.4"/><path d="M78.1 166.9 Q79.7 158.1 80.8 149.3" stroke="#ee7655" stroke-width="1.2"/><path d="M80.8 149.3 Q86.5 147.1 90.8 142.8" stroke="#ee7655" stroke-width="0.9"/><path d="M90.8 142.8 Q95.2 139.2 98.0 134.2" stroke="#ee7655" stroke-width="0.7"/><path d="M130.0 300.0 Q113.6 292.3 95.5 292.7" stroke="#ee7655" stroke-width="3.2"/><path d="M95.5 292.7 Q80.2 298.9 63.8 296.7" stroke="#ee7655" stroke-width="2.8"/><path d="M63.8 296.7 Q50.5 299.7 37.7 304.2" stroke="#ee7655" stroke-width="2.4"/><path d="M37.7 304.2 Q29.7 296.8 19.1 294.2" stroke="#ee7655" stroke-width="1.7"/><path d="M19.1 294.2 Q10.0 290.5 1.3 286.2" stroke="#ee7655" stroke-width="1.4"/><path d="M1.3 286.2 Q-1.9 281.2 -5.5 276.4" stroke="#ee7655" stroke-width="1.0"/><path d="M-5.5 276.4 Q-9.8 273.0 -12.7 268.4" stroke="#ee7655" stroke-width="0.9"/><path d="M37.7 304.2 Q26.3 302.0 14.9 304.0" stroke="#ee7655" stroke-width="1.7"/><path d="M14.9 304.0 Q5.5 299.8 -4.8 301.4" stroke="#ee7655" stroke-width="1.4"/><path d="M-4.8 301.4 Q-13.2 304.6 -22.0 302.7" stroke="#ee7655" stroke-width="1.2"/><path d="M-22.0 302.7 Q-28.2 300.9 -34.7 301.8" stroke="#ee7655" stroke-width="0.9"/><path d="M-34.7 301.8 Q-40.2 301.6 -44.9 298.5" stroke="#ee7655" stroke-width="0.7"/><path d="M130.0 300.0 Q176.8 301.6 222.4 291.3" stroke="#ee7655" stroke-width="3.0"/><path d="M222.4 291.3 Q269.6 301.6 315.1 285.9" stroke="#ee7655" stroke-width="3.0"/><path d="M315.1 285.9 Q360.5 273.4 407.4 275.4" stroke="#ee7655" stroke-width="3.0"/><path d="M407.4 275.4 Q454.0 277.5 500.1 270.2" stroke="#ee7655" stroke-width="3.0"/><path d="M500.1 270.2 Q546.9 270.8 592.5 260.5" stroke="#ee7655" stroke-width="3.0"/><path d="M592.5 260.5 Q639.6 262.8 684.6 248.6" stroke="#ee7655" stroke-width="3.0"/><path d="M684.6 248.6 Q728.1 230.5 775.2 228.3" stroke="#ee7655" stroke-width="3.0"/></g><g fill="none" stroke-linecap="round" filter="url(#gB)" opacity="0.55"><path d="M170.0 430.0 Q159.8 448.4 143.9 462.0" stroke="#f0c85a" stroke-width="8.7"/><path d="M143.9 462.0 Q129.0 473.6 114.3 485.4" stroke="#f0c85a" stroke-width="8.3"/><path d="M114.3 485.4 Q107.4 501.4 92.5 510.5" stroke="#f0c85a" stroke-width="7.9"/><path d="M92.5 510.5 Q86.9 522.3 84.3 535.0" stroke="#f0c85a" stroke-width="7.2"/><path d="M84.3 535.0 Q75.8 542.7 70.3 552.7" stroke="#f0c85a" stroke-width="6.9"/><path d="M70.3 552.7 Q63.7 559.1 58.3 566.6" stroke="#f0c85a" stroke-width="6.5"/><path d="M58.3 566.6 Q53.9 574.1 52.0 582.6" stroke="#f0c85a" stroke-width="6.4"/><path d="M52.0 582.6 Q49.8 589.7 44.1 594.4" stroke="#f0c85a" stroke-width="6.2"/><path d="M92.5 510.5 Q89.4 522.8 82.5 533.3" stroke="#f0c85a" stroke-width="7.2"/><path d="M82.5 533.3 Q76.8 543.7 77.7 555.6" stroke="#f0c85a" stroke-width="6.9"/><path d="M77.7 555.6 Q72.1 564.7 69.7 575.1" stroke="#f0c85a" stroke-width="6.7"/><path d="M69.7 575.1 Q65.2 580.3 59.9 584.7" stroke="#f0c85a" stroke-width="6.4"/><path d="M59.9 584.7 Q56.7 589.7 53.8 594.8" stroke="#f0c85a" stroke-width="6.2"/><path d="M53.8 594.8 Q49.9 598.0 46.1 601.3" stroke="#f0c85a" stroke-width="6.1"/><path d="M170.0 430.0 Q151.6 425.3 138.3 411.8" stroke="#f0c85a" stroke-width="8.7"/><path d="M138.3 411.8 Q124.6 402.8 110.2 395.1" stroke="#f0c85a" stroke-width="8.3"/><path d="M110.2 395.1 Q98.5 386.6 92.2 373.7" stroke="#f0c85a" stroke-width="7.9"/><path d="M92.2 373.7 Q86.9 365.1 85.5 355.1" stroke="#f0c85a" stroke-width="7.2"/><path d="M85.5 355.1 Q80.2 347.5 75.6 339.6" stroke="#f0c85a" stroke-width="6.9"/><path d="M75.6 339.6 Q69.6 334.7 63.6 329.9" stroke="#f0c85a" stroke-width="6.7"/><path d="M63.6 329.9 Q58.4 326.1 52.8 322.8" stroke="#f0c85a" stroke-width="6.4"/><path d="M52.8 322.8 Q47.6 320.0 42.8 316.3" stroke="#f0c85a" stroke-width="6.2"/><path d="M92.2 373.7 Q81.1 376.6 69.6 376.5" stroke="#f0c85a" stroke-width="7.2"/><path d="M69.6 376.5 Q59.2 379.8 48.7 376.9" stroke="#f0c85a" stroke-width="6.9"/><path d="M48.7 376.9 Q39.6 375.6 30.9 378.5" stroke="#f0c85a" stroke-width="6.7"/><path d="M30.9 378.5 Q28.7 384.1 24.2 388.2" stroke="#f0c85a" stroke-width="6.4"/><path d="M24.2 388.2 Q20.2 391.6 16.0 394.9" stroke="#f0c85a" stroke-width="6.2"/><path d="M16.0 394.9 Q11.6 397.2 6.9 398.8" stroke="#f0c85a" stroke-width="6.1"/><path d="M170.0 430.0 Q148.7 433.3 127.5 437.5" stroke="#f0c85a" stroke-width="8.7"/><path d="M127.5 437.5 Q109.0 443.0 90.7 437.0" stroke="#f0c85a" stroke-width="8.3"/><path d="M90.7 437.0 Q73.4 436.4 59.3 426.2" stroke="#f0c85a" stroke-width="7.9"/><path d="M59.3 426.2 Q54.5 414.5 46.2 404.9" stroke="#f0c85a" stroke-width="7.2"/><path d="M46.2 404.9 Q36.1 398.8 29.7 388.9" stroke="#f0c85a" stroke-width="6.9"/><path d="M29.7 388.9 Q21.7 382.9 12.7 378.5" stroke="#f0c85a" stroke-width="6.7"/><path d="M12.7 378.5 Q6.5 380.9 0.5 383.7" stroke="#f0c85a" stroke-width="6.4"/><path d="M0.5 383.7 Q-4.4 386.8 -10.1 388.1" stroke="#f0c85a" stroke-width="6.2"/><path d="M-10.1 388.1 Q-13.7 391.2 -17.9 393.7" stroke="#f0c85a" stroke-width="6.1"/><path d="M59.3 426.2 Q47.3 418.6 41.8 405.4" stroke="#f0c85a" stroke-width="7.2"/><path d="M41.8 405.4 Q32.8 397.4 21.7 392.7" stroke="#f0c85a" stroke-width="6.9"/><path d="M21.7 392.7 Q17.0 386.5 14.5 379.2" stroke="#f0c85a" stroke-width="6.5"/><path d="M14.5 379.2 Q14.3 372.5 10.2 367.1" stroke="#f0c85a" stroke-width="6.4"/><path d="M10.2 367.1 Q9.5 361.3 8.8 355.4" stroke="#f0c85a" stroke-width="6.2"/><path d="M170.0 430.0 Q151.2 426.6 132.1 426.2" stroke="#f0c85a" stroke-width="8.7"/><path d="M132.1 426.2 Q114.8 426.9 97.7 430.2" stroke="#f0c85a" stroke-width="8.3"/><path d="M97.7 430.2 Q84.9 438.9 69.5 439.8" stroke="#f0c85a" stroke-width="7.9"/><path d="M69.5 439.8 Q59.2 433.5 47.2 433.7" stroke="#f0c85a" stroke-width="7.2"/><path d="M47.2 433.7 Q37.6 429.7 28.1 425.4" stroke="#f0c85a" stroke-width="6.9"/><path d="M28.1 425.4 Q19.4 421.6 13.8 413.9" stroke="#f0c85a" stroke-width="6.7"/><path d="M13.8 413.9 Q12.2 408.7 8.7 404.5" stroke="#f0c85a" stroke-width="6.4"/><path d="M8.7 404.5 Q5.5 400.7 3.8 396.1" stroke="#f0c85a" stroke-width="6.2"/><path d="M3.8 396.1 Q1.9 392.3 -0.5 388.8" stroke="#f0c85a" stroke-width="6.1"/><path d="M69.5 439.8 Q57.7 440.5 46.2 443.1" stroke="#f0c85a" stroke-width="7.2"/><path d="M46.2 443.1 Q35.4 440.9 24.8 443.7" stroke="#f0c85a" stroke-width="6.9"/><path d="M24.8 443.7 Q17.6 441.8 10.3 440.9" stroke="#f0c85a" stroke-width="6.5"/><path d="M10.3 440.9 Q5.4 435.7 -1.5 434.3" stroke="#f0c85a" stroke-width="6.4"/><path d="M-1.5 434.3 Q-7.0 432.8 -11.9 430.1" stroke="#f0c85a" stroke-width="6.2"/><path d="M170.0 430.0 Q214.2 422.4 255.4 404.5" stroke="#f0c85a" stroke-width="8.5"/><path d="M255.4 404.5 Q298.3 392.5 341.5 381.8" stroke="#f0c85a" stroke-width="8.5"/><path d="M341.5 381.8 Q386.4 375.4 425.9 353.2" stroke="#f0c85a" stroke-width="8.5"/><path d="M425.9 353.2 Q469.2 342.4 512.2 331.0" stroke="#f0c85a" stroke-width="8.5"/><path d="M512.2 331.0 Q553.5 312.6 598.5 308.8" stroke="#f0c85a" stroke-width="8.5"/><path d="M598.5 308.8 Q638.7 289.3 681.6 276.6" stroke="#f0c85a" stroke-width="8.5"/><path d="M681.6 276.6 Q719.2 249.8 765.3 246.1" stroke="#f0c85a" stroke-width="8.5"/></g><g fill="none" stroke-linecap="round" opacity="0.9"><path d="M170.0 430.0 Q159.8 448.4 143.9 462.0" stroke="#f0c85a" stroke-width="3.2"/><path d="M143.9 462.0 Q129.0 473.6 114.3 485.4" stroke="#f0c85a" stroke-width="2.8"/><path d="M114.3 485.4 Q107.4 501.4 92.5 510.5" stroke="#f0c85a" stroke-width="2.4"/><path d="M92.5 510.5 Q86.9 522.3 84.3 535.0" stroke="#f0c85a" stroke-width="1.7"/><path d="M84.3 535.0 Q75.8 542.7 70.3 552.7" stroke="#f0c85a" stroke-width="1.4"/><path d="M70.3 552.7 Q63.7 559.1 58.3 566.6" stroke="#f0c85a" stroke-width="1.0"/><path d="M58.3 566.6 Q53.9 574.1 52.0 582.6" stroke="#f0c85a" stroke-width="0.9"/><path d="M52.0 582.6 Q49.8 589.7 44.1 594.4" stroke="#f0c85a" stroke-width="0.7"/><path d="M92.5 510.5 Q89.4 522.8 82.5 533.3" stroke="#f0c85a" stroke-width="1.7"/><path d="M82.5 533.3 Q76.8 543.7 77.7 555.6" stroke="#f0c85a" stroke-width="1.4"/><path d="M77.7 555.6 Q72.1 564.7 69.7 575.1" stroke="#f0c85a" stroke-width="1.2"/><path d="M69.7 575.1 Q65.2 580.3 59.9 584.7" stroke="#f0c85a" stroke-width="0.9"/><path d="M59.9 584.7 Q56.7 589.7 53.8 594.8" stroke="#f0c85a" stroke-width="0.7"/><path d="M53.8 594.8 Q49.9 598.0 46.1 601.3" stroke="#f0c85a" stroke-width="0.6"/><path d="M170.0 430.0 Q151.6 425.3 138.3 411.8" stroke="#f0c85a" stroke-width="3.2"/><path d="M138.3 411.8 Q124.6 402.8 110.2 395.1" stroke="#f0c85a" stroke-width="2.8"/><path d="M110.2 395.1 Q98.5 386.6 92.2 373.7" stroke="#f0c85a" stroke-width="2.4"/><path d="M92.2 373.7 Q86.9 365.1 85.5 355.1" stroke="#f0c85a" stroke-width="1.7"/><path d="M85.5 355.1 Q80.2 347.5 75.6 339.6" stroke="#f0c85a" stroke-width="1.4"/><path d="M75.6 339.6 Q69.6 334.7 63.6 329.9" stroke="#f0c85a" stroke-width="1.2"/><path d="M63.6 329.9 Q58.4 326.1 52.8 322.8" stroke="#f0c85a" stroke-width="0.9"/><path d="M52.8 322.8 Q47.6 320.0 42.8 316.3" stroke="#f0c85a" stroke-width="0.7"/><path d="M92.2 373.7 Q81.1 376.6 69.6 376.5" stroke="#f0c85a" stroke-width="1.7"/><path d="M69.6 376.5 Q59.2 379.8 48.7 376.9" stroke="#f0c85a" stroke-width="1.4"/><path d="M48.7 376.9 Q39.6 375.6 30.9 378.5" stroke="#f0c85a" stroke-width="1.2"/><path d="M30.9 378.5 Q28.7 384.1 24.2 388.2" stroke="#f0c85a" stroke-width="0.9"/><path d="M24.2 388.2 Q20.2 391.6 16.0 394.9" stroke="#f0c85a" stroke-width="0.7"/><path d="M16.0 394.9 Q11.6 397.2 6.9 398.8" stroke="#f0c85a" stroke-width="0.6"/><path d="M170.0 430.0 Q148.7 433.3 127.5 437.5" stroke="#f0c85a" stroke-width="3.2"/><path d="M127.5 437.5 Q109.0 443.0 90.7 437.0" stroke="#f0c85a" stroke-width="2.8"/><path d="M90.7 437.0 Q73.4 436.4 59.3 426.2" stroke="#f0c85a" stroke-width="2.4"/><path d="M59.3 426.2 Q54.5 414.5 46.2 404.9" stroke="#f0c85a" stroke-width="1.7"/><path d="M46.2 404.9 Q36.1 398.8 29.7 388.9" stroke="#f0c85a" stroke-width="1.4"/><path d="M29.7 388.9 Q21.7 382.9 12.7 378.5" stroke="#f0c85a" stroke-width="1.2"/><path d="M12.7 378.5 Q6.5 380.9 0.5 383.7" stroke="#f0c85a" stroke-width="0.9"/><path d="M0.5 383.7 Q-4.4 386.8 -10.1 388.1" stroke="#f0c85a" stroke-width="0.7"/><path d="M-10.1 388.1 Q-13.7 391.2 -17.9 393.7" stroke="#f0c85a" stroke-width="0.6"/><path d="M59.3 426.2 Q47.3 418.6 41.8 405.4" stroke="#f0c85a" stroke-width="1.7"/><path d="M41.8 405.4 Q32.8 397.4 21.7 392.7" stroke="#f0c85a" stroke-width="1.4"/><path d="M21.7 392.7 Q17.0 386.5 14.5 379.2" stroke="#f0c85a" stroke-width="1.0"/><path d="M14.5 379.2 Q14.3 372.5 10.2 367.1" stroke="#f0c85a" stroke-width="0.9"/><path d="M10.2 367.1 Q9.5 361.3 8.8 355.4" stroke="#f0c85a" stroke-width="0.7"/><path d="M170.0 430.0 Q151.2 426.6 132.1 426.2" stroke="#f0c85a" stroke-width="3.2"/><path d="M132.1 426.2 Q114.8 426.9 97.7 430.2" stroke="#f0c85a" stroke-width="2.8"/><path d="M97.7 430.2 Q84.9 438.9 69.5 439.8" stroke="#f0c85a" stroke-width="2.4"/><path d="M69.5 439.8 Q59.2 433.5 47.2 433.7" stroke="#f0c85a" stroke-width="1.7"/><path d="M47.2 433.7 Q37.6 429.7 28.1 425.4" stroke="#f0c85a" stroke-width="1.4"/><path d="M28.1 425.4 Q19.4 421.6 13.8 413.9" stroke="#f0c85a" stroke-width="1.2"/><path d="M13.8 413.9 Q12.2 408.7 8.7 404.5" stroke="#f0c85a" stroke-width="0.9"/><path d="M8.7 404.5 Q5.5 400.7 3.8 396.1" stroke="#f0c85a" stroke-width="0.7"/><path d="M3.8 396.1 Q1.9 392.3 -0.5 388.8" stroke="#f0c85a" stroke-width="0.6"/><path d="M69.5 439.8 Q57.7 440.5 46.2 443.1" stroke="#f0c85a" stroke-width="1.7"/><path d="M46.2 443.1 Q35.4 440.9 24.8 443.7" stroke="#f0c85a" stroke-width="1.4"/><path d="M24.8 443.7 Q17.6 441.8 10.3 440.9" stroke="#f0c85a" stroke-width="1.0"/><path d="M10.3 440.9 Q5.4 435.7 -1.5 434.3" stroke="#f0c85a" stroke-width="0.9"/><path d="M-1.5 434.3 Q-7.0 432.8 -11.9 430.1" stroke="#f0c85a" stroke-width="0.7"/><path d="M170.0 430.0 Q214.2 422.4 255.4 404.5" stroke="#f0c85a" stroke-width="3.0"/><path d="M255.4 404.5 Q298.3 392.5 341.5 381.8" stroke="#f0c85a" stroke-width="3.0"/><path d="M341.5 381.8 Q386.4 375.4 425.9 353.2" stroke="#f0c85a" stroke-width="3.0"/><path d="M425.9 353.2 Q469.2 342.4 512.2 331.0" stroke="#f0c85a" stroke-width="3.0"/><path d="M512.2 331.0 Q553.5 312.6 598.5 308.8" stroke="#f0c85a" stroke-width="3.0"/><path d="M598.5 308.8 Q638.7 289.3 681.6 276.6" stroke="#f0c85a" stroke-width="3.0"/><path d="M681.6 276.6 Q719.2 249.8 765.3 246.1" stroke="#f0c85a" stroke-width="3.0"/></g><g fill="none" stroke-linecap="round" filter="url(#gB)" opacity="0.55"><path d="M210.0 240.0 Q201.9 256.3 196.8 273.9" stroke="#b7c79e" stroke-width="8.7"/><path d="M196.8 273.9 Q197.7 290.8 191.1 306.5" stroke="#b7c79e" stroke-width="8.3"/><path d="M191.1 306.5 Q192.1 317.2 187.8 327.1" stroke="#b7c79e" stroke-width="7.4"/><path d="M187.8 327.1 Q184.5 336.8 187.3 346.7" stroke="#b7c79e" stroke-width="7.2"/><path d="M187.3 346.7 Q184.7 354.5 182.2 362.3" stroke="#b7c79e" stroke-width="6.9"/><path d="M182.2 362.3 Q178.0 366.1 173.6 369.6" stroke="#b7c79e" stroke-width="6.5"/><path d="M173.6 369.6 Q169.5 372.1 164.8 373.4" stroke="#b7c79e" stroke-width="6.4"/><path d="M210.0 240.0 Q201.5 220.6 200.7 199.5" stroke="#b7c79e" stroke-width="8.7"/><path d="M200.7 199.5 Q199.5 181.9 191.3 166.3" stroke="#b7c79e" stroke-width="8.3"/><path d="M191.3 166.3 Q186.3 151.7 176.4 140.0" stroke="#b7c79e" stroke-width="7.9"/><path d="M176.4 140.0 Q169.8 129.7 160.1 122.1" stroke="#b7c79e" stroke-width="7.2"/><path d="M160.1 122.1 Q153.9 114.0 148.5 105.3" stroke="#b7c79e" stroke-width="6.9"/><path d="M148.5 105.3 Q141.7 101.5 134.1 99.5" stroke="#b7c79e" stroke-width="6.5"/><path d="M134.1 99.5 Q127.1 97.3 119.7 98.0" stroke="#b7c79e" stroke-width="6.4"/><path d="M119.7 98.0 Q113.6 98.4 107.7 96.7" stroke="#b7c79e" stroke-width="6.2"/><path d="M176.4 140.0 Q167.8 132.3 162.3 122.2" stroke="#b7c79e" stroke-width="7.2"/><path d="M162.3 122.2 Q157.0 114.4 150.0 108.0" stroke="#b7c79e" stroke-width="6.9"/><path d="M150.0 108.0 Q144.4 102.0 136.8 99.0" stroke="#b7c79e" stroke-width="6.7"/><path d="M136.8 99.0 Q134.0 93.6 132.3 87.8" stroke="#b7c79e" stroke-width="6.4"/><path d="M132.3 87.8 Q128.3 84.3 126.5 79.3" stroke="#b7c79e" stroke-width="6.2"/><path d="M126.5 79.3 Q124.0 75.8 122.5 71.7" stroke="#b7c79e" stroke-width="6.1"/><path d="M210.0 240.0 Q193.9 230.7 180.4 217.9" stroke="#b7c79e" stroke-width="8.7"/><path d="M180.4 217.9 Q174.6 201.9 160.8 192.0" stroke="#b7c79e" stroke-width="8.3"/><path d="M160.8 192.0 Q150.2 184.7 139.3 177.9" stroke="#b7c79e" stroke-width="7.4"/><path d="M139.3 177.9 Q131.3 169.6 124.7 160.2" stroke="#b7c79e" stroke-width="7.2"/><path d="M124.7 160.2 Q119.9 151.5 111.1 147.0" stroke="#b7c79e" stroke-width="6.9"/><path d="M111.1 147.0 Q109.3 141.0 110.5 134.8" stroke="#b7c79e" stroke-width="6.5"/><path d="M110.5 134.8 Q111.2 129.1 109.2 123.8" stroke="#b7c79e" stroke-width="6.4"/><path d="M109.2 123.8 Q109.9 119.0 107.9 114.6" stroke="#b7c79e" stroke-width="6.2"/><path d="M160.8 192.0 Q147.7 185.9 139.6 173.9" stroke="#b7c79e" stroke-width="7.4"/><path d="M139.6 173.9 Q127.0 169.1 118.9 158.5" stroke="#b7c79e" stroke-width="7.2"/><path d="M118.9 158.5 Q108.6 152.5 99.8 144.5" stroke="#b7c79e" stroke-width="6.9"/><path d="M99.8 144.5 Q93.2 141.3 85.9 140.3" stroke="#b7c79e" stroke-width="6.5"/><path d="M85.9 140.3 Q79.8 139.2 73.8 138.2" stroke="#b7c79e" stroke-width="6.4"/><path d="M73.8 138.2 Q68.7 138.4 63.6 139.4" stroke="#b7c79e" stroke-width="6.2"/><path d="M210.0 240.0 Q191.6 250.9 171.6 258.3" stroke="#b7c79e" stroke-width="8.7"/><path d="M171.6 258.3 Q159.9 274.2 141.5 281.2" stroke="#b7c79e" stroke-width="8.3"/><path d="M141.5 281.2 Q130.9 291.9 120.6 302.8" stroke="#b7c79e" stroke-width="7.4"/><path d="M120.6 302.8 Q110.0 312.7 95.6 315.3" stroke="#b7c79e" stroke-width="7.2"/><path d="M95.6 315.3 Q84.9 321.2 72.9 323.0" stroke="#b7c79e" stroke-width="6.9"/><path d="M72.9 323.0 Q63.7 326.9 53.7 326.6" stroke="#b7c79e" stroke-width="6.5"/><path d="M53.7 326.6 Q44.7 327.2 36.0 330.0" stroke="#b7c79e" stroke-width="6.4"/><path d="M36.0 330.0 Q29.2 335.1 21.4 338.4" stroke="#b7c79e" stroke-width="6.2"/><path d="M141.5 281.2 Q125.8 284.3 109.8 282.8" stroke="#b7c79e" stroke-width="7.4"/><path d="M109.8 282.8 Q95.9 279.9 82.5 284.6" stroke="#b7c79e" stroke-width="7.2"/><path d="M82.5 284.6 Q70.4 284.7 58.6 282.2" stroke="#b7c79e" stroke-width="6.9"/><path d="M58.6 282.2 Q48.5 280.3 38.3 280.0" stroke="#b7c79e" stroke-width="6.5"/><path d="M38.3 280.0 Q31.3 274.5 22.4 274.0" stroke="#b7c79e" stroke-width="6.4"/><path d="M210.0 240.0 Q251.1 230.8 291.9 241.0" stroke="#b7c79e" stroke-width="8.5"/><path d="M291.9 241.0 Q333.1 234.0 373.7 243.9" stroke="#b7c79e" stroke-width="8.5"/><path d="M373.7 243.9 Q414.5 240.8 455.5 239.5" stroke="#b7c79e" stroke-width="8.5"/><path d="M455.5 239.5 Q495.7 229.1 537.1 233.6" stroke="#b7c79e" stroke-width="8.5"/><path d="M537.1 233.6 Q578.7 238.5 618.6 225.5" stroke="#b7c79e" stroke-width="8.5"/><path d="M618.6 225.5 Q657.3 209.9 699.1 210.3" stroke="#b7c79e" stroke-width="8.5"/><path d="M699.1 210.3 Q736.1 191.7 777.3 186.1" stroke="#b7c79e" stroke-width="8.5"/></g><g fill="none" stroke-linecap="round" opacity="0.9"><path d="M210.0 240.0 Q201.9 256.3 196.8 273.9" stroke="#b7c79e" stroke-width="3.2"/><path d="M196.8 273.9 Q197.7 290.8 191.1 306.5" stroke="#b7c79e" stroke-width="2.8"/><path d="M191.1 306.5 Q192.1 317.2 187.8 327.1" stroke="#b7c79e" stroke-width="1.9"/><path d="M187.8 327.1 Q184.5 336.8 187.3 346.7" stroke="#b7c79e" stroke-width="1.7"/><path d="M187.3 346.7 Q184.7 354.5 182.2 362.3" stroke="#b7c79e" stroke-width="1.4"/><path d="M182.2 362.3 Q178.0 366.1 173.6 369.6" stroke="#b7c79e" stroke-width="1.0"/><path d="M173.6 369.6 Q169.5 372.1 164.8 373.4" stroke="#b7c79e" stroke-width="0.9"/><path d="M210.0 240.0 Q201.5 220.6 200.7 199.5" stroke="#b7c79e" stroke-width="3.2"/><path d="M200.7 199.5 Q199.5 181.9 191.3 166.3" stroke="#b7c79e" stroke-width="2.8"/><path d="M191.3 166.3 Q186.3 151.7 176.4 140.0" stroke="#b7c79e" stroke-width="2.4"/><path d="M176.4 140.0 Q169.8 129.7 160.1 122.1" stroke="#b7c79e" stroke-width="1.7"/><path d="M160.1 122.1 Q153.9 114.0 148.5 105.3" stroke="#b7c79e" stroke-width="1.4"/><path d="M148.5 105.3 Q141.7 101.5 134.1 99.5" stroke="#b7c79e" stroke-width="1.0"/><path d="M134.1 99.5 Q127.1 97.3 119.7 98.0" stroke="#b7c79e" stroke-width="0.9"/><path d="M119.7 98.0 Q113.6 98.4 107.7 96.7" stroke="#b7c79e" stroke-width="0.7"/><path d="M176.4 140.0 Q167.8 132.3 162.3 122.2" stroke="#b7c79e" stroke-width="1.7"/><path d="M162.3 122.2 Q157.0 114.4 150.0 108.0" stroke="#b7c79e" stroke-width="1.4"/><path d="M150.0 108.0 Q144.4 102.0 136.8 99.0" stroke="#b7c79e" stroke-width="1.2"/><path d="M136.8 99.0 Q134.0 93.6 132.3 87.8" stroke="#b7c79e" stroke-width="0.9"/><path d="M132.3 87.8 Q128.3 84.3 126.5 79.3" stroke="#b7c79e" stroke-width="0.7"/><path d="M126.5 79.3 Q124.0 75.8 122.5 71.7" stroke="#b7c79e" stroke-width="0.6"/><path d="M210.0 240.0 Q193.9 230.7 180.4 217.9" stroke="#b7c79e" stroke-width="3.2"/><path d="M180.4 217.9 Q174.6 201.9 160.8 192.0" stroke="#b7c79e" stroke-width="2.8"/><path d="M160.8 192.0 Q150.2 184.7 139.3 177.9" stroke="#b7c79e" stroke-width="1.9"/><path d="M139.3 177.9 Q131.3 169.6 124.7 160.2" stroke="#b7c79e" stroke-width="1.7"/><path d="M124.7 160.2 Q119.9 151.5 111.1 147.0" stroke="#b7c79e" stroke-width="1.4"/><path d="M111.1 147.0 Q109.3 141.0 110.5 134.8" stroke="#b7c79e" stroke-width="1.0"/><path d="M110.5 134.8 Q111.2 129.1 109.2 123.8" stroke="#b7c79e" stroke-width="0.9"/><path d="M109.2 123.8 Q109.9 119.0 107.9 114.6" stroke="#b7c79e" stroke-width="0.7"/><path d="M160.8 192.0 Q147.7 185.9 139.6 173.9" stroke="#b7c79e" stroke-width="1.9"/><path d="M139.6 173.9 Q127.0 169.1 118.9 158.5" stroke="#b7c79e" stroke-width="1.7"/><path d="M118.9 158.5 Q108.6 152.5 99.8 144.5" stroke="#b7c79e" stroke-width="1.4"/><path d="M99.8 144.5 Q93.2 141.3 85.9 140.3" stroke="#b7c79e" stroke-width="1.0"/><path d="M85.9 140.3 Q79.8 139.2 73.8 138.2" stroke="#b7c79e" stroke-width="0.9"/><path d="M73.8 138.2 Q68.7 138.4 63.6 139.4" stroke="#b7c79e" stroke-width="0.7"/><path d="M210.0 240.0 Q191.6 250.9 171.6 258.3" stroke="#b7c79e" stroke-width="3.2"/><path d="M171.6 258.3 Q159.9 274.2 141.5 281.2" stroke="#b7c79e" stroke-width="2.8"/><path d="M141.5 281.2 Q130.9 291.9 120.6 302.8" stroke="#b7c79e" stroke-width="1.9"/><path d="M120.6 302.8 Q110.0 312.7 95.6 315.3" stroke="#b7c79e" stroke-width="1.7"/><path d="M95.6 315.3 Q84.9 321.2 72.9 323.0" stroke="#b7c79e" stroke-width="1.4"/><path d="M72.9 323.0 Q63.7 326.9 53.7 326.6" stroke="#b7c79e" stroke-width="1.0"/><path d="M53.7 326.6 Q44.7 327.2 36.0 330.0" stroke="#b7c79e" stroke-width="0.9"/><path d="M36.0 330.0 Q29.2 335.1 21.4 338.4" stroke="#b7c79e" stroke-width="0.7"/><path d="M141.5 281.2 Q125.8 284.3 109.8 282.8" stroke="#b7c79e" stroke-width="1.9"/><path d="M109.8 282.8 Q95.9 279.9 82.5 284.6" stroke="#b7c79e" stroke-width="1.7"/><path d="M82.5 284.6 Q70.4 284.7 58.6 282.2" stroke="#b7c79e" stroke-width="1.4"/><path d="M58.6 282.2 Q48.5 280.3 38.3 280.0" stroke="#b7c79e" stroke-width="1.0"/><path d="M38.3 280.0 Q31.3 274.5 22.4 274.0" stroke="#b7c79e" stroke-width="0.9"/><path d="M210.0 240.0 Q251.1 230.8 291.9 241.0" stroke="#b7c79e" stroke-width="3.0"/><path d="M291.9 241.0 Q333.1 234.0 373.7 243.9" stroke="#b7c79e" stroke-width="3.0"/><path d="M373.7 243.9 Q414.5 240.8 455.5 239.5" stroke="#b7c79e" stroke-width="3.0"/><path d="M455.5 239.5 Q495.7 229.1 537.1 233.6" stroke="#b7c79e" stroke-width="3.0"/><path d="M537.1 233.6 Q578.7 238.5 618.6 225.5" stroke="#b7c79e" stroke-width="3.0"/><path d="M618.6 225.5 Q657.3 209.9 699.1 210.3" stroke="#b7c79e" stroke-width="3.0"/><path d="M699.1 210.3 Q736.1 191.7 777.3 186.1" stroke="#b7c79e" stroke-width="3.0"/></g><circle cx="90" cy="150" r="21.0" fill="#73bfc3" opacity=".28" filter="url(#gB)"/><circle cx="90" cy="150" r="10.0" fill="#73bfc3" filter="url(#gS)"/><circle cx="90" cy="150" r="5.0" fill="#fff" opacity=".9"/><circle cx="130" cy="300" r="21.0" fill="#ee7655" opacity=".28" filter="url(#gB)"/><circle cx="130" cy="300" r="10.0" fill="#ee7655" filter="url(#gS)"/><circle cx="130" cy="300" r="5.0" fill="#fff" opacity=".9"/><circle cx="170" cy="430" r="21.0" fill="#f0c85a" opacity=".28" filter="url(#gB)"/><circle cx="170" cy="430" r="10.0" fill="#f0c85a" filter="url(#gS)"/><circle cx="170" cy="430" r="5.0" fill="#fff" opacity=".9"/><circle cx="210" cy="240" r="21.0" fill="#b7c79e" opacity=".28" filter="url(#gB)"/><circle cx="210" cy="240" r="10.0" fill="#b7c79e" filter="url(#gS)"/><circle cx="210" cy="240" r="5.0" fill="#fff" opacity=".9"/><circle cx="780" cy="300" r="42.0" fill="#f7f4ec" opacity=".28" filter="url(#gB)"/><circle cx="780" cy="300" r="20.0" fill="#f7f4ec" filter="url(#gS)"/><circle cx="780" cy="300" r="10.0" fill="#fff" opacity=".9"/><circle cx="780" cy="300" r="52" fill="none" stroke="#f7f4ec" stroke-width="2" opacity=".22"/></svg>