<svg xmlns="http://www.w3.org/2000/svg" viewBox="0 0 800 540" role="img" aria-label="Confocal-style Drosophila descending neurons" preserveAspectRatio="xMidYMid slice"><defs><radialGradient id="bg" cx="40%" cy="30%" r="85%"><stop offset="0%" stop-color="#173456"/><stop offset="55%" stop-color="#0f2138"/><stop offset="100%" stop-color="#081524"/></radialGradient><filter id="gB" x="-40%" y="-40%" width="180%" height="180%"><feGaussianBlur stdDeviation="7"/></filter><filter id="gS" x="-60%" y="-60%" width="220%" height="220%"><feGaussianBlur stdDeviation="2.4"/></filter></defs><rect width="800" height="540" fill="url(#bg)"/><g filter="url(#gB)"><circle cx="201" cy="292" r="3.8" fill="#f7f4ec" opacity="0.10"/><circle cx="461" cy="323" r="6.5" fill="#b7c79e" opacity="0.08"/><circle cx="198" cy="518" r="4.4" fill="#f7f4ec" opacity="0.10"/><circle cx="506" cy="95" r="5.2" fill="#f7f4ec" opacity="0.09"/><circle cx="32" cy="409" r="2.8" fill="#f7f4ec" opacity="0.05"/><circle cx="613" cy="432" r="3.3" fill="#f7f4ec" opacity="0.12"/><circle cx="688" cy="377" r="6.6" fill="#b7c79e" opacity="0.12"/><circle cx="458" cy="502" r="2.7" fill="#f0c85a" opacity="0.06"/><circle cx="123" cy="128" r="6.8" fill="#b7c79e" opacity="0.13"/><circle cx="670" cy="231" r="6.2" fill="#f7f4ec" opacity="0.09"/><circle cx="465" cy="312" r="6.5" fill="#73bfc3" opacity="0.14"/><circle cx="773" cy="356" r="2.8" fill="#f0c85a" opacity="0.15"/><circle cx="708" cy="305" r="5.6" fill="#ee7655" opacity="0.11"/><circle cx="771" cy="154" r="2.6" fill="#b7c79e" opacity="0.14"/><circle cx="772" cy="64" r="6.0" fill="#b7c79e" opacity="0.14"/><circle cx="35" cy="234" r="4.1" fill="#73bfc3" opacity="0.05"/><circle cx="487" cy="42" r="5.6" fill="#f0c85a" opacity="0.11"/><circle cx="721" cy="160" r="3.2" fill="#73bfc3" opacity="0.08"/><circle cx="78" cy="320" r="2.2" fill="#ee7655" opacity="0.15"/><circle cx="242" cy="152" r="5.4" fill="#f0c85a" opacity="0.08"/><circle cx="749" cy="468" r="3.9" fill="#b7c79e" opacity="0.14"/><circle cx="314" cy="453" r="5.4" fill="#73bfc3" opacity="0.11"/><circle cx="735" cy="274" r="4.2" fill="#ee7655" opacity="0.14"/><circle cx="352" cy="149" r="3.5" fill="#f0c85a" opacity="0.05"/><circle cx="336" cy="310" r="2.1" fill="#f7f4ec" opacity="0.11"/><circle cx="121" cy="337" r="3.7" fill="#f0c85a" opacity="0.12"/><circle cx="288" cy="373" r="5.7" fill="#73bfc3" opacity="0.11"/><circle cx="746" cy="31" r="3.8" fill="#b7c79e" opacity="0.08"/><circle cx="477" cy="109" r="2.9" fill="#f0c85a" opacity="0.13"/><circle cx="221" cy="414" r="2.5" fill="#73bfc3" opacity="0.15"/><circle cx="540" cy="86" r="4.5" fill="#f0c85a" opacity="0.07"/><circle cx="162" cy="238" r="5.5" fill="#73bfc3" opacity="0.11"/><circle cx="741" cy="357" r="3.1" fill="#ee7655" opacity="0.06"/><circle cx="584" cy="129" r="4.8" fill="#f0c85a" opacity="0.07"/></g><g fill="none" stroke-linecap="round" filter="url(#gB)" opacity="0.55"><path d="M300.0 150.0 Q321.9 134.0 334.7 110.1" stroke="#73bfc3" stroke-width="8.7"/><path d="M334.7 110.1 Q352.3 96.4 370.4 83.3" stroke="#73bfc3" stroke-width="8.3"/><path d="M370.4 83.3 Q382.8 67.8 396.3 53.1" stroke="#73bfc3" stroke-width="7.9"/><path d="M396.3 53.1 Q410.4 55.7 424.8 55.6" stroke="#73bfc3" stroke-width="7.2"/><path d="M424.8 55.6 Q436.8 49.7 450.1 51.7" stroke="#73bfc3" stroke-width="6.9"/><path d="M450.1 51.7 Q459.2 44.7 470.3 41.6" stroke="#73bfc3" stroke-width="6.7"/><path d="M470.3 41.6 Q477.5 38.5 483.9 34.1" stroke="#73bfc3" stroke-width="6.4"/><path d="M483.9 34.1 Q490.2 31.3 496.6 28.9" stroke="#73bfc3" stroke-width="6.2"/><path d="M496.6 28.9 Q501.7 31.2 506.0 34.7" stroke="#73bfc3" stroke-width="6.1"/><path d="M506.0 34.7 Q510.9 35.3 514.7 38.4" stroke="#73bfc3" stroke-width="6.1"/><path d="M470.3 41.6 Q478.2 36.5 482.3 28.2" stroke="#73bfc3" stroke-width="6.4"/><path d="M482.3 28.2 Q487.6 22.8 491.2 16.2" stroke="#73bfc3" stroke-width="6.2"/><path d="M491.2 16.2 Q493.6 12.0 497.0 8.4" stroke="#73bfc3" stroke-width="6.1"/><path d="M497.0 8.4 Q500.1 5.6 501.3 1.7" stroke="#73bfc3" stroke-width="6.1"/><path d="M501.3 1.7 Q502.7 -1.5 505.7 -3.4" stroke="#73bfc3" stroke-width="6.1"/><path d="M396.3 53.1 Q397.4 39.3 400.5 25.8" stroke="#73bfc3" stroke-width="7.2"/><path d="M400.5 25.8 Q402.8 13.5 411.9 4.8" stroke="#73bfc3" stroke-width="6.9"/><path d="M411.9 4.8 Q415.7 -5.0 420.8 -14.2" stroke="#73bfc3" stroke-width="6.5"/><path d="M420.8 -14.2 Q423.7 -23.8 430.8 -30.8" stroke="#73bfc3" stroke-width="6.4"/><path d="M430.8 -30.8 Q432.5 -37.5 435.1 -44.0" stroke="#73bfc3" stroke-width="6.1"/><path d="M435.1 -44.0 Q436.2 -49.7 436.4 -55.4" stroke="#73bfc3" stroke-width="6.1"/><path d="M436.4 -55.4 Q436.8 -60.2 436.5 -64.9" stroke="#73bfc3" stroke-width="6.1"/><path d="M300.0 150.0 Q290.4 126.0 289.6 100.2" stroke="#73bfc3" stroke-width="8.7"/><path d="M289.6 100.2 Q283.5 77.8 287.3 54.8" stroke="#73bfc3" stroke-width="8.3"/><path d="M287.3 54.8 Q291.7 39.2 297.6 24.0" stroke="#73bfc3" stroke-width="7.4"/><path d="M297.6 24.0 Q301.6 10.5 297.6 -3.0" stroke="#73bfc3" stroke-width="7.2"/><path d="M297.6 -3.0 Q297.5 -14.5 300.9 -25.6" stroke="#73bfc3" stroke-width="6.9"/><path d="M300.9 -25.6 Q297.4 -32.6 294.1 -39.7" stroke="#73bfc3" stroke-width="6.5"/><path d="M294.1 -39.7 Q289.7 -45.6 289.0 -52.9" stroke="#73bfc3" stroke-width="6.4"/><path d="M289.0 -52.9 Q289.5 -58.1 290.4 -63.3" stroke="#73bfc3" stroke-width="6.1"/><path d="M290.4 -63.3 Q289.6 -67.6 289.6 -72.0" stroke="#73bfc3" stroke-width="6.1"/><path d="M300.9 -25.6 Q310.0 -30.3 315.6 -39.0" stroke="#73bfc3" stroke-width="6.5"/><path d="M315.6 -39.0 Q320.6 -46.2 327.2 -52.0" stroke="#73bfc3" stroke-width="6.4"/><path d="M327.2 -52.0 Q331.4 -55.1 336.2 -57.2" stroke="#73bfc3" stroke-width="6.1"/><path d="M336.2 -57.2 Q339.6 -60.6 342.8 -64.3" stroke="#73bfc3" stroke-width="6.1"/><path d="M287.3 54.8 Q292.6 37.2 293.6 18.8" stroke="#73bfc3" stroke-width="7.4"/><path d="M293.6 18.8 Q299.9 3.0 307.9 -12.0" stroke="#73bfc3" stroke-width="7.2"/><path d="M307.9 -12.0 Q318.3 -23.5 327.5 -36.0" stroke="#73bfc3" stroke-width="6.9"/><path d="M327.5 -36.0 Q331.1 -47.7 339.6 -56.4" stroke="#73bfc3" stroke-width="6.5"/><path d="M339.6 -56.4 Q343.2 -65.8 348.8 -74.3" stroke="#73bfc3" stroke-width="6.4"/><path d="M348.8 -74.3 Q354.2 -80.0 361.8 -82.3" stroke="#73bfc3" stroke-width="6.1"/><path d="M361.8 -82.3 Q366.6 -87.4 370.7 -93.0" stroke="#73bfc3" stroke-width="6.1"/><path d="M370.7 -93.0 Q374.3 -98.0 376.6 -103.7" stroke="#73bfc3" stroke-width="6.1"/><path d="M327.5 -36.0 Q328.7 -45.7 328.5 -55.5" stroke="#73bfc3" stroke-width="6.5"/><path d="M328.5 -55.5 Q329.5 -64.1 332.3 -72.3" stroke="#73bfc3" stroke-width="6.4"/><path d="M332.3 -72.3 Q332.8 -80.4 335.9 -87.9" stroke="#73bfc3" stroke-width="6.2"/><path d="M335.9 -87.9 Q336.0 -93.9 336.9 -99.9" stroke="#73bfc3" stroke-width="6.1"/><path d="M336.9 -99.9 Q335.5 -105.1 336.5 -110.5" stroke="#73bfc3" stroke-width="6.1"/><path d="M300.0 150.0 Q329.2 145.1 357.3 154.4" stroke="#73bfc3" stroke-width="8.7"/><path d="M357.3 154.4 Q378.7 168.5 404.1 172.8" stroke="#73bfc3" stroke-width="8.3"/><path d="M404.1 172.8 Q423.4 183.3 444.4 189.3" stroke="#73bfc3" stroke-width="7.9"/><path d="M444.4 189.3 Q458.0 196.7 472.4 202.2" stroke="#73bfc3" stroke-width="7.2"/><path d="M472.4 202.2 Q486.1 204.8 499.1 209.9" stroke="#73bfc3" stroke-width="6.9"/><path d="M499.1 209.9 Q508.6 213.6 518.8 213.3" stroke="#73bfc3" stroke-width="6.5"/><path d="M518.8 213.3 Q527.0 210.2 535.7 211.9" stroke="#73bfc3" stroke-width="6.4"/><path d="M535.7 211.9 Q542.0 213.7 548.5 214.0" stroke="#73bfc3" stroke-width="6.1"/><path d="M548.5 214.0 Q554.1 213.6 559.4 215.5" stroke="#73bfc3" stroke-width="6.1"/><path d="M559.4 215.5 Q563.8 216.6 568.4 216.6" stroke="#73bfc3" stroke-width="6.1"/><path d="M499.1 209.9 Q507.1 216.7 517.0 220.1" stroke="#73bfc3" stroke-width="6.5"/><path d="M517.0 220.1 Q525.8 224.9 535.7 224.6" stroke="#73bfc3" stroke-width="6.4"/><path d="M535.7 224.6 Q542.3 221.8 548.5 218.4" stroke="#73bfc3" stroke-width="6.1"/><path d="M548.5 218.4 Q555.3 218.7 561.3 215.3" stroke="#73bfc3" stroke-width="6.1"/><path d="M444.4 189.3 Q457.4 202.4 475.0 207.7" stroke="#73bfc3" stroke-width="7.2"/><path d="M475.0 207.7 Q485.4 220.9 496.4 233.5" stroke="#73bfc3" stroke-width="6.9"/><path d="M496.4 233.5 Q501.1 247.3 497.4 261.5" stroke="#73bfc3" stroke-width="6.5"/><path d="M497.4 261.5 Q500.2 273.3 499.6 285.5" stroke="#73bfc3" stroke-width="6.4"/><path d="M499.6 285.5 Q500.2 297.0 505.9 307.0" stroke="#73bfc3" stroke-width="6.2"/><path d="M505.9 307.0 Q511.7 313.3 520.1 315.1" stroke="#73bfc3" stroke-width="6.1"/><path d="M520.1 315.1 Q526.1 319.7 533.1 322.8" stroke="#73bfc3" stroke-width="6.1"/><path d="M496.4 233.5 Q503.1 245.5 506.4 258.9" stroke="#73bfc3" stroke-width="6.5"/><path d="M506.4 258.9 Q509.6 270.8 513.1 282.7" stroke="#73bfc3" stroke-width="6.4"/><path d="M513.1 282.7 Q517.1 293.4 518.4 304.8" stroke="#73bfc3" stroke-width="6.2"/><path d="M518.4 304.8 Q518.8 314.2 515.1 322.8" stroke="#73bfc3" stroke-width="6.1"/><path d="M515.1 322.8 Q514.9 330.8 514.7 338.9" stroke="#73bfc3" stroke-width="6.1"/><path d="M300.0 150.0 Q312.7 126.9 328.1 105.5" stroke="#73bfc3" stroke-width="8.7"/><path d="M328.1 105.5 Q341.8 85.6 355.7 65.9" stroke="#73bfc3" stroke-width="8.3"/><path d="M355.7 65.9 Q364.0 50.5 372.7 35.4" stroke="#73bfc3" stroke-width="7.4"/><path d="M372.7 35.4 Q381.9 23.6 385.8 9.2" stroke="#73bfc3" stroke-width="7.2"/><path d="M385.8 9.2 Q390.2 -3.7 397.5 -15.3" stroke="#73bfc3" stroke-width="6.9"/><path d="M397.5 -15.3 Q402.2 -22.4 409.5 -26.9" stroke="#73bfc3" stroke-width="6.5"/><path d="M409.5 -26.9 Q414.4 -31.8 417.8 -37.9" stroke="#73bfc3" stroke-width="6.4"/><path d="M417.8 -37.9 Q421.8 -40.6 425.3 -43.9" stroke="#73bfc3" stroke-width="6.1"/><path d="M425.3 -43.9 Q429.6 -45.2 432.8 -48.3" stroke="#73bfc3" stroke-width="6.1"/><path d="M397.5 -15.3 Q405.0 -21.5 409.0 -30.4" stroke="#73bfc3" stroke-width="6.5"/><path d="M409.0 -30.4 Q414.8 -36.9 422.4 -41.0" stroke="#73bfc3" stroke-width="6.4"/><path d="M422.4 -41.0 Q429.7 -39.9 436.7 -42.4" stroke="#73bfc3" stroke-width="6.1"/><path d="M436.7 -42.4 Q442.8 -43.0 448.7 -41.3" stroke="#73bfc3" stroke-width="6.1"/><path d="M448.7 -41.3 Q453.8 -40.6 458.1 -37.7" stroke="#73bfc3" stroke-width="6.1"/><path d="M355.7 65.9 Q372.6 59.1 388.2 49.6" stroke="#73bfc3" stroke-width="7.4"/><path d="M388.2 49.6 Q400.9 38.8 412.6 26.9" stroke="#73bfc3" stroke-width="7.2"/><path d="M412.6 26.9 Q421.0 17.3 426.9 6.1" stroke="#73bfc3" stroke-width="6.7"/><path d="M426.9 6.1 Q427.5 -4.8 433.2 -14.2" stroke="#73bfc3" stroke-width="6.5"/><path d="M433.2 -14.2 Q436.2 -22.4 439.0 -30.7" stroke="#73bfc3" stroke-width="6.4"/><path d="M439.0 -30.7 Q435.3 -35.4 433.9 -41.1" stroke="#73bfc3" stroke-width="6.1"/><path d="M433.9 -41.1 Q432.5 -45.9 430.6 -50.5" stroke="#73bfc3" stroke-width="6.1"/><path d="M412.6 26.9 Q414.3 15.5 416.9 4.3" stroke="#73bfc3" stroke-width="6.7"/><path d="M416.9 4.3 Q416.6 -6.0 413.8 -15.9" stroke="#73bfc3" stroke-width="6.5"/><path d="M413.8 -15.9 Q410.0 -24.6 406.8 -33.4" stroke="#73bfc3" stroke-width="6.4"/><path d="M406.8 -33.4 Q403.0 -38.7 397.5 -42.3" stroke="#73bfc3" stroke-width="6.1"/><path d="M397.5 -42.3 Q393.1 -45.8 387.7 -47.3" stroke="#73bfc3" stroke-width="6.1"/><path d="M300.0 150.0 Q322.1 139.1 346.4 135.5" stroke="#73bfc3" stroke-width="8.7"/><path d="M346.4 135.5 Q369.3 136.5 391.2 129.5" stroke="#73bfc3" stroke-width="8.3"/><path d="M391.2 129.5 Q412.5 130.6 431.8 121.3" stroke="#73bfc3" stroke-width="7.9"/><path d="M431.8 121.3 Q449.0 118.3 466.0 122.1" stroke="#73bfc3" stroke-width="7.2"/><path d="M466.0 122.1 Q481.1 116.4 497.1 118.5" stroke="#73bfc3" stroke-width="6.9"/><path d="M497.1 118.5 Q510.4 125.5 525.4 125.1" stroke="#73bfc3" stroke-width="6.7"/><path d="M525.4 125.1 Q529.4 133.5 534.2 141.5" stroke="#73bfc3" stroke-width="6.4"/><path d="M534.2 141.5 Q536.4 149.8 543.0 155.3" stroke="#73bfc3" stroke-width="6.2"/><path d="M543.0 155.3 Q547.7 160.2 549.5 166.7" stroke="#73bfc3" stroke-width="6.1"/><path d="M549.5 166.7 Q552.4 171.4 555.4 176.2" stroke="#73bfc3" stroke-width="6.1"/><path d="M525.4 125.1 Q534.6 124.0 543.7 122.9" stroke="#73bfc3" stroke-width="6.4"/><path d="M543.7 122.9 Q552.5 124.9 560.9 121.6" stroke="#73bfc3" stroke-width="6.2"/><path d="M560.9 121.6 Q568.9 120.6 576.2 123.7" stroke="#73bfc3" stroke-width="6.1"/><path d="M576.2 123.7 Q579.9 127.3 584.9 128.2" stroke="#73bfc3" stroke-width="6.1"/><path d="M584.9 128.2 Q588.8 130.7 592.9 132.6" stroke="#73bfc3" stroke-width="6.1"/><path d="M431.8 121.3 Q444.9 113.8 459.6 110.5" stroke="#73bfc3" stroke-width="7.2"/><path d="M459.6 110.5 Q473.7 109.0 486.5 103.4" stroke="#73bfc3" stroke-width="6.9"/><path d="M486.5 103.4 Q498.0 103.2 509.4 101.8" stroke="#73bfc3" stroke-width="6.7"/><path d="M509.4 101.8 Q516.9 102.7 522.9 107.5" stroke="#73bfc3" stroke-width="6.4"/><path d="M522.9 107.5 Q529.3 110.6 533.3 116.5" stroke="#73bfc3" stroke-width="6.2"/><path d="M533.3 116.5 Q538.3 120.4 543.3 124.4" stroke="#73bfc3" stroke-width="6.1"/><path d="M543.3 124.4 Q548.3 125.8 553.2 124.4" stroke="#73bfc3" stroke-width="6.1"/><path d="M553.2 124.4 Q557.6 123.8 561.6 125.7" stroke="#73bfc3" stroke-width="6.1"/><path d="M561.6 125.7 Q565.3 126.1 568.9 124.8" stroke="#73bfc3" stroke-width="6.1"/><path d="M509.4 101.8 Q516.9 98.4 523.5 93.2" stroke="#73bfc3" stroke-width="6.4"/><path d="M523.5 93.2 Q530.6 92.0 536.8 88.0" stroke="#73bfc3" stroke-width="6.2"/><path d="M536.8 88.0 Q541.2 83.8 547.1 82.1" stroke="#73bfc3" stroke-width="6.1"/><path d="M547.1 82.1 Q550.4 79.8 553.4 77.0" stroke="#73bfc3" stroke-width="6.1"/><path d="M553.4 77.0 Q556.2 74.5 559.8 73.2" stroke="#73bfc3" stroke-width="6.1"/><path d="M559.8 73.2 Q562.7 71.8 564.5 69.1" stroke="#73bfc3" stroke-width="6.1"/><path d="M300.0 150.0 Q310.7 175.4 325.4 198.8" stroke="#73bfc3" stroke-width="8.5"/><path d="M325.4 198.8 Q344.3 219.2 356.3 244.3" stroke="#73bfc3" stroke-width="8.5"/><path d="M356.3 244.3 Q380.4 259.8 392.2 285.9" stroke="#73bfc3" stroke-width="8.5"/><path d="M392.2 285.9 Q414.3 302.8 430.8 325.1" stroke="#73bfc3" stroke-width="8.5"/><path d="M430.8 325.1 Q443.4 350.7 466.9 366.6" stroke="#73bfc3" stroke-width="8.5"/><path d="M466.9 366.6 Q489.8 382.5 506.2 405.1" stroke="#73bfc3" stroke-width="8.5"/></g><g fill="none" stroke-linecap="round" opacity="0.9"><path d="M300.0 150.0 Q321.9 134.0 334.7 110.1" stroke="#73bfc3" stroke-width="3.2"/><path d="M334.7 110.1 Q352.3 96.4 370.4 83.3" stroke="#73bfc3" stroke-width="2.8"/><path d="M370.4 83.3 Q382.8 67.8 396.3 53.1" stroke="#73bfc3" stroke-width="2.4"/><path d="M396.3 53.1 Q410.4 55.7 424.8 55.6" stroke="#73bfc3" stroke-width="1.7"/><path d="M424.8 55.6 Q436.8 49.7 450.1 51.7" stroke="#73bfc3" stroke-width="1.4"/><path d="M450.1 51.7 Q459.2 44.7 470.3 41.6" stroke="#73bfc3" stroke-width="1.2"/><path d="M470.3 41.6 Q477.5 38.5 483.9 34.1" stroke="#73bfc3" stroke-width="0.9"/><path d="M483.9 34.1 Q490.2 31.3 496.6 28.9" stroke="#73bfc3" stroke-width="0.7"/><path d="M496.6 28.9 Q501.7 31.2 506.0 34.7" stroke="#73bfc3" stroke-width="0.6"/><path d="M506.0 34.7 Q510.9 35.3 514.7 38.4" stroke="#73bfc3" stroke-width="0.6"/><path d="M470.3 41.6 Q478.2 36.5 482.3 28.2" stroke="#73bfc3" stroke-width="0.9"/><path d="M482.3 28.2 Q487.6 22.8 491.2 16.2" stroke="#73bfc3" stroke-width="0.7"/><path d="M491.2 16.2 Q493.6 12.0 497.0 8.4" stroke="#73bfc3" stroke-width="0.6"/><path d="M497.0 8.4 Q500.1 5.6 501.3 1.7" stroke="#73bfc3" stroke-width="0.6"/><path d="M501.3 1.7 Q502.7 -1.5 505.7 -3.4" stroke="#73bfc3" stroke-width="0.6"/><path d="M396.3 53.1 Q397.4 39.3 400.5 25.8" stroke="#73bfc3" stroke-width="1.7"/><path d="M400.5 25.8 Q402.8 13.5 411.9 4.8" stroke="#73bfc3" stroke-width="1.4"/><path d="M411.9 4.8 Q415.7 -5.0 420.8 -14.2" stroke="#73bfc3" stroke-width="1.0"/><path d="M420.8 -14.2 Q423.7 -23.8 430.8 -30.8" stroke="#73bfc3" stroke-width="0.9"/><path d="M430.8 -30.8 Q432.5 -37.5 435.1 -44.0" stroke="#73bfc3" stroke-width="0.6"/><path d="M435.1 -44.0 Q436.2 -49.7 436.4 -55.4" stroke="#73bfc3" stroke-width="0.6"/><path d="M436.4 -55.4 Q436.8 -60.2 436.5 -64.9" stroke="#73bfc3" stroke-width="0.6"/><path d="M300.0 150.0 Q290.4 126.0 289.6 100.2" stroke="#73bfc3" stroke-width="3.2"/><path d="M289.6 100.2 Q283.5 77.8 287.3 54.8" stroke="#73bfc3" stroke-width="2.8"/><path d="M287.3 54.8 Q291.7 39.2 297.6 24.0" stroke="#73bfc3" stroke-width="1.9"/><path d="M297.6 24.0 Q301.6 10.5 297.6 -3.0" stroke="#73bfc3" stroke-width="1.7"/><path d="M297.6 -3.0 Q297.5 -14.5 300.9 -25.6" stroke="#73bfc3" stroke-width="1.4"/><path d="M300.9 -25.6 Q297.4 -32.6 294.1 -39.7" stroke="#73bfc3" stroke-width="1.0"/><path d="M294.1 -39.7 Q289.7 -45.6 289.0 -52.9" stroke="#73bfc3" stroke-width="0.9"/><path d="M289.0 -52.9 Q289.5 -58.1 290.4 -63.3" stroke="#73bfc3" stroke-width="0.6"/><path d="M290.4 -63.3 Q289.6 -67.6 289.6 -72.0" stroke="#73bfc3" stroke-width="0.6"/><path d="M300.9 -25.6 Q310.0 -30.3 315.6 -39.0" stroke="#73bfc3" stroke-width="1.0"/><path d="M315.6 -39.0 Q320.6 -46.2 327.2 -52.0" stroke="#73bfc3" stroke-width="0.9"/><path d="M327.2 -52.0 Q331.4 -55.1 336.2 -57.2" stroke="#73bfc3" stroke-width="0.6"/><path d="M336.2 -57.2 Q339.6 -60.6 342.8 -64.3" stroke="#73bfc3" stroke-width="0.6"/><path d="M287.3 54.8 Q292.6 37.2 293.6 18.8" stroke="#73bfc3" stroke-width="1.9"/><path d="M293.6 18.8 Q299.9 3.0 307.9 -12.0" stroke="#73bfc3" stroke-width="1.7"/><path d="M307.9 -12.0 Q318.3 -23.5 327.5 -36.0" stroke="#73bfc3" stroke-width="1.4"/><path d="M327.5 -36.0 Q331.1 -47.7 339.6 -56.4" stroke="#73bfc3" stroke-width="1.0"/><path d="M339.6 -56.4 Q343.2 -65.8 348.8 -74.3" stroke="#73bfc3" stroke-width="0.9"/><path d="M348.8 -74.3 Q354.2 -80.0 361.8 -82.3" stroke="#73bfc3" stroke-width="0.6"/><path d="M361.8 -82.3 Q366.6 -87.4 370.7 -93.0" stroke="#73bfc3" stroke-width="0.6"/><path d="M370.7 -93.0 Q374.3 -98.0 376.6 -103.7" stroke="#73bfc3" stroke-width="0.6"/><path d="M327.5 -36.0 Q328.7 -45.7 328.5 -55.5" stroke="#73bfc3" stroke-width="1.0"/><path d="M328.5 -55.5 Q329.5 -64.1 332.3 -72.3" stroke="#73bfc3" stroke-width="0.9"/><path d="M332.3 -72.3 Q332.8 -80.4 335.9 -87.9" stroke="#73bfc3" stroke-width="0.7"/><path d="M335.9 -87.9 Q336.0 -93.9 336.9 -99.9" stroke="#73bfc3" stroke-width="0.6"/><path d="M336.9 -99.9 Q335.5 -105.1 336.5 -110.5" stroke="#73bfc3" stroke-width="0.6"/><path d="M300.0 150.0 Q329.2 145.1 357.3 154.4" stroke="#73bfc3" stroke-width="3.2"/><path d="M357.3 154.4 Q378.7 168.5 404.1 172.8" stroke="#73bfc3" stroke-width="2.8"/><path d="M404.1 172.8 Q423.4 183.3 444.4 189.3" stroke="#73bfc3" stroke-width="2.4"/><path d="M444.4 189.3 Q458.0 196.7 472.4 202.2" stroke="#73bfc3" stroke-width="1.7"/><path d="M472.4 202.2 Q486.1 204.8 499.1 209.9" stroke="#73bfc3" stroke-width="1.4"/><path d="M499.1 209.9 Q508.6 213.6 518.8 213.3" stroke="#73bfc3" stroke-width="1.0"/><path d="M518.8 213.3 Q527.0 210.2 535.7 211.9" stroke="#73bfc3" stroke-width="0.9"/><path d="M535.7 211.9 Q542.0 213.7 548.5 214.0" stroke="#73bfc3" stroke-width="0.6"/><path d="M548.5 214.0 Q554.1 213.6 559.4 215.5" stroke="#73bfc3" stroke-width="0.6"/><path d="M559.4 215.5 Q563.8 216.6 568.4 216.6" stroke="#73bfc3" stroke-width="0.6"/><path d="M499.1 209.9 Q507.1 216.7 517.0 220.1" stroke="#73bfc3" stroke-width="1.0"/><path d="M517.0 220.1 Q525.8 224.9 535.7 224.6" stroke="#73bfc3" stroke-width="0.9"/><path d="M535.7 224.6 Q542.3 221.8 548.5 218.4" stroke="#73bfc3" stroke-width="0.6"/><path d="M548.5 218.4 Q555.3 218.7 561.3 215.3" stroke="#73bfc3" stroke-width="0.6"/><path d="M444.4 189.3 Q457.4 202.4 475.0 207.7" stroke="#73bfc3" stroke-width="1.7"/><path d="M475.0 207.7 Q485.4 220.9 496.4 233.5" stroke="#73bfc3" stroke-width="1.4"/><path d="M496.4 233.5 Q501.1 247.3 497.4 261.5" stroke="#73bfc3" stroke-width="1.0"/><path d="M497.4 261.5 Q500.2 273.3 499.6 285.5" stroke="#73bfc3" stroke-width="0.9"/><path d="M499.6 285.5 Q500.2 297.0 505.9 307.0" stroke="#73bfc3" stroke-width="0.7"/><path d="M505.9 307.0 Q511.7 313.3 520.1 315.1" stroke="#73bfc3" stroke-width="0.6"/><path d="M520.1 315.1 Q526.1 319.7 533.1 322.8" stroke="#73bfc3" stroke-width="0.6"/><path d="M496.4 233.5 Q503.1 245.5 506.4 258.9" stroke="#73bfc3" stroke-width="1.0"/><path d="M506.4 258.9 Q509.6 270.8 513.1 282.7" stroke="#73bfc3" stroke-width="0.9"/><path d="M513.1 282.7 Q517.1 293.4 518.4 304.8" stroke="#73bfc3" stroke-width="0.7"/><path d="M518.4 304.8 Q518.8 314.2 515.1 322.8" stroke="#73bfc3" stroke-width="0.6"/><path d="M515.1 322.8 Q514.9 330.8 514.7 338.9" stroke="#73bfc3" stroke-width="0.6"/><path d="M300.0 150.0 Q312.7 126.9 328.1 105.5" stroke="#73bfc3" stroke-width="3.2"/><path d="M328.1 105.5 Q341.8 85.6 355.7 65.9" stroke="#73bfc3" stroke-width="2.8"/><path d="M355.7 65.9 Q364.0 50.5 372.7 35.4" stroke="#73bfc3" stroke-width="1.9"/><path d="M372.7 35.4 Q381.9 23.6 385.8 9.2" stroke="#73bfc3" stroke-width="1.7"/><path d="M385.8 9.2 Q390.2 -3.7 397.5 -15.3" stroke="#73bfc3" stroke-width="1.4"/><path d="M397.5 -15.3 Q402.2 -22.4 409.5 -26.9" stroke="#73bfc3" stroke-width="1.0"/><path d="M409.5 -26.9 Q414.4 -31.8 417.8 -37.9" stroke="#73bfc3" stroke-width="0.9"/><path d="M417.8 -37.9 Q421.8 -40.6 425.3 -43.9" stroke="#73bfc3" stroke-width="0.6"/><path d="M425.3 -43.9 Q429.6 -45.2 432.8 -48.3" stroke="#73bfc3" stroke-width="0.6"/><path d="M397.5 -15.3 Q405.0 -21.5 409.0 -30.4" stroke="#73bfc3" stroke-width="1.0"/><path d="M409.0 -30.4 Q414.8 -36.9 422.4 -41.0" stroke="#73bfc3" stroke-width="0.9"/><path d="M422.4 -41.0 Q429.7 -39.9 436.7 -42.4" stroke="#73bfc3" stroke-width="0.6"/><path d="M436.7 -42.4 Q442.8 -43.0 448.7 -41.3" stroke="#73bfc3" stroke-width="0.6"/><path d="M448.7 -41.3 Q453.8 -40.6 458.1 -37.7" stroke="#73bfc3" stroke-width="0.6"/><path d="M355.7 65.9 Q372.6 59.1 388.2 49.6" stroke="#73bfc3" stroke-width="1.9"/><path d="M388.2 49.6 Q400.9 38.8 412.6 26.9" stroke="#73bfc3" stroke-width="1.7"/><path d="M412.6 26.9 Q421.0 17.3 426.9 6.1" stroke="#73bfc3" stroke-width="1.2"/><path d="M426.9 6.1 Q427.5 -4.8 433.2 -14.2" stroke="#73bfc3" stroke-width="1.0"/><path d="M433.2 -14.2 Q436.2 -22.4 439.0 -30.7" stroke="#73bfc3" stroke-width="0.9"/><path d="M439.0 -30.7 Q435.3 -35.4 433.9 -41.1" stroke="#73bfc3" stroke-width="0.6"/><path d="M433.9 -41.1 Q432.5 -45.9 430.6 -50.5" stroke="#73bfc3" stroke-width="0.6"/><path d="M412.6 26.9 Q414.3 15.5 416.9 4.3" stroke="#73bfc3" stroke-width="1.2"/><path d="M416.9 4.3 Q416.6 -6.0 413.8 -15.9" stroke="#73bfc3" stroke-width="1.0"/><path d="M413.8 -15.9 Q410.0 -24.6 406.8 -33.4" stroke="#73bfc3" stroke-width="0.9"/><path d="M406.8 -33.4 Q403.0 -38.7 397.5 -42.3" stroke="#73bfc3" stroke-width="0.6"/><path d="M397.5 -42.3 Q393.1 -45.8 387.7 -47.3" stroke="#73bfc3" stroke-width="0.6"/><path d="M300.0 150.0 Q322.1 139.1 346.4 135.5" stroke="#73bfc3" stroke-width="3.2"/><path d="M346.4 135.5 Q369.3 136.5 391.2 129.5" stroke="#73bfc3" stroke-width="2.8"/><path d="M391.2 129.5 Q412.5 130.6 431.8 121.3" stroke="#73bfc3" stroke-width="2.4"/><path d="M431.8 121.3 Q449.0 118.3 466.0 122.1" stroke="#73bfc3" stroke-width="1.7"/><path d="M466.0 122.1 Q481.1 116.4 497.1 118.5" stroke="#73bfc3" stroke-width="1.4"/><path d="M497.1 118.5 Q510.4 125.5 525.4 125.1" stroke="#73bfc3" stroke-width="1.2"/><path d="M525.4 125.1 Q529.4 133.5 534.2 141.5" stroke="#73bfc3" stroke-width="0.9"/><path d="M534.2 141.5 Q536.4 149.8 543.0 155.3" stroke="#73bfc3" stroke-width="0.7"/><path d="M543.0 155.3 Q547.7 160.2 549.5 166.7" stroke="#73bfc3" stroke-width="0.6"/><path d="M549.5 166.7 Q552.4 171.4 555.4 176.2" stroke="#73bfc3" stroke-width="0.6"/><path d="M525.4 125.1 Q534.6 124.0 543.7 122.9" stroke="#73bfc3" stroke-width="0.9"/><path d="M543.7 122.9 Q552.5 124.9 560.9 121.6" stroke="#73bfc3" stroke-width="0.7"/><path d="M560.9 121.6 Q568.9 120.6 576.2 123.7" stroke="#73bfc3" stroke-width="0.6"/><path d="M576.2 123.7 Q579.9 127.3 584.9 128.2" stroke="#73bfc3" stroke-width="0.6"/><path d="M584.9 128.2 Q588.8 130.7 592.9 132.6" stroke="#73bfc3" stroke-width="0.6"/><path d="M431.8 121.3 Q444.9 113.8 459.6 110.5" stroke="#73bfc3" stroke-width="1.7"/><path d="M459.6 110.5 Q473.7 109.0 486.5 103.4" stroke="#73bfc3" stroke-width="1.4"/><path d="M486.5 103.4 Q498.0 103.2 509.4 101.8" stroke="#73bfc3" stroke-width="1.2"/><path d="M509.4 101.8 Q516.9 102.7 522.9 107.5" stroke="#73bfc3" stroke-width="0.9"/><path d="M522.9 107.5 Q529.3 110.6 533.3 116.5" stroke="#73bfc3" stroke-width="0.7"/><path d="M533.3 116.5 Q538.3 120.4 543.3 124.4" stroke="#73bfc3" stroke-width="0.6"/><path d="M543.3 124.4 Q548.3 125.8 553.2 124.4" stroke="#73bfc3" stroke-width="0.6"/><path d="M553.2 124.4 Q557.6 123.8 561.6 125.7" stroke="#73bfc3" stroke-width="0.6"/><path d="M561.6 125.7 Q565.3 126.1 568.9 124.8" stroke="#73bfc3" stroke-width="0.6"/><path d="M509.4 101.8 Q516.9 98.4 523.5 93.2" stroke="#73bfc3" stroke-width="0.9"/><path d="M523.5 93.2 Q530.6 92.0 536.8 88.0" stroke="#73bfc3" stroke-width="0.7"/><path d="M536.8 88.0 Q541.2 83.8 547.1 82.1" stroke="#73bfc3" stroke-width="0.6"/><path d="M547.1 82.1 Q550.4 79.8 553.4 77.0" stroke="#73bfc3" stroke-width="0.6"/><path d="M553.4 77.0 Q556.2 74.5 559.8 73.2" stroke="#73bfc3" stroke-width="0.6"/><path d="M559.8 73.2 Q562.7 71.8 564.5 69.1" stroke="#73bfc3" stroke-width="0.6"/><path d="M300.0 150.0 Q310.7 175.4 325.4 198.8" stroke="#73bfc3" stroke-width="3.0"/><path d="M325.4 198.8 Q344.3 219.2 356.3 244.3" stroke="#73bfc3" stroke-width="3.0"/><path d="M356.3 244.3 Q380.4 259.8 392.2 285.9" stroke="#73bfc3" stroke-width="3.0"/><path d="M392.2 285.9 Q414.3 302.8 430.8 325.1" stroke="#73bfc3" stroke-width="3.0"/><path d="M430.8 325.1 Q443.4 350.7 466.9 366.6" stroke="#73bfc3" stroke-width="3.0"/><path d="M466.9 366.6 Q489.8 382.5 506.2 405.1" stroke="#73bfc3" stroke-width="3.0"/></g><g fill="none" stroke-linecap="round" filter="url(#gB)" opacity="0.55"><path d="M360.0 120.0 Q384.6 135.2 404.7 156.0" stroke="#ee7655" stroke-width="8.7"/><path d="M404.7 156.0 Q423.6 172.5 446.4 183.1" stroke="#ee7655" stroke-width="8.3"/><path d="M446.4 183.1 Q462.5 194.5 481.1 201.2" stroke="#ee7655" stroke-width="7.4"/><path d="M481.1 201.2 Q495.0 211.5 511.2 217.2" stroke="#ee7655" stroke-width="7.2"/><path d="M511.2 217.2 Q514.5 229.8 524.1 238.5" stroke="#ee7655" stroke-width="6.7"/><path d="M524.1 238.5 Q528.8 248.3 531.8 258.7" stroke="#ee7655" stroke-width="6.5"/><path d="M531.8 258.7 Q532.5 266.3 530.1 273.5" stroke="#ee7655" stroke-width="6.2"/><path d="M530.1 273.5 Q527.3 279.5 526.0 285.9" stroke="#ee7655" stroke-width="6.1"/><path d="M511.2 217.2 Q522.4 222.3 533.0 228.4" stroke="#ee7655" stroke-width="6.7"/><path d="M533.0 228.4 Q541.7 234.9 548.4 243.6" stroke="#ee7655" stroke-width="6.5"/><path d="M548.4 243.6 Q556.6 247.2 564.6 251.1" stroke="#ee7655" stroke-width="6.2"/><path d="M564.6 251.1 Q571.9 253.1 579.5 254.0" stroke="#ee7655" stroke-width="6.1"/><path d="M579.5 254.0 Q585.3 256.3 591.1 258.8" stroke="#ee7655" stroke-width="6.1"/><path d="M446.4 183.1 Q463.9 183.0 478.8 192.1" stroke="#ee7655" stroke-width="7.4"/><path d="M478.8 192.1 Q493.6 194.1 508.1 190.3" stroke="#ee7655" stroke-width="7.2"/><path d="M508.1 190.3 Q520.1 196.3 533.6 197.3" stroke="#ee7655" stroke-width="6.9"/><path d="M533.6 197.3 Q540.6 206.0 550.2 211.6" stroke="#ee7655" stroke-width="6.5"/><path d="M550.2 211.6 Q559.6 213.9 568.0 218.9" stroke="#ee7655" stroke-width="6.4"/><path d="M568.0 218.9 Q575.3 223.2 582.4 228.0" stroke="#ee7655" stroke-width="6.2"/><path d="M582.4 228.0 Q588.5 228.5 594.6 228.6" stroke="#ee7655" stroke-width="6.1"/><path d="M594.6 228.6 Q599.4 226.3 604.8 226.1" stroke="#ee7655" stroke-width="6.1"/><path d="M533.6 197.3 Q543.0 198.4 551.6 194.2" stroke="#ee7655" stroke-width="6.5"/><path d="M551.6 194.2 Q560.1 194.5 568.6 194.2" stroke="#ee7655" stroke-width="6.4"/><path d="M568.6 194.2 Q576.2 194.9 583.3 192.2" stroke="#ee7655" stroke-width="6.2"/><path d="M583.3 192.2 Q586.6 188.3 590.6 185.2" stroke="#ee7655" stroke-width="6.1"/><path d="M590.6 185.2 Q594.1 182.2 598.4 180.6" stroke="#ee7655" stroke-width="6.1"/><path d="M360.0 120.0 Q383.1 131.3 408.6 127.4" stroke="#ee7655" stroke-width="8.7"/><path d="M408.6 127.4 Q429.7 121.9 450.4 129.1" stroke="#ee7655" stroke-width="8.3"/><path d="M450.4 129.1 Q469.8 132.0 488.7 137.4" stroke="#ee7655" stroke-width="7.9"/><path d="M488.7 137.4 Q504.2 141.5 517.9 149.9" stroke="#ee7655" stroke-width="7.2"/><path d="M517.9 149.9 Q526.9 161.0 538.6 169.2" stroke="#ee7655" stroke-width="6.9"/><path d="M538.6 169.2 Q546.1 178.0 556.8 182.6" stroke="#ee7655" stroke-width="6.5"/><path d="M556.8 182.6 Q562.7 190.7 570.2 197.3" stroke="#ee7655" stroke-width="6.4"/><path d="M570.2 197.3 Q576.1 201.1 580.7 206.4" stroke="#ee7655" stroke-width="6.1"/><path d="M580.7 206.4 Q587.3 207.6 592.2 212.2" stroke="#ee7655" stroke-width="6.1"/><path d="M592.2 212.2 Q596.6 216.4 602.1 218.9" stroke="#ee7655" stroke-width="6.1"/><path d="M538.6 169.2 Q549.4 172.7 557.2 181.0" stroke="#ee7655" stroke-width="6.5"/><path d="M557.2 181.0 Q566.3 184.2 575.6 186.7" stroke="#ee7655" stroke-width="6.4"/><path d="M575.6 186.7 Q579.3 192.3 585.5 194.9" stroke="#ee7655" stroke-width="6.1"/><path d="M585.5 194.9 Q590.4 198.1 596.2 199.1" stroke="#ee7655" stroke-width="6.1"/><path d="M488.7 137.4 Q498.3 146.2 506.1 156.5" stroke="#ee7655" stroke-width="7.2"/><path d="M506.1 156.5 Q512.3 167.1 520.9 175.8" stroke="#ee7655" stroke-width="6.9"/><path d="M520.9 175.8 Q531.4 179.7 538.8 188.0" stroke="#ee7655" stroke-width="6.7"/><path d="M538.8 188.0 Q547.4 189.1 556.0 187.9" stroke="#ee7655" stroke-width="6.4"/><path d="M556.0 187.9 Q563.2 190.8 571.0 190.6" stroke="#ee7655" stroke-width="6.2"/><path d="M571.0 190.6 Q577.8 191.6 584.2 194.0" stroke="#ee7655" stroke-width="6.1"/><path d="M584.2 194.0 Q589.5 195.2 594.6 193.1" stroke="#ee7655" stroke-width="6.1"/><path d="M594.6 193.1 Q599.2 192.1 603.7 190.6" stroke="#ee7655" stroke-width="6.1"/><path d="M360.0 120.0 Q376.8 99.4 389.0 75.8" stroke="#ee7655" stroke-width="8.7"/><path d="M389.0 75.8 Q402.7 55.1 420.0 37.2" stroke="#ee7655" stroke-width="8.3"/><path d="M420.0 37.2 Q437.3 20.6 444.0 -2.5" stroke="#ee7655" stroke-width="7.9"/><path d="M444.0 -2.5 Q440.8 -19.8 439.7 -37.4" stroke="#ee7655" stroke-width="7.2"/><path d="M439.7 -37.4 Q435.4 -51.3 432.5 -65.6" stroke="#ee7655" stroke-width="6.9"/><path d="M432.5 -65.6 Q424.8 -72.4 419.2 -80.9" stroke="#ee7655" stroke-width="6.5"/><path d="M419.2 -80.9 Q412.0 -87.0 406.0 -94.2" stroke="#ee7655" stroke-width="6.4"/><path d="M406.0 -94.2 Q399.5 -99.6 391.2 -101.3" stroke="#ee7655" stroke-width="6.2"/><path d="M391.2 -101.3 Q390.2 -106.7 388.1 -111.8" stroke="#ee7655" stroke-width="6.1"/><path d="M388.1 -111.8 Q386.3 -116.4 382.8 -119.8" stroke="#ee7655" stroke-width="6.1"/><path d="M382.8 -119.8 Q379.3 -122.3 377.6 -126.3" stroke="#ee7655" stroke-width="6.1"/><path d="M432.5 -65.6 Q433.3 -77.5 439.1 -88.0" stroke="#ee7655" stroke-width="6.5"/><path d="M439.1 -88.0 Q446.0 -96.9 449.0 -107.7" stroke="#ee7655" stroke-width="6.4"/><path d="M449.0 -107.7 Q456.8 -113.9 460.5 -123.2" stroke="#ee7655" stroke-width="6.2"/><path d="M460.5 -123.2 Q463.5 -130.9 470.3 -135.6" stroke="#ee7655" stroke-width="6.1"/><path d="M470.3 -135.6 Q474.0 -141.5 476.6 -148.1" stroke="#ee7655" stroke-width="6.1"/><path d="M476.6 -148.1 Q479.9 -153.6 484.5 -158.2" stroke="#ee7655" stroke-width="6.1"/><path d="M444.0 -2.5 Q461.0 -7.7 478.0 -2.6" stroke="#ee7655" stroke-width="7.2"/><path d="M478.0 -2.6 Q493.4 2.2 509.2 -1.1" stroke="#ee7655" stroke-width="6.9"/><path d="M509.2 -1.1 Q521.4 4.9 534.9 3.5" stroke="#ee7655" stroke-width="6.7"/><path d="M534.9 3.5 Q538.6 14.0 543.5 23.9" stroke="#ee7655" stroke-width="6.4"/><path d="M543.5 23.9 Q547.3 33.9 545.1 44.3" stroke="#ee7655" stroke-width="6.2"/><path d="M545.1 44.3 Q542.0 49.8 539.4 55.6" stroke="#ee7655" stroke-width="6.1"/><path d="M539.4 55.6 Q535.0 59.9 533.0 65.6" stroke="#ee7655" stroke-width="6.1"/><path d="M533.0 65.6 Q529.1 68.9 526.3 73.1" stroke="#ee7655" stroke-width="6.1"/><path d="M534.9 3.5 Q543.5 2.0 550.1 -3.7" stroke="#ee7655" stroke-width="6.4"/><path d="M550.1 -3.7 Q555.5 -9.3 563.1 -11.1" stroke="#ee7655" stroke-width="6.2"/><path d="M563.1 -11.1 Q566.8 -14.4 569.1 -18.7" stroke="#ee7655" stroke-width="6.1"/><path d="M569.1 -18.7 Q572.0 -21.8 574.7 -25.0" stroke="#ee7655" stroke-width="6.1"/><path d="M360.0 120.0 Q366.9 95.4 382.2 75.0" stroke="#ee7655" stroke-width="8.7"/><path d="M382.2 75.0 Q392.2 53.6 410.6 38.8" stroke="#ee7655" stroke-width="8.3"/><path d="M410.6 38.8 Q427.1 36.1 443.4 39.8" stroke="#ee7655" stroke-width="7.4"/><path d="M443.4 39.8 Q456.8 43.3 470.7 44.1" stroke="#ee7655" stroke-width="7.2"/><path d="M470.7 44.1 Q482.8 47.1 493.1 54.4" stroke="#ee7655" stroke-width="6.9"/><path d="M493.1 54.4 Q500.5 50.0 508.3 46.4" stroke="#ee7655" stroke-width="6.5"/><path d="M508.3 46.4 Q514.8 43.4 521.7 41.4" stroke="#ee7655" stroke-width="6.4"/><path d="M521.7 41.4 Q527.0 43.0 532.5 42.0" stroke="#ee7655" stroke-width="6.1"/><path d="M532.5 42.0 Q537.1 41.2 541.8 40.2" stroke="#ee7655" stroke-width="6.1"/><path d="M493.1 54.4 Q499.2 61.1 504.2 68.8" stroke="#ee7655" stroke-width="6.5"/><path d="M504.2 68.8 Q509.6 74.3 516.6 77.2" stroke="#ee7655" stroke-width="6.4"/><path d="M516.6 77.2 Q517.7 82.1 520.4 86.4" stroke="#ee7655" stroke-width="6.1"/><path d="M520.4 86.4 Q523.1 89.6 525.6 93.1" stroke="#ee7655" stroke-width="6.1"/><path d="M410.6 38.8 Q423.3 29.5 430.3 15.5" stroke="#ee7655" stroke-width="7.4"/><path d="M430.3 15.5 Q438.5 3.4 440.6 -11.1" stroke="#ee7655" stroke-width="7.2"/><path d="M440.6 -11.1 Q442.2 -22.6 441.8 -34.1" stroke="#ee7655" stroke-width="6.7"/><path d="M441.8 -34.1 Q438.4 -44.3 437.6 -55.1" stroke="#ee7655" stroke-width="6.5"/><path d="M437.6 -55.1 Q438.6 -64.9 434.2 -73.7" stroke="#ee7655" stroke-width="6.4"/><path d="M434.2 -73.7 Q433.7 -81.1 436.2 -88.1" stroke="#ee7655" stroke-width="6.1"/><path d="M436.2 -88.1 Q438.8 -93.8 439.7 -99.9" stroke="#ee7655" stroke-width="6.1"/><path d="M439.7 -99.9 Q443.7 -104.2 445.8 -109.5" stroke="#ee7655" stroke-width="6.1"/><path d="M440.6 -11.1 Q448.9 -15.9 454.4 -23.7" stroke="#ee7655" stroke-width="6.7"/><path d="M454.4 -23.7 Q459.1 -30.1 462.8 -37.1" stroke="#ee7655" stroke-width="6.5"/><path d="M462.8 -37.1 Q467.9 -41.5 473.4 -45.4" stroke="#ee7655" stroke-width="6.4"/><path d="M473.4 -45.4 Q476.0 -49.3 476.2 -53.9" stroke="#ee7655" stroke-width="6.1"/><path d="M476.2 -53.9 Q479.3 -57.2 479.9 -61.5" stroke="#ee7655" stroke-width="6.1"/><path d="M479.9 -61.5 Q481.3 -65.3 481.6 -69.2" stroke="#ee7655" stroke-width="6.1"/><path d="M360.0 120.0 Q385.6 129.9 412.8 126.4" stroke="#ee7655" stroke-width="8.7"/><path d="M412.8 126.4 Q437.4 126.7 458.4 139.7" stroke="#ee7655" stroke-width="8.3"/><path d="M458.4 139.7 Q472.0 147.5 480.2 161.0" stroke="#ee7655" stroke-width="7.4"/><path d="M480.2 161.0 Q490.8 169.8 502.1 177.7" stroke="#ee7655" stroke-width="7.2"/><path d="M502.1 177.7 Q503.2 188.5 507.6 198.4" stroke="#ee7655" stroke-width="6.7"/><path d="M507.6 198.4 Q508.4 207.6 512.3 216.0" stroke="#ee7655" stroke-width="6.5"/><path d="M512.3 216.0 Q511.3 224.5 513.9 232.6" stroke="#ee7655" stroke-width="6.4"/><path d="M513.9 232.6 Q517.8 238.3 517.7 245.2" stroke="#ee7655" stroke-width="6.1"/><path d="M517.7 245.2 Q517.8 251.0 518.8 256.6" stroke="#ee7655" stroke-width="6.1"/><path d="M502.1 177.7 Q504.9 188.3 508.7 198.6" stroke="#ee7655" stroke-width="6.7"/><path d="M508.7 198.6 Q507.9 207.7 508.1 216.8" stroke="#ee7655" stroke-width="6.5"/><path d="M508.1 216.8 Q507.3 225.2 504.0 232.9" stroke="#ee7655" stroke-width="6.4"/><path d="M504.0 232.9 Q507.1 238.5 508.0 244.8" stroke="#ee7655" stroke-width="6.1"/><path d="M508.0 244.8 Q506.4 250.5 508.3 256.1" stroke="#ee7655" stroke-width="6.1"/><path d="M508.3 256.1 Q509.0 261.4 511.3 266.2" stroke="#ee7655" stroke-width="6.1"/><path d="M458.4 139.7 Q472.0 136.7 485.8 135.3" stroke="#ee7655" stroke-width="7.4"/><path d="M485.8 135.3 Q498.0 130.0 511.2 129.7" stroke="#ee7655" stroke-width="7.2"/><path d="M511.2 129.7 Q523.4 132.7 535.5 129.5" stroke="#ee7655" stroke-width="6.9"/><path d="M535.5 129.5 Q542.2 126.9 548.1 122.6" stroke="#ee7655" stroke-width="6.5"/><path d="M548.1 122.6 Q554.5 122.1 560.4 119.6" stroke="#ee7655" stroke-width="6.4"/><path d="M560.4 119.6 Q561.6 115.3 564.8 112.3" stroke="#ee7655" stroke-width="6.1"/><path d="M564.8 112.3 Q568.1 110.9 570.2 107.9" stroke="#ee7655" stroke-width="6.1"/><path d="M535.5 129.5 Q543.8 128.8 552.0 127.6" stroke="#ee7655" stroke-width="6.5"/><path d="M552.0 127.6 Q559.1 127.3 565.5 124.2" stroke="#ee7655" stroke-width="6.4"/><path d="M565.5 124.2 Q570.6 125.2 575.7 125.6" stroke="#ee7655" stroke-width="6.1"/><path d="M575.7 125.6 Q579.4 128.1 583.8 128.3" stroke="#ee7655" stroke-width="6.1"/><path d="M360.0 120.0 Q360.8 145.5 371.5 168.7" stroke="#ee7655" stroke-width="8.5"/><path d="M371.5 168.7 Q383.7 191.4 383.1 217.3" stroke="#ee7655" stroke-width="8.5"/><path d="M383.1 217.3 Q381.8 242.9 391.3 266.6" stroke="#ee7655" stroke-width="8.5"/><path d="M391.3 266.6 Q397.1 291.1 397.1 316.3" stroke="#ee7655" stroke-width="8.5"/><path d="M397.1 316.3 Q395.1 341.3 397.1 366.3" stroke="#ee7655" stroke-width="8.5"/><path d="M397.1 366.3 Q393.7 391.5 399.5 416.2" stroke="#ee7655" stroke-width="8.5"/></g><g fill="none" stroke-linecap="round" opacity="0.9"><path d="M360.0 120.0 Q384.6 135.2 404.7 156.0" stroke="#ee7655" stroke-width="3.2"/><path d="M404.7 156.0 Q423.6 172.5 446.4 183.1" stroke="#ee7655" stroke-width="2.8"/><path d="M446.4 183.1 Q462.5 194.5 481.1 201.2" stroke="#ee7655" stroke-width="1.9"/><path d="M481.1 201.2 Q495.0 211.5 511.2 217.2" stroke="#ee7655" stroke-width="1.7"/><path d="M511.2 217.2 Q514.5 229.8 524.1 238.5" stroke="#ee7655" stroke-width="1.2"/><path d="M524.1 238.5 Q528.8 248.3 531.8 258.7" stroke="#ee7655" stroke-width="1.0"/><path d="M531.8 258.7 Q532.5 266.3 530.1 273.5" stroke="#ee7655" stroke-width="0.7"/><path d="M530.1 273.5 Q527.3 279.5 526.0 285.9" stroke="#ee7655" stroke-width="0.6"/><path d="M511.2 217.2 Q522.4 222.3 533.0 228.4" stroke="#ee7655" stroke-width="1.2"/><path d="M533.0 228.4 Q541.7 234.9 548.4 243.6" stroke="#ee7655" stroke-width="1.0"/><path d="M548.4 243.6 Q556.6 247.2 564.6 251.1" stroke="#ee7655" stroke-width="0.7"/><path d="M564.6 251.1 Q571.9 253.1 579.5 254.0" stroke="#ee7655" stroke-width="0.6"/><path d="M579.5 254.0 Q585.3 256.3 591.1 258.8" stroke="#ee7655" stroke-width="0.6"/><path d="M446.4 183.1 Q463.9 183.0 478.8 192.1" stroke="#ee7655" stroke-width="1.9"/><path d="M478.8 192.1 Q493.6 194.1 508.1 190.3" stroke="#ee7655" stroke-width="1.7"/><path d="M508.1 190.3 Q520.1 196.3 533.6 197.3" stroke="#ee7655" stroke-width="1.4"/><path d="M533.6 197.3 Q540.6 206.0 550.2 211.6" stroke="#ee7655" stroke-width="1.0"/><path d="M550.2 211.6 Q559.6 213.9 568.0 218.9" stroke="#ee7655" stroke-width="0.9"/><path d="M568.0 218.9 Q575.3 223.2 582.4 228.0" stroke="#ee7655" stroke-width="0.7"/><path d="M582.4 228.0 Q588.5 228.5 594.6 228.6" stroke="#ee7655" stroke-width="0.6"/><path d="M594.6 228.6 Q599.4 226.3 604.8 226.1" stroke="#ee7655" stroke-width="0.6"/><path d="M533.6 197.3 Q543.0 198.4 551.6 194.2" stroke="#ee7655" stroke-width="1.0"/><path d="M551.6 194.2 Q560.1 194.5 568.6 194.2" stroke="#ee7655" stroke-width="0.9"/><path d="M568.6 194.2 Q576.2 194.9 583.3 192.2" stroke="#ee7655" stroke-width="0.7"/><path d="M583.3 192.2 Q586.6 188.3 590.6 185.2" stroke="#ee7655" stroke-width="0.6"/><path d="M590.6 185.2 Q594.1 182.2 598.4 180.6" stroke="#ee7655" stroke-width="0.6"/><path d="M360.0 120.0 Q383.1 131.3 408.6 127.4" stroke="#ee7655" stroke-width="3.2"/><path d="M408.6 127.4 Q429.7 121.9 450.4 129.1" stroke="#ee7655" stroke-width="2.8"/><path d="M450.4 129.1 Q469.8 132.0 488.7 137.4" stroke="#ee7655" stroke-width="2.4"/><path d="M488.7 137.4 Q504.2 141.5 517.9 149.9" stroke="#ee7655" stroke-width="1.7"/><path d="M517.9 149.9 Q526.9 161.0 538.6 169.2" stroke="#ee7655" stroke-width="1.4"/><path d="M538.6 169.2 Q546.1 178.0 556.8 182.6" stroke="#ee7655" stroke-width="1.0"/><path d="M556.8 182.6 Q562.7 190.7 570.2 197.3" stroke="#ee7655" stroke-width="0.9"/><path d="M570.2 197.3 Q576.1 201.1 580.7 206.4" stroke="#ee7655" stroke-width="0.6"/><path d="M580.7 206.4 Q587.3 207.6 592.2 212.2" stroke="#ee7655" stroke-width="0.6"/><path d="M592.2 212.2 Q596.6 216.4 602.1 218.9" stroke="#ee7655" stroke-width="0.6"/><path d="M538.6 169.2 Q549.4 172.7 557.2 181.0" stroke="#ee7655" stroke-width="1.0"/><path d="M557.2 181.0 Q566.3 184.2 575.6 186.7" stroke="#ee7655" stroke-width="0.9"/><path d="M575.6 186.7 Q579.3 192.3 585.5 194.9" stroke="#ee7655" stroke-width="0.6"/><path d="M585.5 194.9 Q590.4 198.1 596.2 199.1" stroke="#ee7655" stroke-width="0.6"/><path d="M488.7 137.4 Q498.3 146.2 506.1 156.5" stroke="#ee7655" stroke-width="1.7"/><path d="M506.1 156.5 Q512.3 167.1 520.9 175.8" stroke="#ee7655" stroke-width="1.4"/><path d="M520.9 175.8 Q531.4 179.7 538.8 188.0" stroke="#ee7655" stroke-width="1.2"/><path d="M538.8 188.0 Q547.4 189.1 556.0 187.9" stroke="#ee7655" stroke-width="0.9"/><path d="M556.0 187.9 Q563.2 190.8 571.0 190.6" stroke="#ee7655" stroke-width="0.7"/><path d="M571.0 190.6 Q577.8 191.6 584.2 194.0" stroke="#ee7655" stroke-width="0.6"/><path d="M584.2 194.0 Q589.5 195.2 594.6 193.1" stroke="#ee7655" stroke-width="0.6"/><path d="M594.6 193.1 Q599.2 192.1 603.7 190.6" stroke="#ee7655" stroke-width="0.6"/><path d="M360.0 120.0 Q376.8 99.4 389.0 75.8" stroke="#ee7655" stroke-width="3.2"/><path d="M389.0 75.8 Q402.7 55.1 420.0 37.2" stroke="#ee7655" stroke-width="2.8"/><path d="M420.0 37.2 Q437.3 20.6 444.0 -2.5" stroke="#ee7655" stroke-width="2.4"/><path d="M444.0 -2.5 Q440.8 -19.8 439.7 -37.4" stroke="#ee7655" stroke-width="1.7"/><path d="M439.7 -37.4 Q435.4 -51.3 432.5 -65.6" stroke="#ee7655" stroke-width="1.4"/><path d="M432.5 -65.6 Q424.8 -72.4 419.2 -80.9" stroke="#ee7655" stroke-width="1.0"/><path d="M419.2 -80.9 Q412.0 -87.0 406.0 -94.2" stroke="#ee7655" stroke-width="0.9"/><path d="M406.0 -94.2 Q399.5 -99.6 391.2 -101.3" stroke="#ee7655" stroke-width="0.7"/><path d="M391.2 -101.3 Q390.2 -106.7 388.1 -111.8" stroke="#ee7655" stroke-width="0.6"/><path d="M388.1 -111.8 Q386.3 -116.4 382.8 -119.8" stroke="#ee7655" stroke-width="0.6"/><path d="M382.8 -119.8 Q379.3 -122.3 377.6 -126.3" stroke="#ee7655" stroke-width="0.6"/><path d="M432.5 -65.6 Q433.3 -77.5 439.1 -88.0" stroke="#ee7655" stroke-width="1.0"/><path d="M439.1 -88.0 Q446.0 -96.9 449.0 -107.7" stroke="#ee7655" stroke-width="0.9"/><path d="M449.0 -107.7 Q456.8 -113.9 460.5 -123.2" stroke="#ee7655" stroke-width="0.7"/><path d="M460.5 -123.2 Q463.5 -130.9 470.3 -135.6" stroke="#ee7655" stroke-width="0.6"/><path d="M470.3 -135.6 Q474.0 -141.5 476.6 -148.1" stroke="#ee7655" stroke-width="0.6"/><path d="M476.6 -148.1 Q479.9 -153.6 484.5 -158.2" stroke="#ee7655" stroke-width="0.6"/><path d="M444.0 -2.5 Q461.0 -7.7 478.0 -2.6" stroke="#ee7655" stroke-width="1.7"/><path d="M478.0 -2.6 Q493.4 2.2 509.2 -1.1" stroke="#ee7655" stroke-width="1.4"/><path d="M509.2 -1.1 Q521.4 4.9 534.9 3.5" stroke="#ee7655" stroke-width="1.2"/><path d="M534.9 3.5 Q538.6 14.0 543.5 23.9" stroke="#ee7655" stroke-width="0.9"/><path d="M543.5 23.9 Q547.3 33.9 545.1 44.3" stroke="#ee7655" stroke-width="0.7"/><path d="M545.1 44.3 Q542.0 49.8 539.4 55.6" stroke="#ee7655" stroke-width="0.6"/><path d="M539.4 55.6 Q535.0 59.9 533.0 65.6" stroke="#ee7655" stroke-width="0.6"/><path d="M533.0 65.6 Q529.1 68.9 526.3 73.1" stroke="#ee7655" stroke-width="0.6"/><path d="M534.9 3.5 Q543.5 2.0 550.1 -3.7" stroke="#ee7655" stroke-width="0.9"/><path d="M550.1 -3.7 Q555.5 -9.3 563.1 -11.1" stroke="#ee7655" stroke-width="0.7"/><path d="M563.1 -11.1 Q566.8 -14.4 569.1 -18.7" stroke="#ee7655" stroke-width="0.6"/><path d="M569.1 -18.7 Q572.0 -21.8 574.7 -25.0" stroke="#ee7655" stroke-width="0.6"/><path d="M360.0 120.0 Q366.9 95.4 382.2 75.0" stroke="#ee7655" stroke-width="3.2"/><path d="M382.2 75.0 Q392.2 53.6 410.6 38.8" stroke="#ee7655" stroke-width="2.8"/><path d="M410.6 38.8 Q427.1 36.1 443.4 39.8" stroke="#ee7655" stroke-width="1.9"/><path d="M443.4 39.8 Q456.8 43.3 470.7 44.1" stroke="#ee7655" stroke-width="1.7"/><path d="M470.7 44.1 Q482.8 47.1 493.1 54.4" stroke="#ee7655" stroke-width="1.4"/><path d="M493.1 54.4 Q500.5 50.0 508.3 46.4" stroke="#ee7655" stroke-width="1.0"/><path d="M508.3 46.4 Q514.8 43.4 521.7 41.4" stroke="#ee7655" stroke-width="0.9"/><path d="M521.7 41.4 Q527.0 43.0 532.5 42.0" stroke="#ee7655" stroke-width="0.6"/><path d="M532.5 42.0 Q537.1 41.2 541.8 40.2" stroke="#ee7655" stroke-width="0.6"/><path d="M493.1 54.4 Q499.2 61.1 504.2 68.8" stroke="#ee7655" stroke-width="1.0"/><path d="M504.2 68.8 Q509.6 74.3 516.6 77.2" stroke="#ee7655" stroke-width="0.9"/><path d="M516.6 77.2 Q517.7 82.1 520.4 86.4" stroke="#ee7655" stroke-width="0.6"/><path d="M520.4 86.4 Q523.1 89.6 525.6 93.1" stroke="#ee7655" stroke-width="0.6"/><path d="M410.6 38.8 Q423.3 29.5 430.3 15.5" stroke="#ee7655" stroke-width="1.9"/><path d="M430.3 15.5 Q438.5 3.4 440.6 -11.1" stroke="#ee7655" stroke-width="1.7"/><path d="M440.6 -11.1 Q442.2 -22.6 441.8 -34.1" stroke="#ee7655" stroke-width="1.2"/><path d="M441.8 -34.1 Q438.4 -44.3 437.6 -55.1" stroke="#ee7655" stroke-width="1.0"/><path d="M437.6 -55.1 Q438.6 -64.9 434.2 -73.7" stroke="#ee7655" stroke-width="0.9"/><path d="M434.2 -73.7 Q433.7 -81.1 436.2 -88.1" stroke="#ee7655" stroke-width="0.6"/><path d="M436.2 -88.1 Q438.8 -93.8 439.7 -99.9" stroke="#ee7655" stroke-width="0.6"/><path d="M439.7 -99.9 Q443.7 -104.2 445.8 -109.5" stroke="#ee7655" stroke-width="0.6"/><path d="M440.6 -11.1 Q448.9 -15.9 454.4 -23.7" stroke="#ee7655" stroke-width="1.2"/><path d="M454.4 -23.7 Q459.1 -30.1 462.8 -37.1" stroke="#ee7655" stroke-width="1.0"/><path d="M462.8 -37.1 Q467.9 -41.5 473.4 -45.4" stroke="#ee7655" stroke-width="0.9"/><path d="M473.4 -45.4 Q476.0 -49.3 476.2 -53.9" stroke="#ee7655" stroke-width="0.6"/><path d="M476.2 -53.9 Q479.3 -57.2 479.9 -61.5" stroke="#ee7655" stroke-width="0.6"/><path d="M479.9 -61.5 Q481.3 -65.3 481.6 -69.2" stroke="#ee7655" stroke-width="0.6"/><path d="M360.0 120.0 Q385.6 129.9 412.8 126.4" stroke="#ee7655" stroke-width="3.2"/><path d="M412.8 126.4 Q437.4 126.7 458.4 139.7" stroke="#ee7655" stroke-width="2.8"/><path d="M458.4 139.7 Q472.0 147.5 480.2 161.0" stroke="#ee7655" stroke-width="1.9"/><path d="M480.2 161.0 Q490.8 169.8 502.1 177.7" stroke="#ee7655" stroke-width="1.7"/><path d="M502.1 177.7 Q503.2 188.5 507.6 198.4" stroke="#ee7655" stroke-width="1.2"/><path d="M507.6 198.4 Q508.4 207.6 512.3 216.0" stroke="#ee7655" stroke-width="1.0"/><path d="M512.3 216.0 Q511.3 224.5 513.9 232.6" stroke="#ee7655" stroke-width="0.9"/><path d="M513.9 232.6 Q517.8 238.3 517.7 245.2" stroke="#ee7655" stroke-width="0.6"/><path d="M517.7 245.2 Q517.8 251.0 518.8 256.6" stroke="#ee7655" stroke-width="0.6"/><path d="M502.1 177.7 Q504.9 188.3 508.7 198.6" stroke="#ee7655" stroke-width="1.2"/><path d="M508.7 198.6 Q507.9 207.7 508.1 216.8" stroke="#ee7655" stroke-width="1.0"/><path d="M508.1 216.8 Q507.3 225.2 504.0 232.9" stroke="#ee7655" stroke-width="0.9"/><path d="M504.0 232.9 Q507.1 238.5 508.0 244.8" stroke="#ee7655" stroke-width="0.6"/><path d="M508.0 244.8 Q506.4 250.5 508.3 256.1" stroke="#ee7655" stroke-width="0.6"/><path d="M508.3 256.1 Q509.0 261.4 511.3 266.2" stroke="#ee7655" stroke-width="0.6"/><path d="M458.4 139.7 Q472.0 136.7 485.8 135.3" stroke="#ee7655" stroke-width="1.9"/><path d="M485.8 135.3 Q498.0 130.0 511.2 129.7" stroke="#ee7655" stroke-width="1.7"/><path d="M511.2 129.7 Q523.4 132.7 535.5 129.5" stroke="#ee7655" stroke-width="1.4"/><path d="M535.5 129.5 Q542.2 126.9 548.1 122.6" stroke="#ee7655" stroke-width="1.0"/><path d="M548.1 122.6 Q554.5 122.1 560.4 119.6" stroke="#ee7655" stroke-width="0.9"/><path d="M560.4 119.6 Q561.6 115.3 564.8 112.3" stroke="#ee7655" stroke-width="0.6"/><path d="M564.8 112.3 Q568.1 110.9 570.2 107.9" stroke="#ee7655" stroke-width="0.6"/><path d="M535.5 129.5 Q543.8 128.8 552.0 127.6" stroke="#ee7655" stroke-width="1.0"/><path d="M552.0 127.6 Q559.1 127.3 565.5 124.2" stroke="#ee7655" stroke-width="0.9"/><path d="M565.5 124.2 Q570.6 125.2 575.7 125.6" stroke="#ee7655" stroke-width="0.6"/><path d="M575.7 125.6 Q579.4 128.1 583.8 128.3" stroke="#ee7655" stroke-width="0.6"/><path d="M360.0 120.0 Q360.8 145.5 371.5 168.7" stroke="#ee7655" stroke-width="3.0"/><path d="M371.5 168.7 Q383.7 191.4 383.1 217.3" stroke="#ee7655" stroke-width="3.0"/><path d="M383.1 217.3 Q381.8 242.9 391.3 266.6" stroke="#ee7655" stroke-width="3.0"/><path d="M391.3 266.6 Q397.1 291.1 397.1 316.3" stroke="#ee7655" stroke-width="3.0"/><path d="M397.1 316.3 Q395.1 341.3 397.1 366.3" stroke="#ee7655" stroke-width="3.0"/><path d="M397.1 366.3 Q393.7 391.5 399.5 416.2" stroke="#ee7655" stroke-width="3.0"/></g><circle cx="300" cy="150" r="27.3" fill="#73bfc3" opacity=".28" filter="url(#gB)"/><circle cx="300" cy="150" r="13.0" fill="#73bfc3" filter="url(#gS)"/><circle cx="300" cy="150" r="6.5" fill="#fff" opacity=".9"/><circle cx="506" cy="405" r="10.9" fill="#73bfc3" opacity=".28" filter="url(#gB)"/><circle cx="506" cy="405" r="5.2" fill="#73bfc3" filter="url(#gS)"/><circle cx="506" cy="405" r="2.6" fill="#fff" opacity=".9"/><circle cx="360" cy="120" r="23.1" fill="#ee7655" opacity=".28" filter="url(#gB)"/><circle cx="360" cy="120" r="11.0" fill="#ee7655" filter="url(#gS)"/><circle cx="360" cy="120" r="5.5" fill="#fff" opacity=".9"/><circle cx="399" cy="416" r="9.2" fill="#ee7655" opacity=".28" filter="url(#gB)"/><circle cx="399" cy="416" r="4.4" fill="#ee7655" filter="url(#gS)"/><circle cx="399" cy="416" r="2.2" fill="#fff" opacity=".9"/></svg>