<svg xmlns="http://www.w3.org/2000/svg" viewBox="0 0 800 540" role="img" aria-label="A single neuron under the microscope" preserveAspectRatio="xMidYMid slice"><defs><radialGradient id="bg" cx="50%" cy="42%" r="85%"><stop offset="0%" stop-color="#173456"/><stop offset="55%" stop-color="#0f2138"/><stop offset="100%" stop-color="#081524"/></radialGradient><filter id="gB" x="-40%" y="-40%" width="180%" height="180%"><feGaussianBlur stdDeviation="7"/></filter><filter id="gS" x="-60%" y="-60%" width="220%" height="220%"><feGaussianBlur stdDeviation="2.4"/></filter></defs><rect width="800" height="540" fill="url(#bg)"/><g filter="url(#gB)"><circle cx="192" cy="501" r="2.6" fill="#73bfc3" opacity="0.06"/><circle cx="208" cy="520" r="3.0" fill="#73bfc3" opacity="0.10"/><circle cx="364" cy="267" r="3.0" fill="#b7c79e" opacity="0.06"/><circle cx="198" cy="30" r="3.3" fill="#b7c79e" opacity="0.10"/><circle cx="712" cy="383" r="5.3" fill="#73bfc3" opacity="0.15"/><circle cx="68" cy="330" r="3.9" fill="#73bfc3" opacity="0.08"/><circle cx="545" cy="269" r="5.2" fill="#ee7655" opacity="0.11"/><circle cx="128" cy="52" r="6.7" fill="#b7c79e" opacity="0.12"/><circle cx="133" cy="450" r="4.3" fill="#f7f4ec" opacity="0.14"/><circle cx="237" cy="198" r="6.4" fill="#ee7655" opacity="0.07"/><circle cx="477" cy="286" r="3.6" fill="#f0c85a" opacity="0.14"/><circle cx="661" cy="272" r="3.0" fill="#ee7655" opacity="0.09"/><circle cx="236" cy="349" r="6.0" fill="#f7f4ec" opacity="0.14"/><circle cx="434" cy="192" r="6.5" fill="#f0c85a" opacity="0.08"/><circle cx="223" cy="232" r="3.9" fill="#b7c79e" opacity="0.07"/><circle cx="321" cy="103" r="5.3" fill="#73bfc3" opacity="0.07"/><circle cx="603" cy="170" r="2.1" fill="#b7c79e" opacity="0.08"/><circle cx="149" cy="238" r="3.2" fill="#b7c79e" opacity="0.11"/><circle cx="329" cy="60" r="2.3" fill="#73bfc3" opacity="0.05"/><circle cx="524" cy="402" r="4.6" fill="#ee7655" opacity="0.13"/><circle cx="404" cy="374" r="6.9" fill="#73bfc3" opacity="0.07"/><circle cx="714" cy="190" r="5.3" fill="#73bfc3" opacity="0.12"/><circle cx="287" cy="502" r="2.0" fill="#b7c79e" opacity="0.07"/><circle cx="685" cy="37" r="6.8" fill="#f7f4ec" opacity="0.07"/><circle cx="277" cy="236" r="2.6" fill="#ee7655" opacity="0.11"/><circle cx="398" cy="257" r="2.8" fill="#73bfc3" opacity="0.06"/><circle cx="568" cy="344" r="5.6" fill="#f7f4ec" opacity="0.12"/><circle cx="564" cy="256" r="4.0" fill="#f0c85a" opacity="0.10"/><circle cx="59" cy="44" r="2.6" fill="#ee7655" opacity="0.12"/><circle cx="558" cy="326" r="2.1" fill="#f0c85a" opacity="0.13"/></g><g fill="none" stroke-linecap="round" filter="url(#gB)" opacity="0.55"><path d="M400.0 250.0 Q416.0 270.6 440.8 278.5" stroke="#f0c85a" stroke-width="8.7"/><path d="M440.8 278.5 Q452.1 295.7 467.0 309.8" stroke="#f0c85a" stroke-width="8.3"/><path d="M467.0 309.8 Q481.8 312.1 495.3 318.7" stroke="#f0c85a" stroke-width="7.4"/><path d="M495.3 318.7 Q504.3 327.9 516.6 331.9" stroke="#f0c85a" stroke-width="7.2"/><path d="M516.6 331.9 Q526.2 338.9 538.1 340.1" stroke="#f0c85a" stroke-width="6.9"/><path d="M538.1 340.1 Q545.5 343.7 553.8 344.3" stroke="#f0c85a" stroke-width="6.5"/><path d="M553.8 344.3 Q560.7 346.1 567.9 346.2" stroke="#f0c85a" stroke-width="6.4"/><path d="M567.9 346.2 Q571.8 350.6 577.4 352.3" stroke="#f0c85a" stroke-width="6.1"/><path d="M577.4 352.3 Q582.0 352.8 586.1 355.1" stroke="#f0c85a" stroke-width="6.1"/><path d="M538.1 340.1 Q546.2 342.0 554.0 344.9" stroke="#f0c85a" stroke-width="6.5"/><path d="M554.0 344.9 Q559.4 349.6 566.5 351.0" stroke="#f0c85a" stroke-width="6.4"/><path d="M566.5 351.0 Q569.9 353.9 572.5 357.6" stroke="#f0c85a" stroke-width="6.1"/><path d="M572.5 357.6 Q575.0 360.4 577.1 363.6" stroke="#f0c85a" stroke-width="6.1"/><path d="M577.1 363.6 Q577.8 366.9 579.6 369.7" stroke="#f0c85a" stroke-width="6.1"/><path d="M400.0 250.0 Q370.7 254.8 346.1 271.3" stroke="#f0c85a" stroke-width="8.7"/><path d="M346.1 271.3 Q320.4 280.5 293.2 282.5" stroke="#f0c85a" stroke-width="8.3"/><path d="M293.2 282.5 Q271.4 274.6 248.8 279.5" stroke="#f0c85a" stroke-width="7.9"/><path d="M248.8 279.5 Q231.1 279.1 213.5 278.1" stroke="#f0c85a" stroke-width="7.2"/><path d="M213.5 278.1 Q198.9 275.3 186.1 267.8" stroke="#f0c85a" stroke-width="6.9"/><path d="M186.1 267.8 Q176.2 261.6 164.8 258.7" stroke="#f0c85a" stroke-width="6.5"/><path d="M164.8 258.7 Q153.7 257.9 144.8 251.3" stroke="#f0c85a" stroke-width="6.4"/><path d="M144.8 251.3 Q137.5 247.3 129.1 247.3" stroke="#f0c85a" stroke-width="6.1"/><path d="M129.1 247.3 Q121.6 247.2 114.2 248.6" stroke="#f0c85a" stroke-width="6.1"/><path d="M186.1 267.8 Q177.0 272.7 166.9 274.5" stroke="#f0c85a" stroke-width="6.5"/><path d="M166.9 274.5 Q159.3 280.2 149.8 280.5" stroke="#f0c85a" stroke-width="6.4"/><path d="M149.8 280.5 Q142.0 282.6 136.3 288.4" stroke="#f0c85a" stroke-width="6.2"/><path d="M136.3 288.4 Q130.4 287.3 124.4 287.9" stroke="#f0c85a" stroke-width="6.1"/><path d="M124.4 287.9 Q119.9 285.3 114.6 284.9" stroke="#f0c85a" stroke-width="6.1"/><path d="M248.8 279.5 Q233.6 273.8 217.3 273.9" stroke="#f0c85a" stroke-width="7.2"/><path d="M217.3 273.9 Q204.1 271.8 192.9 264.3" stroke="#f0c85a" stroke-width="6.9"/><path d="M192.9 264.3 Q183.5 260.8 175.8 254.3" stroke="#f0c85a" stroke-width="6.5"/><path d="M175.8 254.3 Q167.1 251.5 160.7 245.1" stroke="#f0c85a" stroke-width="6.4"/><path d="M160.7 245.1 Q153.1 242.7 147.2 237.3" stroke="#f0c85a" stroke-width="6.2"/><path d="M147.2 237.3 Q142.4 234.5 138.3 230.7" stroke="#f0c85a" stroke-width="6.1"/><path d="M138.3 230.7 Q133.4 229.0 129.6 225.6" stroke="#f0c85a" stroke-width="6.1"/><path d="M129.6 225.6 Q127.0 222.0 124.0 218.7" stroke="#f0c85a" stroke-width="6.1"/><path d="M192.9 264.3 Q188.5 256.9 181.0 252.3" stroke="#f0c85a" stroke-width="6.5"/><path d="M181.0 252.3 Q175.8 247.1 168.8 244.8" stroke="#f0c85a" stroke-width="6.4"/><path d="M168.8 244.8 Q163.5 242.3 158.4 239.2" stroke="#f0c85a" stroke-width="6.2"/><path d="M158.4 239.2 Q153.9 238.1 149.5 236.7" stroke="#f0c85a" stroke-width="6.1"/><path d="M149.5 236.7 Q145.6 235.5 141.9 234.0" stroke="#f0c85a" stroke-width="6.1"/><path d="M400.0 250.0 Q369.7 245.1 340.2 236.5" stroke="#f0c85a" stroke-width="8.7"/><path d="M340.2 236.5 Q312.6 237.9 285.4 242.2" stroke="#f0c85a" stroke-width="8.3"/><path d="M285.4 242.2 Q268.1 247.1 250.2 246.6" stroke="#f0c85a" stroke-width="7.4"/><path d="M250.2 246.6 Q234.6 247.3 219.6 251.7" stroke="#f0c85a" stroke-width="7.2"/><path d="M219.6 251.7 Q206.6 256.0 194.8 263.1" stroke="#f0c85a" stroke-width="6.9"/><path d="M194.8 263.1 Q188.0 271.0 178.9 276.0" stroke="#f0c85a" stroke-width="6.5"/><path d="M178.9 276.0 Q171.3 280.2 163.7 284.4" stroke="#f0c85a" stroke-width="6.4"/><path d="M163.7 284.4 Q156.0 286.4 149.1 290.0" stroke="#f0c85a" stroke-width="6.2"/><path d="M149.1 290.0 Q143.9 288.0 139.6 284.6" stroke="#f0c85a" stroke-width="6.1"/><path d="M139.6 284.6 Q135.4 282.3 130.8 281.1" stroke="#f0c85a" stroke-width="6.1"/><path d="M285.4 242.2 Q267.2 244.7 248.9 246.6" stroke="#f0c85a" stroke-width="7.4"/><path d="M248.9 246.6 Q234.9 255.2 218.9 258.9" stroke="#f0c85a" stroke-width="7.2"/><path d="M218.9 258.9 Q210.9 265.8 202.6 272.4" stroke="#f0c85a" stroke-width="6.7"/><path d="M202.6 272.4 Q194.5 277.5 188.9 285.4" stroke="#f0c85a" stroke-width="6.5"/><path d="M188.9 285.4 Q182.1 291.0 174.1 294.8" stroke="#f0c85a" stroke-width="6.4"/><path d="M174.1 294.8 Q168.3 296.8 162.2 295.8" stroke="#f0c85a" stroke-width="6.1"/><path d="M162.2 295.8 Q157.0 296.5 152.0 295.5" stroke="#f0c85a" stroke-width="6.1"/><path d="M152.0 295.5 Q147.4 296.1 143.1 297.8" stroke="#f0c85a" stroke-width="6.1"/><path d="M400.0 250.0 Q378.7 231.0 351.4 222.7" stroke="#f0c85a" stroke-width="8.7"/><path d="M351.4 222.7 Q331.5 207.3 306.8 202.6" stroke="#f0c85a" stroke-width="8.3"/><path d="M306.8 202.6 Q303.2 182.5 292.1 165.3" stroke="#f0c85a" stroke-width="7.4"/><path d="M292.1 165.3 Q286.2 149.6 286.0 132.8" stroke="#f0c85a" stroke-width="7.2"/><path d="M286.0 132.8 Q282.5 118.9 278.6 105.2" stroke="#f0c85a" stroke-width="6.9"/><path d="M278.6 105.2 Q277.4 94.9 271.2 86.6" stroke="#f0c85a" stroke-width="6.5"/><path d="M271.2 86.6 Q269.7 77.9 267.5 69.3" stroke="#f0c85a" stroke-width="6.4"/><path d="M267.5 69.3 Q267.8 61.8 266.5 54.4" stroke="#f0c85a" stroke-width="6.2"/><path d="M266.5 54.4 Q262.6 52.2 259.1 49.4" stroke="#f0c85a" stroke-width="6.1"/><path d="M259.1 49.4 Q256.1 46.7 253.6 43.5" stroke="#f0c85a" stroke-width="6.1"/><path d="M278.6 105.2 Q270.4 100.5 264.0 93.6" stroke="#f0c85a" stroke-width="6.5"/><path d="M264.0 93.6 Q257.4 88.7 251.2 83.3" stroke="#f0c85a" stroke-width="6.4"/><path d="M251.2 83.3 Q244.7 81.3 238.3 78.9" stroke="#f0c85a" stroke-width="6.2"/><path d="M238.3 78.9 Q233.7 79.7 229.1 79.9" stroke="#f0c85a" stroke-width="6.1"/><path d="M229.1 79.9 Q225.2 78.5 221.2 79.5" stroke="#f0c85a" stroke-width="6.1"/><path d="M306.8 202.6 Q295.4 188.6 283.2 175.2" stroke="#f0c85a" stroke-width="7.4"/><path d="M283.2 175.2 Q277.6 160.5 270.7 146.3" stroke="#f0c85a" stroke-width="7.2"/><path d="M270.7 146.3 Q275.1 134.5 279.1 122.6" stroke="#f0c85a" stroke-width="6.7"/><path d="M279.1 122.6 Q278.6 112.0 282.6 102.2" stroke="#f0c85a" stroke-width="6.5"/><path d="M282.6 102.2 Q280.2 92.5 283.0 82.9" stroke="#f0c85a" stroke-width="6.4"/><path d="M283.0 82.9 Q288.5 79.6 293.5 75.4" stroke="#f0c85a" stroke-width="6.1"/><path d="M293.5 75.4 Q299.1 75.2 303.8 72.0" stroke="#f0c85a" stroke-width="6.1"/><path d="M270.7 146.3 Q263.3 136.4 255.1 127.1" stroke="#f0c85a" stroke-width="6.7"/><path d="M255.1 127.1 Q246.2 121.4 237.2 116.0" stroke="#f0c85a" stroke-width="6.5"/><path d="M237.2 116.0 Q228.0 111.5 222.7 102.8" stroke="#f0c85a" stroke-width="6.4"/><path d="M222.7 102.8 Q218.0 97.2 216.0 90.1" stroke="#f0c85a" stroke-width="6.1"/><path d="M216.0 90.1 Q212.5 84.3 208.7 78.9" stroke="#f0c85a" stroke-width="6.1"/><path d="M208.7 78.9 Q206.8 72.9 201.8 69.0" stroke="#f0c85a" stroke-width="6.1"/><path d="M400.0 250.0 Q379.6 227.4 350.1 220.2" stroke="#f0c85a" stroke-width="8.7"/><path d="M350.1 220.2 Q336.0 198.1 312.5 186.6" stroke="#f0c85a" stroke-width="8.3"/><path d="M312.5 186.6 Q294.3 174.2 273.8 166.4" stroke="#f0c85a" stroke-width="7.9"/><path d="M273.8 166.4 Q261.5 175.4 246.3 177.0" stroke="#f0c85a" stroke-width="7.2"/><path d="M246.3 177.0 Q235.3 183.7 226.7 193.2" stroke="#f0c85a" stroke-width="6.9"/><path d="M226.7 193.2 Q217.1 199.8 209.8 208.8" stroke="#f0c85a" stroke-width="6.7"/><path d="M209.8 208.8 Q205.6 216.3 198.2 220.9" stroke="#f0c85a" stroke-width="6.4"/><path d="M198.2 220.9 Q192.0 225.8 184.3 228.0" stroke="#f0c85a" stroke-width="6.2"/><path d="M184.3 228.0 Q179.0 225.0 173.2 223.6" stroke="#f0c85a" stroke-width="6.1"/><path d="M173.2 223.6 Q169.7 219.6 165.1 217.2" stroke="#f0c85a" stroke-width="6.1"/><path d="M209.8 208.8 Q203.4 212.8 198.8 218.9" stroke="#f0c85a" stroke-width="6.4"/><path d="M198.8 218.9 Q193.5 222.8 190.5 228.6" stroke="#f0c85a" stroke-width="6.2"/><path d="M190.5 228.6 Q188.5 232.5 185.2 235.4" stroke="#f0c85a" stroke-width="6.1"/><path d="M185.2 235.4 Q182.1 237.5 180.1 240.7" stroke="#f0c85a" stroke-width="6.1"/><path d="M180.1 240.7 Q178.0 243.1 175.2 244.8" stroke="#f0c85a" stroke-width="6.1"/><path d="M273.8 166.4 Q265.8 154.8 262.1 141.3" stroke="#f0c85a" stroke-width="7.2"/><path d="M262.1 141.3 Q256.4 129.6 258.2 116.7" stroke="#f0c85a" stroke-width="6.9"/><path d="M258.2 116.7 Q256.2 106.1 250.0 97.3" stroke="#f0c85a" stroke-width="6.7"/><path d="M250.0 97.3 Q251.6 88.7 249.3 80.2" stroke="#f0c85a" stroke-width="6.4"/><path d="M249.3 80.2 Q251.8 73.6 253.5 66.6" stroke="#f0c85a" stroke-width="6.2"/><path d="M253.5 66.6 Q253.9 60.0 254.2 53.4" stroke="#f0c85a" stroke-width="6.1"/><path d="M254.2 53.4 Q257.3 49.3 259.8 44.7" stroke="#f0c85a" stroke-width="6.1"/><path d="M259.8 44.7 Q260.7 39.8 263.3 35.7" stroke="#f0c85a" stroke-width="6.1"/><path d="M250.0 97.3 Q252.2 90.8 251.9 84.0" stroke="#f0c85a" stroke-width="6.4"/><path d="M251.9 84.0 Q253.0 78.0 256.7 73.1" stroke="#f0c85a" stroke-width="6.2"/><path d="M256.7 73.1 Q259.3 68.7 259.2 63.6" stroke="#f0c85a" stroke-width="6.1"/><path d="M259.2 63.6 Q261.1 60.8 263.5 58.4" stroke="#f0c85a" stroke-width="6.1"/><path d="M263.5 58.4 Q264.0 55.5 265.9 53.3" stroke="#f0c85a" stroke-width="6.1"/><path d="M400.0 250.0 Q423.9 268.0 452.4 277.4" stroke="#f0c85a" stroke-width="8.7"/><path d="M452.4 277.4 Q470.7 294.3 489.1 311.0" stroke="#f0c85a" stroke-width="8.3"/><path d="M489.1 311.0 Q505.8 315.1 522.0 309.5" stroke="#f0c85a" stroke-width="7.4"/><path d="M522.0 309.5 Q536.9 305.7 551.7 310.1" stroke="#f0c85a" stroke-width="7.2"/><path d="M551.7 310.1 Q561.9 311.6 571.5 315.6" stroke="#f0c85a" stroke-width="6.7"/><path d="M571.5 315.6 Q580.4 317.5 589.6 317.9" stroke="#f0c85a" stroke-width="6.5"/><path d="M589.6 317.9 Q596.4 317.3 603.2 318.0" stroke="#f0c85a" stroke-width="6.2"/><path d="M603.2 318.0 Q609.0 318.6 615.0 318.5" stroke="#f0c85a" stroke-width="6.1"/><path d="M615.0 318.5 Q620.3 318.3 625.3 320.1" stroke="#f0c85a" stroke-width="6.1"/><path d="M551.7 310.1 Q561.3 304.5 571.5 300.1" stroke="#f0c85a" stroke-width="6.7"/><path d="M571.5 300.1 Q581.1 299.7 590.1 296.7" stroke="#f0c85a" stroke-width="6.5"/><path d="M590.1 296.7 Q596.3 296.4 602.0 294.0" stroke="#f0c85a" stroke-width="6.2"/><path d="M602.0 294.0 Q607.6 295.4 613.3 293.9" stroke="#f0c85a" stroke-width="6.1"/><path d="M489.1 311.0 Q491.5 331.2 503.8 347.4" stroke="#f0c85a" stroke-width="7.4"/><path d="M503.8 347.4 Q510.4 363.5 522.6 376.1" stroke="#f0c85a" stroke-width="7.2"/><path d="M522.6 376.1 Q531.6 387.3 543.7 395.3" stroke="#f0c85a" stroke-width="6.9"/><path d="M543.7 395.3 Q551.7 398.5 560.4 398.8" stroke="#f0c85a" stroke-width="6.5"/><path d="M560.4 398.8 Q566.5 403.2 574.0 404.2" stroke="#f0c85a" stroke-width="6.4"/><path d="M574.0 404.2 Q580.7 406.1 587.5 404.8" stroke="#f0c85a" stroke-width="6.2"/><path d="M587.5 404.8 Q592.8 403.8 598.0 402.5" stroke="#f0c85a" stroke-width="6.1"/><path d="M598.0 402.5 Q603.0 402.2 608.0 401.6" stroke="#f0c85a" stroke-width="6.1"/><path d="M543.7 395.3 Q553.8 397.3 563.9 394.8" stroke="#f0c85a" stroke-width="6.5"/><path d="M563.9 394.8 Q572.3 396.2 580.5 394.0" stroke="#f0c85a" stroke-width="6.4"/><path d="M580.5 394.0 Q588.5 393.2 595.7 396.7" stroke="#f0c85a" stroke-width="6.2"/><path d="M595.7 396.7 Q600.3 399.2 605.1 401.3" stroke="#f0c85a" stroke-width="6.1"/><path d="M605.1 401.3 Q608.1 405.3 612.7 407.4" stroke="#f0c85a" stroke-width="6.1"/><path d="M612.7 407.4 Q617.0 408.4 620.1 411.6" stroke="#f0c85a" stroke-width="6.1"/><path d="M400.0 250.0 Q378.6 230.3 350.3 223.4" stroke="#f0c85a" stroke-width="8.7"/><path d="M350.3 223.4 Q324.9 220.6 299.8 216.0" stroke="#f0c85a" stroke-width="8.3"/><path d="M299.8 216.0 Q280.2 221.0 260.6 215.7" stroke="#f0c85a" stroke-width="7.4"/><path d="M260.6 215.7 Q243.3 210.7 226.0 205.9" stroke="#f0c85a" stroke-width="7.2"/><path d="M226.0 205.9 Q213.8 205.1 201.6 204.2" stroke="#f0c85a" stroke-width="6.7"/><path d="M201.6 204.2 Q190.7 206.1 179.7 206.1" stroke="#f0c85a" stroke-width="6.5"/><path d="M179.7 206.1 Q172.5 204.6 165.1 203.8" stroke="#f0c85a" stroke-width="6.2"/><path d="M165.1 203.8 Q159.0 205.3 152.7 205.0" stroke="#f0c85a" stroke-width="6.1"/><path d="M226.0 205.9 Q220.0 193.4 218.6 179.6" stroke="#f0c85a" stroke-width="6.7"/><path d="M218.6 179.6 Q217.3 167.3 215.8 155.1" stroke="#f0c85a" stroke-width="6.5"/><path d="M215.8 155.1 Q217.8 144.1 214.9 133.3" stroke="#f0c85a" stroke-width="6.4"/><path d="M214.9 133.3 Q213.5 126.4 215.0 119.6" stroke="#f0c85a" stroke-width="6.1"/><path d="M215.0 119.6 Q216.6 113.8 214.8 108.1" stroke="#f0c85a" stroke-width="6.1"/><path d="M299.8 216.0 Q281.5 222.3 264.1 231.1" stroke="#f0c85a" stroke-width="7.4"/><path d="M264.1 231.1 Q248.4 236.6 235.4 246.8" stroke="#f0c85a" stroke-width="7.2"/><path d="M235.4 246.8 Q226.1 251.4 219.3 259.2" stroke="#f0c85a" stroke-width="6.7"/><path d="M219.3 259.2 Q210.9 263.2 202.8 267.9" stroke="#f0c85a" stroke-width="6.5"/><path d="M202.8 267.9 Q195.9 270.4 191.5 276.2" stroke="#f0c85a" stroke-width="6.2"/><path d="M191.5 276.2 Q186.3 280.6 183.8 286.9" stroke="#f0c85a" stroke-width="6.1"/><path d="M235.4 246.8 Q225.7 252.8 221.2 263.3" stroke="#f0c85a" stroke-width="6.7"/><path d="M221.2 263.3 Q216.9 272.9 208.0 278.6" stroke="#f0c85a" stroke-width="6.5"/><path d="M208.0 278.6 Q204.1 286.7 197.6 292.9" stroke="#f0c85a" stroke-width="6.4"/><path d="M197.6 292.9 Q191.5 295.4 185.3 297.9" stroke="#f0c85a" stroke-width="6.1"/><path d="M185.3 297.9 Q179.4 296.7 173.6 298.3" stroke="#f0c85a" stroke-width="6.1"/></g><g fill="none" stroke-linecap="round" opacity="0.9"><path d="M400.0 250.0 Q416.0 270.6 440.8 278.5" stroke="#f0c85a" stroke-width="3.2"/><path d="M440.8 278.5 Q452.1 295.7 467.0 309.8" stroke="#f0c85a" stroke-width="2.8"/><path d="M467.0 309.8 Q481.8 312.1 495.3 318.7" stroke="#f0c85a" stroke-width="1.9"/><path d="M495.3 318.7 Q504.3 327.9 516.6 331.9" stroke="#f0c85a" stroke-width="1.7"/><path d="M516.6 331.9 Q526.2 338.9 538.1 340.1" stroke="#f0c85a" stroke-width="1.4"/><path d="M538.1 340.1 Q545.5 343.7 553.8 344.3" stroke="#f0c85a" stroke-width="1.0"/><path d="M553.8 344.3 Q560.7 346.1 567.9 346.2" stroke="#f0c85a" stroke-width="0.9"/><path d="M567.9 346.2 Q571.8 350.6 577.4 352.3" stroke="#f0c85a" stroke-width="0.6"/><path d="M577.4 352.3 Q582.0 352.8 586.1 355.1" stroke="#f0c85a" stroke-width="0.6"/><path d="M538.1 340.1 Q546.2 342.0 554.0 344.9" stroke="#f0c85a" stroke-width="1.0"/><path d="M554.0 344.9 Q559.4 349.6 566.5 351.0" stroke="#f0c85a" stroke-width="0.9"/><path d="M566.5 351.0 Q569.9 353.9 572.5 357.6" stroke="#f0c85a" stroke-width="0.6"/><path d="M572.5 357.6 Q575.0 360.4 577.1 363.6" stroke="#f0c85a" stroke-width="0.6"/><path d="M577.1 363.6 Q577.8 366.9 579.6 369.7" stroke="#f0c85a" stroke-width="0.6"/><path d="M400.0 250.0 Q370.7 254.8 346.1 271.3" stroke="#f0c85a" stroke-width="3.2"/><path d="M346.1 271.3 Q320.4 280.5 293.2 282.5" stroke="#f0c85a" stroke-width="2.8"/><path d="M293.2 282.5 Q271.4 274.6 248.8 279.5" stroke="#f0c85a" stroke-width="2.4"/><path d="M248.8 279.5 Q231.1 279.1 213.5 278.1" stroke="#f0c85a" stroke-width="1.7"/><path d="M213.5 278.1 Q198.9 275.3 186.1 267.8" stroke="#f0c85a" stroke-width="1.4"/><path d="M186.1 267.8 Q176.2 261.6 164.8 258.7" stroke="#f0c85a" stroke-width="1.0"/><path d="M164.8 258.7 Q153.7 257.9 144.8 251.3" stroke="#f0c85a" stroke-width="0.9"/><path d="M144.8 251.3 Q137.5 247.3 129.1 247.3" stroke="#f0c85a" stroke-width="0.6"/><path d="M129.1 247.3 Q121.6 247.2 114.2 248.6" stroke="#f0c85a" stroke-width="0.6"/><path d="M186.1 267.8 Q177.0 272.7 166.9 274.5" stroke="#f0c85a" stroke-width="1.0"/><path d="M166.9 274.5 Q159.3 280.2 149.8 280.5" stroke="#f0c85a" stroke-width="0.9"/><path d="M149.8 280.5 Q142.0 282.6 136.3 288.4" stroke="#f0c85a" stroke-width="0.7"/><path d="M136.3 288.4 Q130.4 287.3 124.4 287.9" stroke="#f0c85a" stroke-width="0.6"/><path d="M124.4 287.9 Q119.9 285.3 114.6 284.9" stroke="#f0c85a" stroke-width="0.6"/><path d="M248.8 279.5 Q233.6 273.8 217.3 273.9" stroke="#f0c85a" stroke-width="1.7"/><path d="M217.3 273.9 Q204.1 271.8 192.9 264.3" stroke="#f0c85a" stroke-width="1.4"/><path d="M192.9 264.3 Q183.5 260.8 175.8 254.3" stroke="#f0c85a" stroke-width="1.0"/><path d="M175.8 254.3 Q167.1 251.5 160.7 245.1" stroke="#f0c85a" stroke-width="0.9"/><path d="M160.7 245.1 Q153.1 242.7 147.2 237.3" stroke="#f0c85a" stroke-width="0.7"/><path d="M147.2 237.3 Q142.4 234.5 138.3 230.7" stroke="#f0c85a" stroke-width="0.6"/><path d="M138.3 230.7 Q133.4 229.0 129.6 225.6" stroke="#f0c85a" stroke-width="0.6"/><path d="M129.6 225.6 Q127.0 222.0 124.0 218.7" stroke="#f0c85a" stroke-width="0.6"/><path d="M192.9 264.3 Q188.5 256.9 181.0 252.3" stroke="#f0c85a" stroke-width="1.0"/><path d="M181.0 252.3 Q175.8 247.1 168.8 244.8" stroke="#f0c85a" stroke-width="0.9"/><path d="M168.8 244.8 Q163.5 242.3 158.4 239.2" stroke="#f0c85a" stroke-width="0.7"/><path d="M158.4 239.2 Q153.9 238.1 149.5 236.7" stroke="#f0c85a" stroke-width="0.6"/><path d="M149.5 236.7 Q145.6 235.5 141.9 234.0" stroke="#f0c85a" stroke-width="0.6"/><path d="M400.0 250.0 Q369.7 245.1 340.2 236.5" stroke="#f0c85a" stroke-width="3.2"/><path d="M340.2 236.5 Q312.6 237.9 285.4 242.2" stroke="#f0c85a" stroke-width="2.8"/><path d="M285.4 242.2 Q268.1 247.1 250.2 246.6" stroke="#f0c85a" stroke-width="1.9"/><path d="M250.2 246.6 Q234.6 247.3 219.6 251.7" stroke="#f0c85a" stroke-width="1.7"/><path d="M219.6 251.7 Q206.6 256.0 194.8 263.1" stroke="#f0c85a" stroke-width="1.4"/><path d="M194.8 263.1 Q188.0 271.0 178.9 276.0" stroke="#f0c85a" stroke-width="1.0"/><path d="M178.9 276.0 Q171.3 280.2 163.7 284.4" stroke="#f0c85a" stroke-width="0.9"/><path d="M163.7 284.4 Q156.0 286.4 149.1 290.0" stroke="#f0c85a" stroke-width="0.7"/><path d="M149.1 290.0 Q143.9 288.0 139.6 284.6" stroke="#f0c85a" stroke-width="0.6"/><path d="M139.6 284.6 Q135.4 282.3 130.8 281.1" stroke="#f0c85a" stroke-width="0.6"/><path d="M285.4 242.2 Q267.2 244.7 248.9 246.6" stroke="#f0c85a" stroke-width="1.9"/><path d="M248.9 246.6 Q234.9 255.2 218.9 258.9" stroke="#f0c85a" stroke-width="1.7"/><path d="M218.9 258.9 Q210.9 265.8 202.6 272.4" stroke="#f0c85a" stroke-width="1.2"/><path d="M202.6 272.4 Q194.5 277.5 188.9 285.4" stroke="#f0c85a" stroke-width="1.0"/><path d="M188.9 285.4 Q182.1 291.0 174.1 294.8" stroke="#f0c85a" stroke-width="0.9"/><path d="M174.1 294.8 Q168.3 296.8 162.2 295.8" stroke="#f0c85a" stroke-width="0.6"/><path d="M162.2 295.8 Q157.0 296.5 152.0 295.5" stroke="#f0c85a" stroke-width="0.6"/><path d="M152.0 295.5 Q147.4 296.1 143.1 297.8" stroke="#f0c85a" stroke-width="0.6"/><path d="M400.0 250.0 Q378.7 231.0 351.4 222.7" stroke="#f0c85a" stroke-width="3.2"/><path d="M351.4 222.7 Q331.5 207.3 306.8 202.6" stroke="#f0c85a" stroke-width="2.8"/><path d="M306.8 202.6 Q303.2 182.5 292.1 165.3" stroke="#f0c85a" stroke-width="1.9"/><path d="M292.1 165.3 Q286.2 149.6 286.0 132.8" stroke="#f0c85a" stroke-width="1.7"/><path d="M286.0 132.8 Q282.5 118.9 278.6 105.2" stroke="#f0c85a" stroke-width="1.4"/><path d="M278.6 105.2 Q277.4 94.9 271.2 86.6" stroke="#f0c85a" stroke-width="1.0"/><path d="M271.2 86.6 Q269.7 77.9 267.5 69.3" stroke="#f0c85a" stroke-width="0.9"/><path d="M267.5 69.3 Q267.8 61.8 266.5 54.4" stroke="#f0c85a" stroke-width="0.7"/><path d="M266.5 54.4 Q262.6 52.2 259.1 49.4" stroke="#f0c85a" stroke-width="0.6"/><path d="M259.1 49.4 Q256.1 46.7 253.6 43.5" stroke="#f0c85a" stroke-width="0.6"/><path d="M278.6 105.2 Q270.4 100.5 264.0 93.6" stroke="#f0c85a" stroke-width="1.0"/><path d="M264.0 93.6 Q257.4 88.7 251.2 83.3" stroke="#f0c85a" stroke-width="0.9"/><path d="M251.2 83.3 Q244.7 81.3 238.3 78.9" stroke="#f0c85a" stroke-width="0.7"/><path d="M238.3 78.9 Q233.7 79.7 229.1 79.9" stroke="#f0c85a" stroke-width="0.6"/><path d="M229.1 79.9 Q225.2 78.5 221.2 79.5" stroke="#f0c85a" stroke-width="0.6"/><path d="M306.8 202.6 Q295.4 188.6 283.2 175.2" stroke="#f0c85a" stroke-width="1.9"/><path d="M283.2 175.2 Q277.6 160.5 270.7 146.3" stroke="#f0c85a" stroke-width="1.7"/><path d="M270.7 146.3 Q275.1 134.5 279.1 122.6" stroke="#f0c85a" stroke-width="1.2"/><path d="M279.1 122.6 Q278.6 112.0 282.6 102.2" stroke="#f0c85a" stroke-width="1.0"/><path d="M282.6 102.2 Q280.2 92.5 283.0 82.9" stroke="#f0c85a" stroke-width="0.9"/><path d="M283.0 82.9 Q288.5 79.6 293.5 75.4" stroke="#f0c85a" stroke-width="0.6"/><path d="M293.5 75.4 Q299.1 75.2 303.8 72.0" stroke="#f0c85a" stroke-width="0.6"/><path d="M270.7 146.3 Q263.3 136.4 255.1 127.1" stroke="#f0c85a" stroke-width="1.2"/><path d="M255.1 127.1 Q246.2 121.4 237.2 116.0" stroke="#f0c85a" stroke-width="1.0"/><path d="M237.2 116.0 Q228.0 111.5 222.7 102.8" stroke="#f0c85a" stroke-width="0.9"/><path d="M222.7 102.8 Q218.0 97.2 216.0 90.1" stroke="#f0c85a" stroke-width="0.6"/><path d="M216.0 90.1 Q212.5 84.3 208.7 78.9" stroke="#f0c85a" stroke-width="0.6"/><path d="M208.7 78.9 Q206.8 72.9 201.8 69.0" stroke="#f0c85a" stroke-width="0.6"/><path d="M400.0 250.0 Q379.6 227.4 350.1 220.2" stroke="#f0c85a" stroke-width="3.2"/><path d="M350.1 220.2 Q336.0 198.1 312.5 186.6" stroke="#f0c85a" stroke-width="2.8"/><path d="M312.5 186.6 Q294.3 174.2 273.8 166.4" stroke="#f0c85a" stroke-width="2.4"/><path d="M273.8 166.4 Q261.5 175.4 246.3 177.0" stroke="#f0c85a" stroke-width="1.7"/><path d="M246.3 177.0 Q235.3 183.7 226.7 193.2" stroke="#f0c85a" stroke-width="1.4"/><path d="M226.7 193.2 Q217.1 199.8 209.8 208.8" stroke="#f0c85a" stroke-width="1.2"/><path d="M209.8 208.8 Q205.6 216.3 198.2 220.9" stroke="#f0c85a" stroke-width="0.9"/><path d="M198.2 220.9 Q192.0 225.8 184.3 228.0" stroke="#f0c85a" stroke-width="0.7"/><path d="M184.3 228.0 Q179.0 225.0 173.2 223.6" stroke="#f0c85a" stroke-width="0.6"/><path d="M173.2 223.6 Q169.7 219.6 165.1 217.2" stroke="#f0c85a" stroke-width="0.6"/><path d="M209.8 208.8 Q203.4 212.8 198.8 218.9" stroke="#f0c85a" stroke-width="0.9"/><path d="M198.8 218.9 Q193.5 222.8 190.5 228.6" stroke="#f0c85a" stroke-width="0.7"/><path d="M190.5 228.6 Q188.5 232.5 185.2 235.4" stroke="#f0c85a" stroke-width="0.6"/><path d="M185.2 235.4 Q182.1 237.5 180.1 240.7" stroke="#f0c85a" stroke-width="0.6"/><path d="M180.1 240.7 Q178.0 243.1 175.2 244.8" stroke="#f0c85a" stroke-width="0.6"/><path d="M273.8 166.4 Q265.8 154.8 262.1 141.3" stroke="#f0c85a" stroke-width="1.7"/><path d="M262.1 141.3 Q256.4 129.6 258.2 116.7" stroke="#f0c85a" stroke-width="1.4"/><path d="M258.2 116.7 Q256.2 106.1 250.0 97.3" stroke="#f0c85a" stroke-width="1.2"/><path d="M250.0 97.3 Q251.6 88.7 249.3 80.2" stroke="#f0c85a" stroke-width="0.9"/><path d="M249.3 80.2 Q251.8 73.6 253.5 66.6" stroke="#f0c85a" stroke-width="0.7"/><path d="M253.5 66.6 Q253.9 60.0 254.2 53.4" stroke="#f0c85a" stroke-width="0.6"/><path d="M254.2 53.4 Q257.3 49.3 259.8 44.7" stroke="#f0c85a" stroke-width="0.6"/><path d="M259.8 44.7 Q260.7 39.8 263.3 35.7" stroke="#f0c85a" stroke-width="0.6"/><path d="M250.0 97.3 Q252.2 90.8 251.9 84.0" stroke="#f0c85a" stroke-width="0.9"/><path d="M251.9 84.0 Q253.0 78.0 256.7 73.1" stroke="#f0c85a" stroke-width="0.7"/><path d="M256.7 73.1 Q259.3 68.7 259.2 63.6" stroke="#f0c85a" stroke-width="0.6"/><path d="M259.2 63.6 Q261.1 60.8 263.5 58.4" stroke="#f0c85a" stroke-width="0.6"/><path d="M263.5 58.4 Q264.0 55.5 265.9 53.3" stroke="#f0c85a" stroke-width="0.6"/><path d="M400.0 250.0 Q423.9 268.0 452.4 277.4" stroke="#f0c85a" stroke-width="3.2"/><path d="M452.4 277.4 Q470.7 294.3 489.1 311.0" stroke="#f0c85a" stroke-width="2.8"/><path d="M489.1 311.0 Q505.8 315.1 522.0 309.5" stroke="#f0c85a" stroke-width="1.9"/><path d="M522.0 309.5 Q536.9 305.7 551.7 310.1" stroke="#f0c85a" stroke-width="1.7"/><path d="M551.7 310.1 Q561.9 311.6 571.5 315.6" stroke="#f0c85a" stroke-width="1.2"/><path d="M571.5 315.6 Q580.4 317.5 589.6 317.9" stroke="#f0c85a" stroke-width="1.0"/><path d="M589.6 317.9 Q596.4 317.3 603.2 318.0" stroke="#f0c85a" stroke-width="0.7"/><path d="M603.2 318.0 Q609.0 318.6 615.0 318.5" stroke="#f0c85a" stroke-width="0.6"/><path d="M615.0 318.5 Q620.3 318.3 625.3 320.1" stroke="#f0c85a" stroke-width="0.6"/><path d="M551.7 310.1 Q561.3 304.5 571.5 300.1" stroke="#f0c85a" stroke-width="1.2"/><path d="M571.5 300.1 Q581.1 299.7 590.1 296.7" stroke="#f0c85a" stroke-width="1.0"/><path d="M590.1 296.7 Q596.3 296.4 602.0 294.0" stroke="#f0c85a" stroke-width="0.7"/><path d="M602.0 294.0 Q607.6 295.4 613.3 293.9" stroke="#f0c85a" stroke-width="0.6"/><path d="M489.1 311.0 Q491.5 331.2 503.8 347.4" stroke="#f0c85a" stroke-width="1.9"/><path d="M503.8 347.4 Q510.4 363.5 522.6 376.1" stroke="#f0c85a" stroke-width="1.7"/><path d="M522.6 376.1 Q531.6 387.3 543.7 395.3" stroke="#f0c85a" stroke-width="1.4"/><path d="M543.7 395.3 Q551.7 398.5 560.4 398.8" stroke="#f0c85a" stroke-width="1.0"/><path d="M560.4 398.8 Q566.5 403.2 574.0 404.2" stroke="#f0c85a" stroke-width="0.9"/><path d="M574.0 404.2 Q580.7 406.1 587.5 404.8" stroke="#f0c85a" stroke-width="0.7"/><path d="M587.5 404.8 Q592.8 403.8 598.0 402.5" stroke="#f0c85a" stroke-width="0.6"/><path d="M598.0 402.5 Q603.0 402.2 608.0 401.6" stroke="#f0c85a" stroke-width="0.6"/><path d="M543.7 395.3 Q553.8 397.3 563.9 394.8" stroke="#f0c85a" stroke-width="1.0"/><path d="M563.9 394.8 Q572.3 396.2 580.5 394.0" stroke="#f0c85a" stroke-width="0.9"/><path d="M580.5 394.0 Q588.5 393.2 595.7 396.7" stroke="#f0c85a" stroke-width="0.7"/><path d="M595.7 396.7 Q600.3 399.2 605.1 401.3" stroke="#f0c85a" stroke-width="0.6"/><path d="M605.1 401.3 Q608.1 405.3 612.7 407.4" stroke="#f0c85a" stroke-width="0.6"/><path d="M612.7 407.4 Q617.0 408.4 620.1 411.6" stroke="#f0c85a" stroke-width="0.6"/><path d="M400.0 250.0 Q378.6 230.3 350.3 223.4" stroke="#f0c85a" stroke-width="3.2"/><path d="M350.3 223.4 Q324.9 220.6 299.8 216.0" stroke="#f0c85a" stroke-width="2.8"/><path d="M299.8 216.0 Q280.2 221.0 260.6 215.7" stroke="#f0c85a" stroke-width="1.9"/><path d="M260.6 215.7 Q243.3 210.7 226.0 205.9" stroke="#f0c85a" stroke-width="1.7"/><path d="M226.0 205.9 Q213.8 205.1 201.6 204.2" stroke="#f0c85a" stroke-width="1.2"/><path d="M201.6 204.2 Q190.7 206.1 179.7 206.1" stroke="#f0c85a" stroke-width="1.0"/><path d="M179.7 206.1 Q172.5 204.6 165.1 203.8" stroke="#f0c85a" stroke-width="0.7"/><path d="M165.1 203.8 Q159.0 205.3 152.7 205.0" stroke="#f0c85a" stroke-width="0.6"/><path d="M226.0 205.9 Q220.0 193.4 218.6 179.6" stroke="#f0c85a" stroke-width="1.2"/><path d="M218.6 179.6 Q217.3 167.3 215.8 155.1" stroke="#f0c85a" stroke-width="1.0"/><path d="M215.8 155.1 Q217.8 144.1 214.9 133.3" stroke="#f0c85a" stroke-width="0.9"/><path d="M214.9 133.3 Q213.5 126.4 215.0 119.6" stroke="#f0c85a" stroke-width="0.6"/><path d="M215.0 119.6 Q216.6 113.8 214.8 108.1" stroke="#f0c85a" stroke-width="0.6"/><path d="M299.8 216.0 Q281.5 222.3 264.1 231.1" stroke="#f0c85a" stroke-width="1.9"/><path d="M264.1 231.1 Q248.4 236.6 235.4 246.8" stroke="#f0c85a" stroke-width="1.7"/><path d="M235.4 246.8 Q226.1 251.4 219.3 259.2" stroke="#f0c85a" stroke-width="1.2"/><path d="M219.3 259.2 Q210.9 263.2 202.8 267.9" stroke="#f0c85a" stroke-width="1.0"/><path d="M202.8 267.9 Q195.9 270.4 191.5 276.2" stroke="#f0c85a" stroke-width="0.7"/><path d="M191.5 276.2 Q186.3 280.6 183.8 286.9" stroke="#f0c85a" stroke-width="0.6"/><path d="M235.4 246.8 Q225.7 252.8 221.2 263.3" stroke="#f0c85a" stroke-width="1.2"/><path d="M221.2 263.3 Q216.9 272.9 208.0 278.6" stroke="#f0c85a" stroke-width="1.0"/><path d="M208.0 278.6 Q204.1 286.7 197.6 292.9" stroke="#f0c85a" stroke-width="0.9"/><path d="M197.6 292.9 Q191.5 295.4 185.3 297.9" stroke="#f0c85a" stroke-width="0.6"/><path d="M185.3 297.9 Q179.4 296.7 173.6 298.3" stroke="#f0c85a" stroke-width="0.6"/></g><g fill="none" stroke-linecap="round" filter="url(#gB)" opacity="0.55"><path d="M400.0 250.0 Q421.6 259.3 433.8 279.4" stroke="#73bfc3" stroke-width="8.7"/><path d="M433.8 279.4 Q449.9 292.8 460.7 310.8" stroke="#73bfc3" stroke-width="8.3"/><path d="M460.7 310.8 Q471.6 324.9 487.0 333.8" stroke="#73bfc3" stroke-width="7.9"/><path d="M487.0 333.8 Q492.7 343.6 495.0 354.6" stroke="#73bfc3" stroke-width="7.2"/><path d="M495.0 354.6 Q495.5 364.9 498.2 374.9" stroke="#73bfc3" stroke-width="6.9"/><path d="M498.2 374.9 Q497.1 381.4 494.9 387.7" stroke="#73bfc3" stroke-width="6.5"/><path d="M494.9 387.7 Q495.2 393.4 495.4 399.1" stroke="#73bfc3" stroke-width="6.4"/><path d="M495.4 399.1 Q499.1 401.5 501.0 405.5" stroke="#73bfc3" stroke-width="6.1"/><path d="M501.0 405.5 Q504.6 407.1 508.0 409.3" stroke="#73bfc3" stroke-width="6.1"/><path d="M498.2 374.9 Q500.5 381.1 499.0 387.5" stroke="#73bfc3" stroke-width="6.5"/><path d="M499.0 387.5 Q497.9 393.4 499.9 399.0" stroke="#73bfc3" stroke-width="6.4"/><path d="M499.9 399.0 Q499.3 404.1 498.5 409.1" stroke="#73bfc3" stroke-width="6.2"/><path d="M498.5 409.1 Q496.8 411.9 496.8 415.2" stroke="#73bfc3" stroke-width="6.1"/><path d="M496.8 415.2 Q497.8 418.2 497.0 421.2" stroke="#73bfc3" stroke-width="6.1"/><path d="M400.0 250.0 Q391.1 273.2 372.1 289.2" stroke="#73bfc3" stroke-width="8.7"/><path d="M372.1 289.2 Q371.1 310.2 358.2 326.8" stroke="#73bfc3" stroke-width="8.3"/><path d="M358.2 326.8 Q364.6 341.1 373.4 354.0" stroke="#73bfc3" stroke-width="7.4"/><path d="M373.4 354.0 Q385.4 361.1 391.2 373.8" stroke="#73bfc3" stroke-width="7.2"/><path d="M391.2 373.8 Q398.9 383.1 401.2 395.0" stroke="#73bfc3" stroke-width="6.9"/><path d="M401.2 395.0 Q409.5 395.7 416.1 400.7" stroke="#73bfc3" stroke-width="6.5"/><path d="M416.1 400.7 Q422.6 402.4 429.2 402.8" stroke="#73bfc3" stroke-width="6.4"/><path d="M429.2 402.8 Q435.5 402.2 441.3 404.7" stroke="#73bfc3" stroke-width="6.2"/><path d="M441.3 404.7 Q445.1 403.8 448.9 404.6" stroke="#73bfc3" stroke-width="6.1"/><path d="M448.9 404.6 Q451.9 403.0 455.2 402.8" stroke="#73bfc3" stroke-width="6.1"/><path d="M401.2 395.0 Q405.8 401.8 407.6 409.9" stroke="#73bfc3" stroke-width="6.5"/><path d="M407.6 409.9 Q413.0 414.5 417.1 420.3" stroke="#73bfc3" stroke-width="6.4"/><path d="M417.1 420.3 Q421.4 421.3 425.1 423.6" stroke="#73bfc3" stroke-width="6.1"/><path d="M425.1 423.6 Q429.0 424.2 432.8 425.0" stroke="#73bfc3" stroke-width="6.1"/><path d="M432.8 425.0 Q435.8 426.3 439.1 426.5" stroke="#73bfc3" stroke-width="6.1"/><path d="M400.0 250.0 Q416.6 236.8 437.7 234.5" stroke="#73bfc3" stroke-width="8.7"/><path d="M437.7 234.5 Q453.4 226.2 466.3 214.0" stroke="#73bfc3" stroke-width="8.3"/><path d="M466.3 214.0 Q476.2 202.2 489.7 194.5" stroke="#73bfc3" stroke-width="7.9"/><path d="M489.7 194.5 Q498.1 188.7 508.1 186.4" stroke="#73bfc3" stroke-width="7.2"/><path d="M508.1 186.4 Q516.1 183.2 524.4 181.1" stroke="#73bfc3" stroke-width="6.9"/><path d="M524.4 181.1 Q531.4 179.9 538.3 178.3" stroke="#73bfc3" stroke-width="6.7"/><path d="M538.3 178.3 Q543.7 180.3 549.3 181.4" stroke="#73bfc3" stroke-width="6.4"/><path d="M549.3 181.4 Q554.5 181.9 559.3 184.3" stroke="#73bfc3" stroke-width="6.2"/><path d="M559.3 184.3 Q563.7 185.7 568.4 185.9" stroke="#73bfc3" stroke-width="6.1"/><path d="M568.4 185.9 Q571.1 187.3 573.6 189.1" stroke="#73bfc3" stroke-width="6.1"/><path d="M573.6 189.1 Q575.6 190.8 577.8 192.2" stroke="#73bfc3" stroke-width="6.1"/><path d="M538.3 178.3 Q544.1 178.5 549.9 178.3" stroke="#73bfc3" stroke-width="6.4"/><path d="M549.9 178.3 Q554.5 179.6 559.1 181.1" stroke="#73bfc3" stroke-width="6.2"/><path d="M559.1 181.1 Q561.9 182.8 564.5 184.9" stroke="#73bfc3" stroke-width="6.1"/><path d="M564.5 184.9 Q567.1 186.5 570.1 186.9" stroke="#73bfc3" stroke-width="6.1"/><path d="M489.7 194.5 Q492.4 183.0 497.5 172.2" stroke="#73bfc3" stroke-width="7.2"/><path d="M497.5 172.2 Q498.1 161.3 500.4 150.7" stroke="#73bfc3" stroke-width="6.9"/><path d="M500.4 150.7 Q496.8 141.1 496.9 130.9" stroke="#73bfc3" stroke-width="6.7"/><path d="M496.9 130.9 Q493.6 124.0 489.1 117.8" stroke="#73bfc3" stroke-width="6.4"/><path d="M489.1 117.8 Q486.3 111.7 486.3 104.9" stroke="#73bfc3" stroke-width="6.2"/><path d="M486.3 104.9 Q483.2 100.4 480.8 95.5" stroke="#73bfc3" stroke-width="6.1"/><path d="M480.8 95.5 Q477.8 91.5 477.6 86.6" stroke="#73bfc3" stroke-width="6.1"/><path d="M477.6 86.6 Q478.1 82.3 477.7 78.0" stroke="#73bfc3" stroke-width="6.1"/><path d="M496.9 130.9 Q501.7 126.6 506.5 122.2" stroke="#73bfc3" stroke-width="6.4"/><path d="M506.5 122.2 Q511.5 119.4 517.0 117.7" stroke="#73bfc3" stroke-width="6.2"/><path d="M517.0 117.7 Q521.2 118.1 524.8 116.2" stroke="#73bfc3" stroke-width="6.1"/><path d="M524.8 116.2 Q528.4 116.3 531.9 116.3" stroke="#73bfc3" stroke-width="6.1"/><path d="M400.0 250.0 Q419.3 240.7 440.3 236.2" stroke="#73bfc3" stroke-width="8.7"/><path d="M440.3 236.2 Q460.2 235.7 479.7 231.9" stroke="#73bfc3" stroke-width="8.3"/><path d="M479.7 231.9 Q495.8 239.8 513.5 237.1" stroke="#73bfc3" stroke-width="7.9"/><path d="M513.5 237.1 Q524.9 232.5 533.0 223.4" stroke="#73bfc3" stroke-width="7.2"/><path d="M533.0 223.4 Q541.8 218.0 551.7 215.3" stroke="#73bfc3" stroke-width="6.9"/><path d="M551.7 215.3 Q560.1 214.2 567.8 210.8" stroke="#73bfc3" stroke-width="6.7"/><path d="M567.8 210.8 Q573.3 207.2 579.2 204.2" stroke="#73bfc3" stroke-width="6.4"/><path d="M579.2 204.2 Q585.2 203.3 590.4 200.1" stroke="#73bfc3" stroke-width="6.2"/><path d="M590.4 200.1 Q595.0 202.2 599.1 205.0" stroke="#73bfc3" stroke-width="6.1"/><path d="M599.1 205.0 Q603.5 206.0 607.3 208.6" stroke="#73bfc3" stroke-width="6.1"/><path d="M607.3 208.6 Q610.5 211.0 613.7 213.3" stroke="#73bfc3" stroke-width="6.1"/><path d="M567.8 210.8 Q573.6 206.4 580.8 205.2" stroke="#73bfc3" stroke-width="6.4"/><path d="M580.8 205.2 Q586.4 202.2 589.9 196.9" stroke="#73bfc3" stroke-width="6.2"/><path d="M589.9 196.9 Q595.3 194.8 599.2 190.5" stroke="#73bfc3" stroke-width="6.1"/><path d="M599.2 190.5 Q602.5 188.7 606.3 187.7" stroke="#73bfc3" stroke-width="6.1"/><path d="M606.3 187.7 Q608.8 185.7 611.6 184.0" stroke="#73bfc3" stroke-width="6.1"/><path d="M513.5 237.1 Q527.2 236.3 540.5 239.6" stroke="#73bfc3" stroke-width="7.2"/><path d="M540.5 239.6 Q551.0 247.3 563.9 249.1" stroke="#73bfc3" stroke-width="6.9"/><path d="M563.9 249.1 Q571.9 256.7 582.1 261.0" stroke="#73bfc3" stroke-width="6.7"/><path d="M582.1 261.0 Q589.4 263.9 596.5 267.3" stroke="#73bfc3" stroke-width="6.4"/><path d="M596.5 267.3 Q602.1 271.8 609.2 272.9" stroke="#73bfc3" stroke-width="6.2"/><path d="M609.2 272.9 Q612.5 269.7 617.0 268.8" stroke="#73bfc3" stroke-width="6.1"/><path d="M617.0 268.8 Q620.7 267.7 623.2 264.6" stroke="#73bfc3" stroke-width="6.1"/><path d="M582.1 261.0 Q589.5 263.1 595.8 267.4" stroke="#73bfc3" stroke-width="6.4"/><path d="M595.8 267.4 Q602.2 269.9 609.0 268.7" stroke="#73bfc3" stroke-width="6.2"/><path d="M609.0 268.7 Q615.1 269.5 620.6 272.5" stroke="#73bfc3" stroke-width="6.1"/><path d="M620.6 272.5 Q623.6 275.4 627.8 276.2" stroke="#73bfc3" stroke-width="6.1"/><path d="M627.8 276.2 Q631.5 277.3 634.0 280.4" stroke="#73bfc3" stroke-width="6.1"/></g><g fill="none" stroke-linecap="round" opacity="0.9"><path d="M400.0 250.0 Q421.6 259.3 433.8 279.4" stroke="#73bfc3" stroke-width="3.2"/><path d="M433.8 279.4 Q449.9 292.8 460.7 310.8" stroke="#73bfc3" stroke-width="2.8"/><path d="M460.7 310.8 Q471.6 324.9 487.0 333.8" stroke="#73bfc3" stroke-width="2.4"/><path d="M487.0 333.8 Q492.7 343.6 495.0 354.6" stroke="#73bfc3" stroke-width="1.7"/><path d="M495.0 354.6 Q495.5 364.9 498.2 374.9" stroke="#73bfc3" stroke-width="1.4"/><path d="M498.2 374.9 Q497.1 381.4 494.9 387.7" stroke="#73bfc3" stroke-width="1.0"/><path d="M494.9 387.7 Q495.2 393.4 495.4 399.1" stroke="#73bfc3" stroke-width="0.9"/><path d="M495.4 399.1 Q499.1 401.5 501.0 405.5" stroke="#73bfc3" stroke-width="0.6"/><path d="M501.0 405.5 Q504.6 407.1 508.0 409.3" stroke="#73bfc3" stroke-width="0.6"/><path d="M498.2 374.9 Q500.5 381.1 499.0 387.5" stroke="#73bfc3" stroke-width="1.0"/><path d="M499.0 387.5 Q497.9 393.4 499.9 399.0" stroke="#73bfc3" stroke-width="0.9"/><path d="M499.9 399.0 Q499.3 404.1 498.5 409.1" stroke="#73bfc3" stroke-width="0.7"/><path d="M498.5 409.1 Q496.8 411.9 496.8 415.2" stroke="#73bfc3" stroke-width="0.6"/><path d="M496.8 415.2 Q497.8 418.2 497.0 421.2" stroke="#73bfc3" stroke-width="0.6"/><path d="M400.0 250.0 Q391.1 273.2 372.1 289.2" stroke="#73bfc3" stroke-width="3.2"/><path d="M372.1 289.2 Q371.1 310.2 358.2 326.8" stroke="#73bfc3" stroke-width="2.8"/><path d="M358.2 326.8 Q364.6 341.1 373.4 354.0" stroke="#73bfc3" stroke-width="1.9"/><path d="M373.4 354.0 Q385.4 361.1 391.2 373.8" stroke="#73bfc3" stroke-width="1.7"/><path d="M391.2 373.8 Q398.9 383.1 401.2 395.0" stroke="#73bfc3" stroke-width="1.4"/><path d="M401.2 395.0 Q409.5 395.7 416.1 400.7" stroke="#73bfc3" stroke-width="1.0"/><path d="M416.1 400.7 Q422.6 402.4 429.2 402.8" stroke="#73bfc3" stroke-width="0.9"/><path d="M429.2 402.8 Q435.5 402.2 441.3 404.7" stroke="#73bfc3" stroke-width="0.7"/><path d="M441.3 404.7 Q445.1 403.8 448.9 404.6" stroke="#73bfc3" stroke-width="0.6"/><path d="M448.9 404.6 Q451.9 403.0 455.2 402.8" stroke="#73bfc3" stroke-width="0.6"/><path d="M401.2 395.0 Q405.8 401.8 407.6 409.9" stroke="#73bfc3" stroke-width="1.0"/><path d="M407.6 409.9 Q413.0 414.5 417.1 420.3" stroke="#73bfc3" stroke-width="0.9"/><path d="M417.1 420.3 Q421.4 421.3 425.1 423.6" stroke="#73bfc3" stroke-width="0.6"/><path d="M425.1 423.6 Q429.0 424.2 432.8 425.0" stroke="#73bfc3" stroke-width="0.6"/><path d="M432.8 425.0 Q435.8 426.3 439.1 426.5" stroke="#73bfc3" stroke-width="0.6"/><path d="M400.0 250.0 Q416.6 236.8 437.7 234.5" stroke="#73bfc3" stroke-width="3.2"/><path d="M437.7 234.5 Q453.4 226.2 466.3 214.0" stroke="#73bfc3" stroke-width="2.8"/><path d="M466.3 214.0 Q476.2 202.2 489.7 194.5" stroke="#73bfc3" stroke-width="2.4"/><path d="M489.7 194.5 Q498.1 188.7 508.1 186.4" stroke="#73bfc3" stroke-width="1.7"/><path d="M508.1 186.4 Q516.1 183.2 524.4 181.1" stroke="#73bfc3" stroke-width="1.4"/><path d="M524.4 181.1 Q531.4 179.9 538.3 178.3" stroke="#73bfc3" stroke-width="1.2"/><path d="M538.3 178.3 Q543.7 180.3 549.3 181.4" stroke="#73bfc3" stroke-width="0.9"/><path d="M549.3 181.4 Q554.5 181.9 559.3 184.3" stroke="#73bfc3" stroke-width="0.7"/><path d="M559.3 184.3 Q563.7 185.7 568.4 185.9" stroke="#73bfc3" stroke-width="0.6"/><path d="M568.4 185.9 Q571.1 187.3 573.6 189.1" stroke="#73bfc3" stroke-width="0.6"/><path d="M573.6 189.1 Q575.6 190.8 577.8 192.2" stroke="#73bfc3" stroke-width="0.6"/><path d="M538.3 178.3 Q544.1 178.5 549.9 178.3" stroke="#73bfc3" stroke-width="0.9"/><path d="M549.9 178.3 Q554.5 179.6 559.1 181.1" stroke="#73bfc3" stroke-width="0.7"/><path d="M559.1 181.1 Q561.9 182.8 564.5 184.9" stroke="#73bfc3" stroke-width="0.6"/><path d="M564.5 184.9 Q567.1 186.5 570.1 186.9" stroke="#73bfc3" stroke-width="0.6"/><path d="M489.7 194.5 Q492.4 183.0 497.5 172.2" stroke="#73bfc3" stroke-width="1.7"/><path d="M497.5 172.2 Q498.1 161.3 500.4 150.7" stroke="#73bfc3" stroke-width="1.4"/><path d="M500.4 150.7 Q496.8 141.1 496.9 130.9" stroke="#73bfc3" stroke-width="1.2"/><path d="M496.9 130.9 Q493.6 124.0 489.1 117.8" stroke="#73bfc3" stroke-width="0.9"/><path d="M489.1 117.8 Q486.3 111.7 486.3 104.9" stroke="#73bfc3" stroke-width="0.7"/><path d="M486.3 104.9 Q483.2 100.4 480.8 95.5" stroke="#73bfc3" stroke-width="0.6"/><path d="M480.8 95.5 Q477.8 91.5 477.6 86.6" stroke="#73bfc3" stroke-width="0.6"/><path d="M477.6 86.6 Q478.1 82.3 477.7 78.0" stroke="#73bfc3" stroke-width="0.6"/><path d="M496.9 130.9 Q501.7 126.6 506.5 122.2" stroke="#73bfc3" stroke-width="0.9"/><path d="M506.5 122.2 Q511.5 119.4 517.0 117.7" stroke="#73bfc3" stroke-width="0.7"/><path d="M517.0 117.7 Q521.2 118.1 524.8 116.2" stroke="#73bfc3" stroke-width="0.6"/><path d="M524.8 116.2 Q528.4 116.3 531.9 116.3" stroke="#73bfc3" stroke-width="0.6"/><path d="M400.0 250.0 Q419.3 240.7 440.3 236.2" stroke="#73bfc3" stroke-width="3.2"/><path d="M440.3 236.2 Q460.2 235.7 479.7 231.9" stroke="#73bfc3" stroke-width="2.8"/><path d="M479.7 231.9 Q495.8 239.8 513.5 237.1" stroke="#73bfc3" stroke-width="2.4"/><path d="M513.5 237.1 Q524.9 232.5 533.0 223.4" stroke="#73bfc3" stroke-width="1.7"/><path d="M533.0 223.4 Q541.8 218.0 551.7 215.3" stroke="#73bfc3" stroke-width="1.4"/><path d="M551.7 215.3 Q560.1 214.2 567.8 210.8" stroke="#73bfc3" stroke-width="1.2"/><path d="M567.8 210.8 Q573.3 207.2 579.2 204.2" stroke="#73bfc3" stroke-width="0.9"/><path d="M579.2 204.2 Q585.2 203.3 590.4 200.1" stroke="#73bfc3" stroke-width="0.7"/><path d="M590.4 200.1 Q595.0 202.2 599.1 205.0" stroke="#73bfc3" stroke-width="0.6"/><path d="M599.1 205.0 Q603.5 206.0 607.3 208.6" stroke="#73bfc3" stroke-width="0.6"/><path d="M607.3 208.6 Q610.5 211.0 613.7 213.3" stroke="#73bfc3" stroke-width="0.6"/><path d="M567.8 210.8 Q573.6 206.4 580.8 205.2" stroke="#73bfc3" stroke-width="0.9"/><path d="M580.8 205.2 Q586.4 202.2 589.9 196.9" stroke="#73bfc3" stroke-width="0.7"/><path d="M589.9 196.9 Q595.3 194.8 599.2 190.5" stroke="#73bfc3" stroke-width="0.6"/><path d="M599.2 190.5 Q602.5 188.7 606.3 187.7" stroke="#73bfc3" stroke-width="0.6"/><path d="M606.3 187.7 Q608.8 185.7 611.6 184.0" stroke="#73bfc3" stroke-width="0.6"/><path d="M513.5 237.1 Q527.2 236.3 540.5 239.6" stroke="#73bfc3" stroke-width="1.7"/><path d="M540.5 239.6 Q551.0 247.3 563.9 249.1" stroke="#73bfc3" stroke-width="1.4"/><path d="M563.9 249.1 Q571.9 256.7 582.1 261.0" stroke="#73bfc3" stroke-width="1.2"/><path d="M582.1 261.0 Q589.4 263.9 596.5 267.3" stroke="#73bfc3" stroke-width="0.9"/><path d="M596.5 267.3 Q602.1 271.8 609.2 272.9" stroke="#73bfc3" stroke-width="0.7"/><path d="M609.2 272.9 Q612.5 269.7 617.0 268.8" stroke="#73bfc3" stroke-width="0.6"/><path d="M617.0 268.8 Q620.7 267.7 623.2 264.6" stroke="#73bfc3" stroke-width="0.6"/><path d="M582.1 261.0 Q589.5 263.1 595.8 267.4" stroke="#73bfc3" stroke-width="0.9"/><path d="M595.8 267.4 Q602.2 269.9 609.0 268.7" stroke="#73bfc3" stroke-width="0.7"/><path d="M609.0 268.7 Q615.1 269.5 620.6 272.5" stroke="#73bfc3" stroke-width="0.6"/><path d="M620.6 272.5 Q623.6 275.4 627.8 276.2" stroke="#73bfc3" stroke-width="0.6"/><path d="M627.8 276.2 Q631.5 277.3 634.0 280.4" stroke="#73bfc3" stroke-width="0.6"/></g><circle cx="400" cy="250" r="27.3" fill="#f0c85a" opacity=".28" filter="url(#gB)"/><circle cx="400" cy="250" r="13.0" fill="#f0c85a" filter="url(#gS)"/><circle cx="400" cy="250" r="6.5" fill="#fff" opacity=".9"/><circle cx="400" cy="270" r="215" fill="none" stroke="#f7f4ec" stroke-width="2" opacity="0.18"/><g opacity="0.55"><rect x="620" y="470" width="110" height="6" rx="3" fill="#f7f4ec"/><text x="620" y="462" fill="#f7f4ec" font-family="Georgia,serif" font-size="20">50 µm</text></g></svg>